<?xml version="1.0" standalone="no"?>
<!DOCTYPE svg PUBLIC "-//W3C//DTD SVG 1.1//EN" "http://www.w3.org/Graphics/SVG/1.1/DTD/svg11.dtd" >
<svg>
<metadata>
Created by FontForge 20090914 at Sun Jan 31 14:32:59 2021
 By www-data
Copyright 1992 Southern Software, Inc. All Rights Reserved.
</metadata>
<defs>
<font id="VAGWorld-Bold" horiz-adv-x="1081" >
  <font-face 
    font-family="VAG World"
    font-weight="700"
    font-stretch="normal"
    units-per-em="2048"
    panose-1="0 0 0 0 0 0 0 0 0 0"
    ascent="1638"
    descent="-410"
    x-height="1100"
    cap-height="1458"
    bbox="-410 -834 3037 2470"
    underline-thickness="102"
    underline-position="-664"
    unicode-range="U+001D-U+FB02"
  />
<missing-glyph horiz-adv-x="748" 
d="M68 0v1365h544v-1365h-544zM136 68h408v1229h-408v-1229z" />
    <glyph glyph-name=".notdef" horiz-adv-x="748" 
d="M68 0v1365h544v-1365h-544zM136 68h408v1229h-408v-1229z" />
    <glyph glyph-name="uni001D" horiz-adv-x="0" 
 />
    <glyph glyph-name="uni001D" horiz-adv-x="0" 
 />
    <glyph glyph-name="space" unicode=" " horiz-adv-x="540" 
 />
    <glyph glyph-name="exclam" unicode="!" horiz-adv-x="497" 
d="M70 147c0 48 17.333 90.166 52 126.499s76.667 54.5 126 54.5c48 0 89.667 -17.833 125 -53.5s53 -78.167 53 -127.5s-17.833 -91.666 -53.5 -126.999s-77.167 -53 -124.5 -53c-49.333 0 -91.333 17.5 -126 52.5s-52 77.5 -52 127.5zM88 597.999v725
c0 50.667 14.333 93.667 43 129s67.667 53 117 53c50.667 0 90 -17 118 -51s42 -77.667 42 -131v-725c0 -50.667 -14.333 -93.667 -43 -129s-67.667 -53 -117 -53c-50.667 0 -90 17 -118 51s-42 77.667 -42 131z" />
    <glyph glyph-name="quotedbl" unicode="&#x22;" horiz-adv-x="1024" 
d="M178 991l-0.000976562 348c0 42 12.333 76.833 37 104.5s57.334 41.5 98.001 41.5c42 0 75.167 -13.333 99.5 -40s36.5 -62 36.5 -106v-348c0 -42 -12.333 -76.667 -37 -104s-57.667 -41 -99 -41c-42 0 -75 13.333 -99 40s-36 61.667 -36 105zM572.999 991
l0.000976562 348c0 42 12.333 76.833 37 104.5s57.667 41.5 99 41.5c42 0 75 -13.333 99 -40s36 -62 36 -106v-348c0 -42 -12.333 -76.667 -37 -104s-57.334 -41 -98.001 -41c-42 0 -75.167 13.333 -99.5 40s-36.5 61.667 -36.5 105z" />
    <glyph glyph-name="numbersign" unicode="#" horiz-adv-x="1185" 
d="M74 514c0 28.667 7.83008 52.166 23.4971 70.499s40.5 27.5 74.5 27.5h104l33 246h-78c-32.667 0 -57.167 9.5 -73.5 28.5s-24.5 42.833 -24.5 71.5s7.83301 52.334 23.5 71.001s40.5 28 74.5 28h109l43 321c4 34 14.167 60.333 30.5 79s44.5 28 84.5 28
c26 0 47.833 -7.5 65.5 -22.5s26.5 -35.5 26.5 -61.5l-8 -74l-37 -270h184l43 321c4 34 14.167 60.333 30.5 79s44.5 28 84.5 28c26 0 47.833 -7.5 65.5 -22.5s26.5 -35.5 26.5 -61.5l-8 -74l-37 -270h78c32.667 0 57.167 -9.66699 73.5 -29s24.5 -42.666 24.5 -69.999
c0 -28.667 -6.66699 -51 -20 -67c-18 -22 -44 -33 -78 -33h-105l-33 -246h78c32.667 0 57.334 -9.5 74.001 -28.5s25 -42.167 25 -69.5c0 -28.667 -7 -51.334 -21 -68.001c-18 -22 -44 -32.667 -78 -32h-108l-43 -320c-2.66699 -32.667 -12.667 -58.5 -30 -77.5
s-45.666 -28.5 -84.999 -28.5c-26 0 -47.833 7.5 -65.5 22.5s-26.5 35.5 -26.5 61.5l8 73l37 269h-184l-43 -320c-2.66699 -32.667 -12.667 -58.5 -30 -77.5s-45.666 -28.5 -84.999 -28.5c-26 0 -47.833 7.5 -65.5 22.5s-26.5 35.5 -26.5 61.5l8 73l37 269h-78
c-32.667 0 -57.167 9.5 -73.5 28.5s-24.5 42.833 -24.5 71.5zM482.997 611.999h187l32 246h-186z" />
    <glyph glyph-name="dollar" unicode="$" horiz-adv-x="1210" 
d="M82 207c0 45.333 13.999 85.334 41.999 120.001s63 52 105 52c18 0 61.833 -15 131.5 -45s131.167 -45 184.5 -45v321c-165.333 48 -284.333 106.667 -357 176c-66.667 64 -100 145.333 -100 244c0 132.667 45 243.334 135 332.001c86 83.333 193.333 131 322 143v97
c0 40.667 20.333 61 61 61s61.334 -20.333 62.001 -61v-97c87.333 0 163.666 -14.333 228.999 -43c88.667 -39.333 133 -98 133 -176c0 -40.667 -13 -76.834 -39 -108.501s-58.667 -47.5 -98 -47.5c-20.667 0 -65.667 17.333 -135 52c-35.333 18 -65.333 26.667 -90 26v-293
c142 -39.333 248.333 -88.333 319 -147c95.333 -78 143 -182.333 143 -313c0 -148.667 -51.667 -270.334 -155 -365.001c-91.333 -82 -193.666 -123 -306.999 -123v-92c0 -40.667 -20.667 -61 -62 -61c-40.667 0 -61 20.333 -61 61v92c-104 0 -197.667 15 -281 45
c-121.333 44 -182 109 -182 195zM431.999 1071c0 -31.333 10.667 -56.832 32 -76.499s48.333 -33.834 81 -42.501v256c-32.667 -6.66699 -59.667 -22 -81 -46s-32 -54.333 -32 -91zM667.999 289.002c34 0 62.167 14 84.5 42s33.5 61 33.5 99c0 42 -9.5 74 -28.5 96
s-48.833 39.333 -89.5 52v-289z" />
    <glyph glyph-name="percent" unicode="%" horiz-adv-x="1476" 
d="M72 1174c0 91.333 31 169.333 93 234s137.333 97 226 97c90 0 165.833 -32.667 227.5 -98s92.5 -143 92.5 -233s-31.167 -168.167 -93.5 -234.5s-137.833 -99.5 -226.5 -99.5c-91.333 0 -167.333 32.667 -228 98s-91 144 -91 236zM252 82c0 22 4 43.002 12 63.002
c4 9.33301 21 39.666 51 90.999l662 1161c22 38 39.667 64 53 78c20.667 20.667 45.334 30.667 74.001 30c34 0 62.667 -10.833 86 -32.5s35 -48.834 35 -81.501c0 -24.667 -7.66699 -52 -23 -82c-20.667 -34 -34.334 -58 -41.001 -72l-661 -1161c-22 -38 -40 -64 -54 -78
c-20.667 -20.667 -45 -31 -73 -31c-34 0 -62.667 11 -86 33s-35 49.333 -35 82zM305 1174c0 -27.333 7.5 -50.6641 22.5 -69.9971s36.167 -29 63.5 -29c26 0 46.833 9.16699 62.5 27.5s23.5 42.166 23.5 71.499c0 27.333 -7.83301 50.166 -23.5 68.499
s-36.5 27.5 -62.5 27.5s-46.833 -9.33301 -62.5 -28s-23.5 -41.334 -23.5 -68.001zM766 299.004c0 90 31 168.167 93 234.5s137.333 99.5 226 99.5s164.167 -33.167 226.5 -99.5s93.5 -144.5 93.5 -234.5c0 -88.667 -31 -166.167 -93 -232.5s-137.667 -99.5 -227 -99.5
c-91.333 0 -167.333 32.5 -228 97.5s-91 143.167 -91 234.5zM999 299.004c0 -27.333 7.83301 -50.166 23.5 -68.499s36.5 -27.5 62.5 -27.5s46.833 9.16699 62.5 27.5s23.5 41.166 23.5 68.499s-7.5 50.5 -22.5 69.5s-36.167 28.5 -63.5 28.5
c-26 0 -46.833 -9.16699 -62.5 -27.5s-23.5 -41.833 -23.5 -70.5z" />
    <glyph glyph-name="ampersand" unicode="&#x26;" horiz-adv-x="1519" 
d="M80 406c0 105.333 31.334 195.333 94.001 270c52 61.333 130.667 118.666 236 171.999c-60 69.333 -98 122.833 -114 160.5s-24 79.167 -24 124.5c0 109.333 39.333 196 118 260s178 96 298 96c122.667 0 221.667 -26 297 -78c88.667 -61.333 133 -153.333 133 -276
c0 -76.667 -24.667 -147.667 -74 -213c-44 -58.667 -102.667 -108.667 -176 -150l207 -242l80 99c34 44 60.333 71.667 79 83s38.667 17 60 17c35.333 0 68.5 -14.667 99.5 -44s46.5 -61.666 46.5 -96.999c0 -26 -10 -53.667 -30 -83s-47.667 -62.333 -83 -99l-74 -76
l62 -72c30 -32.667 49.333 -57.5 58 -74.5s13 -33.833 13 -50.5c0 -44 -15.667 -79.167 -47 -105.5s-68.666 -39.5 -111.999 -39.5c-28.667 0 -51.167 5 -67.5 15s-37.5 31 -63.5 63l-60 69c-70.667 -60 -144.334 -103 -221.001 -129s-163.334 -39 -260.001 -39
c-134 0 -245.333 39 -334 117c-94 82 -141 189.333 -141 322zM399.001 418c0 -56 18.5 -101.832 55.5 -137.499s84.167 -53.5 141.5 -53.5c52 0 99.167 9.66699 141.5 29s82.5 46 120.5 80l-274 307c-62.667 -36.667 -109.167 -72.834 -139.5 -108.501
s-45.5 -74.5 -45.5 -116.5zM567.001 1141c0 -32.667 7.83301 -61.668 23.5 -87.001s48.167 -58.666 97.5 -99.999c58.667 27.333 100 55 124 83s36 57.667 36 89c0 44 -13.667 78.333 -41 103s-63 37 -107 37c-36.667 0 -68 -11.667 -94 -35s-39 -53.333 -39 -90z" />
    <glyph glyph-name="quotesingle" unicode="'" horiz-adv-x="471" 
d="M100 991l0.000976562 348c0 42 12.333 76.833 37 104.5s57.667 41.5 99 41.5c42 0 75 -13.333 99 -40s36 -62 36 -106v-348c0 -42 -12.333 -76.667 -37 -104s-57.334 -41 -98.001 -41c-42 0 -75.167 13.333 -99.5 40s-36.5 61.667 -36.5 105z" />
    <glyph glyph-name="parenleft" unicode="(" horiz-adv-x="473" 
d="M20 580c0 148.667 11.832 287.502 35.499 416.502s55.167 240.5 94.5 334.5c19.333 49.333 34.333 83 45 101c30 49.333 69.333 73.666 118 72.999c40.667 0 74.5 -11.833 101.5 -35.5s40.5 -54.834 40.5 -93.501c-39.333 -114.667 -73.666 -238.667 -102.999 -372
c-32.667 -148.667 -49 -290 -49 -424c0 -139.333 15.667 -280.666 47 -423.999l105 -373c0 -40.667 -13 -72.667 -39 -96s-60.333 -35 -103 -35c-39.333 0 -72 15.667 -98 47c-19.333 23.333 -41 65.666 -65 126.999c-38 94 -69.167 205.167 -93.5 333.5
s-36.5 268.5 -36.5 420.5z" />
    <glyph glyph-name="parenright" unicode=")" horiz-adv-x="544" 
d="M55 -217c39.333 113.333 74.499 240.67 105.499 382.003s46.5 279.666 46.5 414.999c0 138 -15.667 278.333 -47 421l-105 375c0 39.333 13 70.666 39 93.999s60.333 35 103 35c48 0 86 -23.667 114 -71c13.333 -23.333 29.666 -57.666 48.999 -102.999
c36.667 -92.667 67.334 -204.834 92.001 -336.501s37 -269.834 37 -414.501c0 -151.333 -11.667 -289.833 -35 -415.5s-54.666 -238.5 -93.999 -338.5c-26 -60 -47.667 -101.667 -65 -125c-26 -32.667 -58.667 -49 -98 -49c-40.667 0 -74.5 12 -101.5 36
s-40.5 55.667 -40.5 95z" />
    <glyph glyph-name="asterisk" unicode="*" horiz-adv-x="886" 
d="M88 965c0 36.667 28.666 67.3311 85.999 91.998c27.333 10.667 55.333 22.334 84 35.001l-108 47c-40.667 22 -61.334 49.333 -62.001 82c0 32.667 9.83301 60.834 29.5 84.501s45.5 35.5 77.5 35.5c16.667 0 33.667 -4.66699 51 -14l104 -70
c-6.66699 44 -12.667 88 -18 132c0 32.667 10.5 56.834 31.5 72.501s47.167 23.5 78.5 23.5c32.667 0 59.334 -7.83301 80.001 -23.5s31 -39.834 31 -72.501c0 -18 -2 -38.667 -6 -62l-12 -70l79.5 56.5c27 18.333 51.5 27.5 73.5 27.5
c31.333 0 57.666 -11.833 78.999 -35.5s32 -51.834 32 -84.501c0 -38 -28.667 -69.667 -86 -95c-28.667 -12 -57.334 -23.333 -86.001 -34l110 -48c40.667 -20.667 61.334 -47 62.001 -79c0 -34 -10.667 -63 -32 -87s-47.666 -36 -78.999 -36
c-24.667 0 -55.334 13 -92.001 39l-61 45c5.33301 -44 11.333 -87 18 -129c0 -32.667 -10.167 -57.334 -30.5 -74.001s-47.166 -25 -80.499 -25c-31.333 0 -57.5 8.33301 -78.5 25s-31.5 41.334 -31.5 74.001c0 16.667 3 42 9 76s9 51.667 9 53l-82 -56.5
c-27.333 -18.333 -51.666 -27.5 -72.999 -27.5c-31.333 0 -57 11.833 -77 35.5s-30 52.834 -30 87.501z" />
    <glyph glyph-name="plus" unicode="+" horiz-adv-x="1280" 
d="M61 586c0 42 12.668 74.999 38.001 98.999s60.666 36 105.999 36h301v305c0 44 12 79.167 36 105.5s57 39.5 99 39.5s75 -13.167 99 -39.5s36 -61.5 36 -105.5v-305h301c44 0 79 -11.667 105 -35s39 -56.666 39 -99.999c0 -44 -12.667 -77.833 -38 -101.5
s-60.666 -35.5 -105.999 -35.5h-301v-304c0 -44 -11.833 -79.167 -35.5 -105.5s-56.834 -39.5 -99.501 -39.5c-44 0 -77.5 13 -100.5 39s-34.5 61.333 -34.5 106v304h-301c-44 0 -79 12.833 -105 38.5s-39 58.5 -39 98.5z" />
    <glyph glyph-name="comma" unicode="," horiz-adv-x="538" 
d="M18 -172c0 19.333 2.83301 36.499 8.5 51.499s13.167 31.167 22.5 48.5l168 303c16.667 30 35 52.667 55 68c26 19.333 56 29 90 29c45.333 0 82.666 -13.333 111.999 -40s44 -60.667 44 -102c0 -19.333 -2.66699 -37 -8 -53s-13 -31.667 -23 -47l-168 -303
c-16.667 -30 -36.5 -53.5 -59.5 -70.5s-51.5 -25.5 -85.5 -25.5c-45.333 0 -82.666 13.333 -111.999 40s-44 60.334 -44 101.001z" />
    <glyph glyph-name="hyphen" unicode="-" horiz-adv-x="813" 
d="M31 578c0 42 11.832 75 35.499 99s56.834 36 99.501 36h483c40.667 0 73.334 -12.333 98.001 -37s37 -57.334 37 -98.001c0 -91.333 -45 -137.333 -135 -138h-483c-40.667 0 -73.334 12.333 -98.001 37s-37 58.334 -37 101.001z" />
    <glyph glyph-name="period" unicode="." horiz-adv-x="507" 
d="M76 147c0 48 17.333 90.166 52 126.499s76.667 54.5 126 54.5c48 0 89.667 -17.833 125 -53.5s53 -78.167 53 -127.5s-17.667 -91.666 -53 -126.999s-77 -53 -125 -53c-49.333 0 -91.333 17.5 -126 52.5s-52 77.5 -52 127.5z" />
    <glyph glyph-name="slash" unicode="/" horiz-adv-x="942" 
d="M18 78c0 26 11.6689 63.333 35.002 112c19.333 36.667 33.666 64.667 42.999 84l551 1061c31.333 58.667 54.666 97.667 69.999 117c27.333 35.333 57.333 53 90 53c76.667 0 115 -36.667 115 -110c0 -22 -7.66699 -50.667 -23 -86c-8 -19.333 -26.333 -56.333 -55 -111
l-551 -1061c-36.667 -70.667 -66 -116.667 -88 -138s-46 -32 -72 -32c-76.667 0 -115 37 -115 111z" />
    <glyph glyph-name="zero" unicode="0" horiz-adv-x="1304" 
d="M43 737c0 210 49 386.333 147 529c110.667 159.333 265 239 463 239s352.333 -79.667 463 -239c98 -140.667 147.333 -317 148 -529c0 -211.333 -49.333 -388 -148 -530c-110.667 -160 -265 -240 -463 -240s-352.333 80 -463 240c-98 142 -147 318.667 -147 530zM387 737
c0 -114.667 18.332 -212.332 54.999 -292.999c48 -103.333 118.333 -155 211 -155c94 0 164.333 51 211 153c36.667 80.667 55.334 179 56.001 295c0 113.333 -18.667 210.333 -56 291c-48 104 -118.333 156 -211 156c-94 0 -164.333 -51.333 -211 -154
c-36.667 -80.667 -55 -178.334 -55 -293.001z" />
    <glyph glyph-name="one" unicode="1" horiz-adv-x="1304" 
d="M358 1317c0 42 13.333 78.501 40 109.501s64.667 46.5 114 46.5h270c46.667 0 83.667 -10.333 111 -31c36.667 -28.667 55 -74.334 55 -137.001v-1139c0 -57.333 -15.333 -101.333 -46 -132s-70.667 -46 -120 -46c-50.667 0 -91 15 -121 45s-45 74.333 -45 133v997h-104
c-49.333 0 -87.333 15.333 -114 46s-40 66.667 -40 108z" />
    <glyph glyph-name="two" unicode="2" horiz-adv-x="1304" 
d="M147 147c0 52 33.6709 116.335 101.004 193.002c79.333 79.333 129.666 131.333 150.999 156l217 254c102.667 132.667 154 230.667 154 294c0 49.333 -10.833 85 -32.5 107s-53.167 33 -94.5 33c-74 0 -128.333 -52.333 -163 -157s-86 -157 -154 -157
c-50.667 0 -89.667 16.167 -117 48.5s-41 70.166 -41 113.499c0 130 47.167 241.333 141.5 334s212.5 139 354.5 139c130 0 239.5 -41.333 328.5 -124s133.5 -190 133.5 -322c0 -90 -27.333 -182.333 -82 -277c-36.667 -64 -99.334 -145.667 -188.001 -245
c-122.667 -138 -189 -213.333 -199 -226h349c48 0 85.5 -15.667 112.5 -47s40.5 -67.333 40.5 -108c0 -42 -13.333 -78.5 -40 -109.5s-64.334 -46.5 -113.001 -46.5h-670c-54.667 0 -99.834 13.667 -135.501 41s-53.5 62.666 -53.5 105.999z" />
    <glyph glyph-name="three" unicode="3" horiz-adv-x="1304" 
d="M139 369c0 39.333 16.499 74.6689 49.499 106.002s67.833 47 104.5 47c54.667 0 108.667 -38.833 162 -116.5s120.666 -116.5 201.999 -116.5c48 0 87.667 17 119 51s47 75.667 47 125c0 58.667 -21 101.667 -63 129c-34 22 -82 33 -144 33c-38 0 -70 12.333 -96 37
c-30 28.667 -45 68.667 -45 120c0 45.333 12.333 78.5 37 99.5s70.334 39.167 137.001 54.5c40.667 9.33301 71.667 24.333 93 45s32 50.667 32 90c0 36.667 -11.5 64.334 -34.5 83.001s-53.167 28 -90.5 28c-50.667 0 -117.334 -39.667 -200.001 -119
c-39.333 -38 -81.666 -57 -126.999 -57c-39.333 0 -71.833 15.667 -97.5 47s-38.5 66.666 -38.5 105.999c0 98 52 181.333 156 250c94 62.667 195 94 303 94c126.667 0 232 -34.667 316 -104c88.667 -75.333 133 -175 133 -299c0 -53.333 -13.667 -106.333 -41 -159
s-68.333 -99.334 -123 -140.001c76.667 -30 135.334 -78.5 176.001 -145.5s61 -143.5 61 -229.5c0 -132.667 -49.167 -242.667 -147.5 -330s-219.833 -131 -364.5 -131c-146 0 -268.5 40.667 -367.5 122s-148.5 174.666 -148.5 279.999z" />
    <glyph glyph-name="four" unicode="4" horiz-adv-x="1304" 
d="M18 442c0 27.333 7.66895 58.332 23.002 92.999c8 20.667 21.667 44.334 41 71.001l487 762c27.333 44 59.833 74.5 97.5 91.5s83.834 25.5 138.501 25.5c75.333 0 135.166 -22.833 179.499 -68.5s66.5 -106.834 66.5 -183.501v-625h69
c53.333 0 94.666 -11.833 123.999 -35.5s44 -61.5 44 -113.5c0 -50.667 -14.333 -88 -43 -112s-70.334 -36 -125.001 -36h-69v-137c0 -124 -53.333 -186 -160 -186s-160 60.667 -160 182v141h-547c-56 0 -99 15 -129 45c-24.667 24.667 -37 53.334 -37 86.001z
M424.002 607.999h307v527z" />
    <glyph glyph-name="five" unicode="5" horiz-adv-x="1304" 
d="M145 242c0 49.333 13.668 89.6699 41.001 121.003s61 47 101 47c34 0 71.333 -12.333 112 -37c92.667 -56 163 -84 211 -84c60 0 107.5 20.833 142.5 62.5s52.5 101.834 52.5 180.501c0 53.333 -13.667 98.666 -41 135.999c-31.333 40.667 -72.333 61 -123 61
c-46.667 0 -91.834 -12.667 -135.501 -38s-81.834 -38 -114.501 -38c-40.667 0 -73 10.667 -97 32s-36 51.666 -36 90.999v60.5c0 18.333 3.33301 50.166 10 95.499l51 401c6.66699 57.333 27.334 96.333 62.001 117c24.667 15.333 63 23 115 23h499
c49.333 0 87.333 -15.5 114 -46.5s40 -67.5 40 -109.5s-12.333 -77 -37 -105c-28.667 -32.667 -67.667 -49 -117 -49h-395l-22 -182c50.667 13.333 101.667 20 153 20c136.667 0 244 -48.333 322 -145c72.667 -90 108.667 -205.333 108 -346
c0 -152.667 -51.5 -281.334 -154.5 -386.001s-231.5 -157 -385.5 -157c-116 0 -222 25.333 -318 76c-105.333 54.667 -158 121 -158 199z" />
    <glyph glyph-name="six" unicode="6" horiz-adv-x="1304" 
d="M123 469c0 122.667 30 248.335 90 377.002c46.667 99.333 113 203 199 311c117.333 147.333 201.333 243.666 252 288.999c44 39.333 86.333 59 127 59c49.333 0 89.333 -19.667 120 -59c26 -32.667 39 -66 39 -100c0 -35.333 -19 -76.333 -57 -123l-252 -297l4 -4
c31.333 12 74.333 18 129 18c117.333 0 215 -46.833 293 -140.5s117 -201.167 117 -322.5c0 -144.667 -49.5 -265.834 -148.5 -363.501s-226.5 -146.5 -382.5 -146.5c-161.333 0 -290 46.167 -386 138.5s-144 213.5 -144 363.5zM467 477.001
c0 -50.667 18.001 -94.667 54.001 -132s80 -56 132 -56s96.167 18.667 132.5 56s54.5 81.333 54.5 132c0 52 -17.833 96.5 -53.5 133.5s-80.167 55.5 -133.5 55.5c-50.667 0 -94.334 -18.5 -131.001 -55.5s-55 -81.5 -55 -133.5z" />
    <glyph glyph-name="seven" unicode="7" horiz-adv-x="1304" 
d="M154 1317c0 42 13.167 78.501 39.5 109.501s64.166 46.5 113.499 46.5h672c52 0 93.667 -16.5 125 -49.5s47 -69.833 47 -110.5c0 -24.667 -4 -48.667 -12 -72c-2.66699 -6.66699 -14.334 -33.334 -35.001 -80.001l-465 -1014c-23.333 -53.333 -44.666 -90 -63.999 -110
c-30 -32.667 -70.667 -49 -122 -49c-49.333 0 -89 15.667 -119 47s-45 66 -45 104c0 22 2 39.5 6 52.5s19.667 48.167 47 105.5l408 866h-443c-49.333 0 -87.166 15.333 -113.499 46s-39.5 66.667 -39.5 108z" />
    <glyph glyph-name="eight" unicode="8" horiz-adv-x="1304" 
d="M119 446c0 70.667 16.002 137.17 48.002 199.503s81.333 114.166 148 155.499c-31.333 26 -60 61.333 -86 106c-32.667 58.667 -49 120.334 -49 185.001c0 131.333 47.333 234.333 142 309c87.333 69.333 197.666 104 330.999 104c135.333 0 246 -34 332 -102
c94 -74.667 141 -178.334 141 -311.001c0 -62.667 -16.333 -124.334 -49 -185.001c-24.667 -45.333 -53.334 -80.666 -86.001 -105.999c65.333 -40.667 114.5 -91.834 147.5 -153.501s49.5 -128.834 49.5 -201.501c0 -136.667 -49.167 -250.667 -147.5 -342
s-227.5 -137 -387.5 -137s-289 45.833 -387 137.5s-147 205.5 -147 341.5zM463.002 481.003c0 -52 18.333 -97.001 55 -135.001s81.667 -57 135 -57s98.5 18.333 135.5 55s55.5 82.334 55.5 137.001c0 53.333 -18.167 98.833 -54.5 136.5s-81.833 56.5 -136.5 56.5
c-53.333 0 -98.333 -18.5 -135 -55.5s-55 -82.833 -55 -137.5zM512.002 1065c0 -38 13.668 -71.333 41.001 -100s60.666 -43 99.999 -43c36.667 0 69.5 14.333 98.5 43s43.5 62 43.5 100c0 39.333 -14 73 -42 101s-61.333 42 -100 42c-38 0 -71 -14 -99 -42
s-42 -61.667 -42 -101z" />
    <glyph glyph-name="nine" unicode="9" horiz-adv-x="1304" 
d="M123 995c0 144.667 49.501 265.833 148.501 363.5s226.167 146.5 381.5 146.5c161.333 0 290.166 -46 386.499 -138s144.5 -213 144.5 -363c0 -122.667 -30 -248.334 -90 -377.001c-45.333 -97.333 -111.666 -200.666 -198.999 -309.999
c-121.333 -152.667 -204.5 -249.167 -249.5 -289.5s-88.167 -60.5 -129.5 -60.5c-49.333 0 -89.666 20 -120.999 60c-26 32.667 -39 66.667 -39 102c0 34 19.333 74.333 58 121l252 297l-4 4c-16.667 -5.33301 -33.834 -9.33301 -51.501 -12s-43.834 -4 -78.501 -4
c-116 0 -213.167 46.667 -291.5 140s-117.5 200 -117.5 320zM467.001 994.999c0 -52 17.668 -96.333 53.001 -133s79.666 -55 132.999 -55c50.667 0 94.5 18.5 131.5 55.5s55.5 81.167 55.5 132.5c0 50.667 -18.167 94.834 -54.5 132.501s-80.5 56.5 -132.5 56.5
s-96 -18.833 -132 -56.5s-54 -81.834 -54 -132.501z" />
    <glyph glyph-name="colon" unicode=":" horiz-adv-x="528" 
d="M86 147c0 48 17.333 90.166 52 126.499s76.667 54.5 126 54.5c48 0 89.667 -17.833 125 -53.5s53 -78.167 53 -127.5s-17.667 -91.666 -53 -126.999s-77 -53 -125 -53c-49.333 0 -91.333 17.5 -126 52.5s-52 77.5 -52 127.5zM86 792.999c0 48 17.333 90.001 52 126.001
s76.667 54 126 54c48 0 89.667 -17.833 125 -53.5s53 -77.834 53 -126.501c0 -49.333 -17.667 -91.833 -53 -127.5s-77 -53.5 -125 -53.5c-49.333 0 -91.333 17.5 -126 52.5s-52 77.833 -52 128.5z" />
    <glyph glyph-name="semicolon" unicode=";" horiz-adv-x="579" 
d="M41 -172c0 19.333 2.66699 36.499 8 51.499s13 31.167 23 48.5l168 303c15.333 30 33 52.667 53 68c26 19.333 56.667 29 92 29c45.333 0 82.666 -13.333 111.999 -40s44 -60.667 44 -102c0 -13.333 -2.16699 -26.833 -6.5 -40.5s-12.5 -33.5 -24.5 -59.5l-168 -303
c-16.667 -30 -36.5 -53.5 -59.5 -70.5s-51.5 -25.5 -85.5 -25.5c-45.333 0 -82.666 13.333 -111.999 40s-44 60.334 -44 101.001zM184 792.999c0 48 17.333 90.001 52 126.001s76.667 54 126 54c48 0 89.833 -17.833 125.5 -53.5s53.5 -77.834 53.5 -126.501
c0 -49.333 -17.833 -91.833 -53.5 -127.5s-77.5 -53.5 -125.5 -53.5c-49.333 0 -91.333 17.5 -126 52.5s-52 77.833 -52 128.5z" />
    <glyph glyph-name="less" unicode="&#x3c;" horiz-adv-x="1296" 
d="M82 586c0 54.667 25.332 93.334 75.999 116.001l833 388c22 10.667 42.5 18 61.5 22s36.167 6 51.5 6c32.667 0 59.667 -10.833 81 -32.5s32 -51.834 32 -90.501c0 -30 -5 -53 -15 -69c-13.333 -23.333 -40.666 -44 -81.999 -62l-659 -278l659 -281
c39.333 -16.667 65.333 -35.167 78 -55.5s19 -44.833 19 -73.5c0 -39.333 -10.333 -70 -31 -92s-48 -33 -82 -33c-19.333 0 -36.5 1.66699 -51.5 5s-35.5 11.333 -61.5 24l-833 387c-50.667 23.333 -76 63 -76 119z" />
    <glyph glyph-name="equal" unicode="=" horiz-adv-x="1310" 
d="M76 342c0 42 12.667 75 38 99s60.333 36 105 36h873c44 0 78.833 -11.5 104.5 -34.5s38.5 -56.5 38.5 -100.5s-12.667 -77.833 -38 -101.5s-60.333 -35.5 -105 -35.5h-873c-95.333 0 -143 45.667 -143 137zM76 829c0 42 13 75.5 39 100.5s60.667 37.5 104 37.5h873
c45.333 0 80.5 -12 105.5 -36s37.5 -58 37.5 -102c0 -42 -13 -75.333 -39 -100s-60.667 -37 -104 -37h-873c-45.333 0 -80.5 12 -105.5 36s-37.5 57.667 -37.5 101z" />
    <glyph glyph-name="greater" unicode="&#x3e;" horiz-adv-x="1124" 
d="M-6 176c0 30 4.66797 52.6699 14.001 68.0029c15.333 23.333 42.666 43.666 81.999 60.999l660 281l-660 278c-38 16.667 -63.5 35.5 -76.5 56.5s-19.5 45.833 -19.5 74.5c0 38 10.167 68 30.5 90s47.5 33 81.5 33c19.333 0 36.5 -1.66699 51.5 -5s35.5 -11 61.5 -23
l834 -388c20.667 -9.33301 38.334 -24.833 53.001 -46.5s22 -44.834 22 -69.501c0 -27.333 -6.83301 -51.333 -20.5 -72s-31.834 -36.334 -54.501 -47.001l-834 -387c-22 -10.667 -42.5 -18.167 -61.5 -22.5s-36.167 -6.5 -51.5 -6.5c-32.667 0 -59.5 11.333 -80.5 34
s-31.5 53 -31.5 91z" />
    <glyph glyph-name="question" unicode="?" horiz-adv-x="1019" 
d="M23 1141c0 109.333 52.334 199.334 157.001 270.001c92.667 62.667 195.667 94 309 94c140.667 0 259 -40.333 355 -121c101.333 -86 151.666 -198.333 150.999 -337c0 -124 -33.333 -223 -100 -297c-60 -65.333 -144.667 -109.333 -254 -132v-40
c0 -48 -14.333 -87 -43 -117s-67.667 -45 -117 -45c-46.667 0 -84.834 15 -114.501 45s-44.5 69 -44.5 117v165c0 49.333 16.333 83.666 49 102.999c20.667 12 57.5 22.833 110.5 32.5s92.5 26.834 118.5 51.501s39 60 39 106c0 35.333 -13.667 66.666 -41 93.999
s-63.666 41 -108.999 41c-62.667 0 -118.167 -31 -166.5 -93s-99.166 -93 -152.499 -93c-40.667 0 -75.334 15 -104.001 45s-43 67 -43 111zM303.001 147.001c0 48 17.333 90.166 52 126.499s76.667 54.5 126 54.5c48 0 89.667 -17.833 125 -53.5s53 -78.167 53 -127.5
s-17.667 -91.666 -53 -126.999s-77 -53 -125 -53c-49.333 0 -91.333 17.5 -126 52.5s-52 77.5 -52 127.5z" />
    <glyph glyph-name="at" unicode="@" horiz-adv-x="1605" 
d="M55 735c0 218.667 75.8301 401.665 227.497 548.998s336.834 221 555.501 221c199.333 0 366.333 -56.667 501 -170c140.667 -118.667 211 -273 211 -463c0 -200.667 -70.333 -356 -211 -466c-102.667 -80.667 -203 -121 -301 -121c-80.667 0 -120.667 34.667 -120 104
c-31.333 -32.667 -66.833 -58.167 -106.5 -76.5s-90.5 -27.5 -152.5 -27.5c-68 0 -128.667 31.333 -182 94c-57.333 68 -86 154 -86 258c0 142 39 260.167 117 354.5s172.333 141.5 283 141.5c58.667 0 107.334 -10 146.001 -30s73 -52.333 103 -97l9 36
c6.66699 27.333 18.834 46.5 36.501 57.5s37.5 16.5 59.5 16.5c26 0 47.5 -7.83301 64.5 -23.5s25.5 -37.167 25.5 -64.5l-8 -57l-64 -357l-12 -73c0 -27.333 13 -41 39 -41c44 0 82.333 24.333 115 73c40.667 60 61 140.667 61 242c0 162.667 -48.5 287.334 -145.5 374.001
s-226.833 130 -389.5 130c-154 0 -285 -56.667 -393 -170s-162 -251.333 -162 -414c0 -177.333 54 -318.5 162 -423.5s245.333 -157.5 412 -157.5c80.667 0 153.667 9.83301 219 29.5s117.333 45.167 156 76.5c8 6.66699 17.833 12.167 29.5 16.5s21.5 6.5 29.5 6.5
c19.333 0 37.166 -7.5 53.499 -22.5s24.5 -32.833 24.5 -53.5c0 -12 -2 -22.167 -6 -30.5s-9.66699 -15.833 -17 -22.5c-42 -44 -100 -83 -174 -117c-100 -46.667 -205 -70 -315 -70c-221.333 0 -409.166 72.333 -563.499 217s-231.5 328.334 -231.5 551.001z
M624.997 687.998c0 -52 10.834 -92.667 32.501 -122s56.5 -44 104.5 -44c68 0 121.5 20.167 160.5 60.5s58.5 91.833 58.5 154.5c0 48 -13.333 86.667 -40 116s-65.334 44 -116.001 44c-56 0 -103.333 -20.833 -142 -62.5s-58 -90.5 -58 -146.5z" />
    <glyph glyph-name="A" unicode="A" horiz-adv-x="1306" 
d="M6 125c0 26 3.16895 52.999 9.50195 80.999s19.5 70 39.5 126l320 870c38 105.333 70.667 176.333 98 213c45.333 60 104.666 90 177.999 90c60 0 109.833 -17.667 149.5 -53s83.5 -118.666 131.5 -249.999l319 -870c22 -58.667 35.667 -101 41 -127s8 -52.667 8 -80
c0 -42 -14.333 -75.333 -43 -100s-67.334 -37 -116.001 -37c-50.667 0 -89.667 15 -117 45c-22 23.333 -41 63 -57 119l-41 131h-545l-41 -131c-18 -54.667 -37 -93.667 -57 -117c-27.333 -31.333 -66.333 -47 -117 -47c-48 0 -86.667 12.5 -116 37.5s-44 58.167 -44 99.5z
M479.002 593.999h348l-165 539z" />
    <glyph glyph-name="B" unicode="B" horiz-adv-x="1200" 
d="M57 168v1137c0 53.333 16.167 94.666 48.5 123.999s71.5 44 117.5 44h391c125.333 0 225 -35.5 299 -106.5s111 -164.167 111 -279.5c0 -66.667 -19.667 -126.667 -59 -180c-30 -39.333 -68.333 -72.666 -115 -99.999c88.667 -18 159.667 -59.667 213 -125
s80 -144.666 80 -237.999c0 -126.667 -39.667 -229.667 -119 -309c-90 -90 -219.667 -135 -389 -135h-412c-45.333 0 -84.333 15 -117 45s-49 71 -49 123zM389 296.999h209.001c61.333 0 108.333 11 141 33c39.333 26 59.333 65.667 60 119
c0 50.667 -19.833 88.5 -59.5 113.5s-86.834 37.5 -141.501 37.5h-209v-303zM389.001 896.999h152c100.667 0 151 45.667 151 137c0 94 -50.333 141.333 -151 142h-152v-279z" />
    <glyph glyph-name="C" unicode="C" horiz-adv-x="1191" 
d="M8 737c0 225.333 66.167 409.667 198.5 553s307.166 215 524.499 215c120 0 218.333 -16.333 295 -49c96.667 -40.667 145 -102 145 -184c0 -42 -13.167 -79.167 -39.5 -111.5s-60.833 -48.5 -103.5 -48.5c-13.333 0 -66.666 15.667 -159.999 47
c-49.333 16.667 -92.333 25 -129 25c-125.333 0 -220.666 -45.667 -285.999 -137c-58.667 -82 -88 -185.333 -88 -310c0 -124 30.333 -227.667 91 -311s145.667 -125 255 -125c68 0 126.167 7.5 174.5 22.5l150.5 47.5c57.333 0 98.333 -20.667 123 -62
c16.667 -27.333 25 -58.666 25 -93.999c0 -83.333 -53.333 -147.333 -160 -192c-87.333 -36.667 -187 -55.334 -299 -56.001c-222.667 0 -399.334 75.333 -530.001 226c-124 142 -186.333 323.333 -187 544z" />
    <glyph glyph-name="D" unicode="D" horiz-adv-x="1345" 
d="M51 168l0.00195312 1137c0 53.333 16 94.666 48 123.999s71.333 44 118 44h397c207.333 0 374.666 -74 501.999 -222c118.667 -138 178 -305.667 178 -503c0 -232 -68 -417 -204 -555c-126.667 -128.667 -285.334 -193 -476.001 -193h-397c-45.333 0 -84.333 15 -117 45
s-49 71 -49 123zM383.002 311.001l176 0.000976562c125.333 0 221 40.333 287 121c61.333 75.333 92 180.666 92 315.999c0 128.667 -30 229 -90 301c-63.333 76 -154 114 -272 114h-3h-190v-852z" />
    <glyph glyph-name="E" unicode="E" horiz-adv-x="931" 
d="M41 168v1137c0 53.333 16 94.666 48 123.999s71.333 44 118 44h508c53.333 0 94.333 -13.667 123 -41s43 -65.666 43 -114.999c0 -48 -14.333 -85.667 -43 -113s-69.667 -41 -123 -41h-342v-268h313c52 0 92.667 -13.667 122 -41s44 -65 44 -113
c0 -103.333 -54.667 -155 -164 -155h-2h-313v-275h354c53.333 0 94.333 -13.667 123 -41s43 -65.333 43 -114c0 -48 -14.667 -86 -44 -114s-70 -42 -122 -42h-520c-45.333 0 -84.333 15 -117 45s-49 71 -49 123z" />
    <glyph glyph-name="F" unicode="F" horiz-adv-x="940" 
d="M80 166v1139c0 53.333 16 94.666 48 123.999s71.333 44 118 44h508c53.333 0 94.333 -13.667 123 -41s43 -65.666 43 -114.999c0 -48 -14.333 -85.667 -43 -113s-69.667 -41 -123 -41h-342v-264h299c52 0 92.667 -13.667 122 -41s44 -65 44 -113
c0 -103.333 -54.667 -155 -164 -155h-2h-299v-424c0 -57.333 -15.5 -101.333 -46.5 -132s-70.833 -46 -119.5 -46c-50.667 0 -91 15 -121 45s-45 74.333 -45 133z" />
    <glyph glyph-name="G" unicode="G" horiz-adv-x="1468" 
d="M43 737c0 222.667 67.667 406.335 203 551.002s306.666 217 513.999 217c148.667 0 277 -27.333 385 -82c120 -61.333 180 -141 180 -239c0 -44 -13.333 -78.667 -40 -104s-63 -38 -109 -38c-31.333 0 -85.666 25.667 -162.999 77s-157 77 -239 77
c-113.333 0 -204.166 -43.333 -272.499 -130s-102.5 -196.334 -102.5 -329.001c0 -126.667 28.667 -231.667 86 -315c66.667 -96.667 161 -145.334 283 -146.001c87.333 0 159 26 215 78s88 121.667 96 209h-190c-53.333 0 -94.333 13.667 -123 41s-43 65 -43 113
c0 103.333 54.667 155 164 155h2h358c117.333 0 176 -68 176 -204c0 -202 -59.333 -368 -178 -498c-122.667 -135.333 -284.334 -203 -485.001 -203c-222.667 0 -399.667 75.333 -531 226c-124 142 -186 323.333 -186 544z" />
    <glyph glyph-name="H" unicode="H" horiz-adv-x="1433" 
d="M76 166v1141c0 57.333 15.333 101.333 46 132s70.667 46 120 46c50.667 0 91 -15 121 -45s45 -74.333 45 -133v-398h618v398c0 57.333 15.333 101.333 46 132s70.667 46 120 46c50.667 0 91 -15 121 -45s45 -74.333 45 -133v-1141c0 -57.333 -15.333 -101.333 -46 -132
s-70.667 -46 -120 -46c-50.667 0 -91 15 -121 45s-45 74.333 -45 133v434h-618v-434c0 -57.333 -15.5 -101.333 -46.5 -132s-70.833 -46 -119.5 -46c-50.667 0 -91 15 -121 45s-45 74.333 -45 133z" />
    <glyph glyph-name="I" unicode="I" horiz-adv-x="483" 
d="M76 166v1141c0 57.333 15.333 101.333 46 132s70.667 46 120 46c50.667 0 91 -15 121 -45s45 -74.333 45 -133v-1141c0 -57.333 -15.5 -101.333 -46.5 -132s-70.833 -46 -119.5 -46c-50.667 0 -91 15 -121 45s-45 74.333 -45 133z" />
    <glyph glyph-name="J" unicode="J" horiz-adv-x="948" 
d="M55 209c0 45.333 12.666 83.3359 37.999 114.003s63.333 46 114 46c23.333 0 65 -18 125 -54c28.667 -17.333 55 -26 79 -26h3c44 0 74.667 16.333 92 49s26 90.667 26 174v795c0 57.333 15.5 101.333 46.5 132s70.833 46 119.5 46c50.667 0 91 -15 121 -45
s45 -74.333 45 -133v-852c0 -144.667 -25.333 -254.667 -76 -330c-69.333 -105.333 -190.666 -158 -363.999 -158c-48 0 -96.167 6.16699 -144.5 18.5s-90.333 30.166 -126 53.499s-61 47.166 -76 71.499s-22.5 57.166 -22.5 98.499z" />
    <glyph glyph-name="K" unicode="K" horiz-adv-x="1339" 
d="M96 166v1141c0 57.333 15.333 101.333 46 132s70.667 46 120 46c50.667 0 91 -15 121 -45s45 -74.333 45 -133v-410l457 504c30 34 56.167 56.5 78.5 67.5s47.833 16.5 76.5 16.5c38 0 75.167 -16 111.5 -48s54.5 -70 54.5 -114c0 -24.667 -5.33301 -47.167 -16 -67.5
s-27 -42.166 -49 -65.499l-396 -402l433 -473c32.667 -36.667 54.334 -63 65.001 -79c18 -27.333 27 -54.666 27 -81.999c0 -52 -16.833 -92.667 -50.5 -122s-74.834 -44 -123.501 -44c-38 0 -76.333 15.667 -115 47c-20.667 16.667 -50.667 48 -90 94l-463 524v-487
c0 -57.333 -15.333 -101.333 -46 -132s-70.667 -46 -120 -46c-50.667 0 -91 15 -121 45s-45 74.333 -45 133z" />
    <glyph glyph-name="L" unicode="L" horiz-adv-x="935" 
d="M63 168v1139c0 57.333 15.5 101.333 46.5 132s70.833 46 119.5 46c50.667 0 91 -15 121 -45s45 -74.333 45 -133v-996h357c53.333 0 94.333 -13.667 123 -41s43 -65.333 43 -114c0 -48 -14.833 -86 -44.5 -114s-70.167 -42 -121.5 -42h-523c-45.333 0 -84.333 15 -117 45
s-49 71 -49 123z" />
    <glyph glyph-name="M" unicode="M" horiz-adv-x="1796" 
d="M41 147c0 27.333 2.66797 60.3281 8.00098 98.9951c0 2.66699 15.667 93.334 47 272.001l131 756c13.333 80.667 42.666 138 87.999 172c34 26 77.667 39 131 39c78 0 136.333 -26.667 175 -80c28.667 -39.333 66 -133.666 112 -282.999l162 -506l166 506
c38 118.667 66 196 84 232c44 87.333 111.667 131 203 131c52 0 95 -13 129 -39c46.667 -35.333 76.667 -92.666 90 -171.999l131 -756c22 -125.333 36.667 -213.666 44 -264.999s11 -86.666 11 -105.999c0 -40.667 -14.333 -77.334 -43 -110.001s-66.334 -49 -113.001 -49
c-66.667 0 -115 22.333 -145 67c-19.333 30 -35 81.333 -47 154l-98 653l-228 -723c-16.667 -54.667 -38.5 -93.5 -65.5 -116.5s-65.833 -34.5 -116.5 -34.5c-49.333 0 -87.666 11.5 -114.999 34.5s-49.666 61.833 -66.999 116.5l-223 723l-103 -653
c-13.333 -91.333 -35.5 -151 -66.5 -179s-72.833 -42 -125.5 -42c-46.667 0 -84.334 16.333 -113.001 49s-43 69.334 -43 110.001z" />
    <glyph glyph-name="N" unicode="N" horiz-adv-x="1433" 
d="M76 166v1141c0 57.333 15.333 101.333 46 132s70.667 46 120 46s93 -20 131 -60c13.333 -13.333 46 -53.333 98 -120l551 -697l4 699c0 57.333 15.333 101.333 46 132s70.667 46 120 46c50.667 0 91 -15 121 -45s45 -74.333 45 -133v-1141
c0 -57.333 -15.333 -101.333 -46 -132s-70.667 -46 -120 -46c-48 0 -91.667 20.333 -131 61c-15.333 16.667 -48 56.334 -98 119.001l-551 696l-4 -698c0 -57.333 -15.5 -101.333 -46.5 -132s-70.833 -46 -119.5 -46c-50.667 0 -91 15 -121 45s-45 74.333 -45 133z" />
    <glyph glyph-name="O" unicode="O" horiz-adv-x="1513" 
d="M41 737c0 232 65.168 417.999 195.501 557.999s304.166 210 521.499 210c216 0 389.5 -69.667 520.5 -209s196.5 -325.666 196.5 -558.999s-65.333 -420 -196 -560s-304.334 -210 -521.001 -210c-217.333 0 -391.166 70 -521.499 210s-195.5 326.667 -195.5 560z
M397.001 736.999c0 -130 28 -236.332 84 -318.999c64 -94 156.333 -141.333 277 -142c120 0 212 47.333 276 142c56 83.333 84 189.666 84 318.999c0 128.667 -28 234.667 -84 318c-64 94 -156 141 -276 141s-212.333 -47 -277 -141c-56 -82 -84 -188 -84 -318z" />
    <glyph glyph-name="P" unicode="P" horiz-adv-x="1153" 
d="M39 166l-0.000976562 1139c0 53.333 16 94.666 48 123.999s71.333 44 118 44h407c138 0 253.333 -41.667 346 -125c102.667 -91.333 154 -216.333 154 -375c0 -148.667 -42.667 -269.167 -128 -361.5s-205.666 -138.5 -360.999 -138.5h-252v-307
c0 -57.333 -15.333 -101.333 -46 -132s-70.667 -46 -120 -46c-50.667 0 -91 15 -121 45s-45 74.333 -45 133zM370.999 772.001l178 -0.000976562c66.667 0 119.834 19.833 159.501 59.5s59.5 86.834 59.5 141.501c0 64 -19.833 113.833 -59.5 149.5
s-92.834 53.5 -159.501 53.5h-178v-404z" />
    <glyph glyph-name="Q" unicode="Q" horiz-adv-x="1513" 
d="M12 737c0 232 65.167 418 195.5 558s304.166 210 521.499 210c216 0 389.5 -69.667 520.5 -209s196.5 -325.666 196.5 -558.999c0 -190 -43.667 -349 -131 -477l80 -70c40.667 -35.333 68.5 -64.833 83.5 -88.5s22.5 -48.5 22.5 -74.5
c0 -40.667 -13 -74.834 -39 -102.501s-58.667 -41.5 -98 -41.5c-28.667 0 -54.667 6.16699 -78 18.5s-57.333 38.5 -102 78.5l-88 77c-104 -60 -226.333 -90 -367 -90c-217.333 0 -391.166 70 -521.499 210s-195.5 326.667 -195.5 560zM369 737
c0 -130 28 -236.334 84 -319.001c64 -94 156 -141.333 276 -142c39.333 0 72.666 5 99.999 15c-45.333 38 -75 68.667 -89 92s-21 48 -21 74c0 40.667 13 74.667 39 102s58.667 41 98 41c26 0 50.333 -6.16699 73 -18.5s58.334 -38.166 107.001 -77.499l11 -8
c28.667 74 43 154.333 43 241c0 128.667 -28 234.667 -84 318c-64 94 -156.333 141 -277 141c-120 0 -212 -47 -276 -141c-56 -82 -84 -188 -84 -318z" />
    <glyph glyph-name="R" unicode="R" horiz-adv-x="1169" 
d="M49 166v1139c0 53.333 16 94.666 48 123.999s71.333 44 118 44h399c147.333 0 265.5 -41.667 354.5 -125s133.5 -194 133.5 -332c0 -109.333 -30 -200.5 -90 -273.5s-143.333 -119.833 -250 -140.5l289 -315c23.333 -24.667 40.666 -48.334 51.999 -71.001s17 -47 17 -73
c0 -34 -12.333 -66 -37 -96c-32.667 -39.333 -77 -59 -133 -59c-40.667 0 -70.667 5.83301 -90 17.5s-41.666 33.167 -66.999 64.5l-408 520l-4 -424c0 -57.333 -15.333 -101.333 -46 -132s-70.667 -46 -120 -46c-50.667 0 -91 15 -121 45s-45 74.333 -45 133zM381 838.002
h219c53.333 0 95 15.667 125 47s45 71 45 119s-16 86.5 -48 115.5s-72.667 43.5 -122 43.5h-219v-325z" />
    <glyph glyph-name="S" unicode="S" horiz-adv-x="1077" 
d="M16 209c0 49.333 13.667 91.332 41 125.999s65.666 52 114.999 52c19.333 0 67.833 -14.333 145.5 -43s148.5 -43 212.5 -43c58.667 0 102.834 13.667 132.501 41s44.5 60 44.5 98c0 57.333 -44 102.333 -132 135c-16.667 6.66699 -78 27.334 -184 62.001
c-142 45.333 -235.833 99 -281.5 161s-68.5 140.667 -68.5 236c0 152.667 52.667 271.667 158 357c94.667 76 215.334 114 362.001 114h4c131.333 0 233.166 -20.167 305.499 -60.5s108.5 -93.833 108.5 -160.5c0 -45.333 -13.667 -83 -41 -113s-63 -45 -107 -45
c-26 0 -79 12.333 -159 37c-45.333 13.333 -86.333 20.333 -123 21c-45.333 0 -82 -11.333 -110 -34s-42 -51.667 -42 -87c0 -42 37.667 -76.333 113 -103l199 -69c109.333 -35.333 190.333 -79.666 243 -132.999c74 -72.667 111 -172.334 111 -299.001
c0 -162.667 -54 -287 -162 -373c-100 -79.333 -231.667 -119 -395 -119c-117.333 0 -223.333 19.333 -318 58c-114.667 46.667 -172 108 -172 184z" />
    <glyph glyph-name="T" unicode="T" horiz-adv-x="899" 
d="M-74 1317c0 104 57.334 156 172.001 156h705c114.667 0 172 -52 172 -156c0 -46.667 -15 -84 -45 -112s-72.333 -42 -127 -42h-187v-997c0 -57.333 -15.333 -101.333 -46 -132s-70.334 -46 -119.001 -46c-50.667 0 -91 15 -121 45s-45 74.333 -45 133v997h-187
c-54.667 0 -97 13.667 -127 41s-45 65 -45 113z" />
    <glyph glyph-name="U" unicode="U" horiz-adv-x="1388" 
d="M61 592l0.00195312 715c0 57.333 15.5 101.333 46.5 132s70.833 46 119.5 46c50.667 0 91 -15 121 -45s45 -74.333 45 -133v-715c0 -94 29.333 -169 88 -225c54.667 -52 125 -78 211 -78c84.667 0 156 27 214 81s87 128 87 222v715c0 57.333 15.333 101.333 46 132
s70.667 46 120 46c50.667 0 91 -15 121 -45s45 -74.333 45 -133v-715c0 -191.333 -58.333 -343.333 -175 -456s-269.334 -169 -458.001 -169c-187.333 0 -338 55.333 -452 166c-118.667 114.667 -178.334 267.667 -179.001 459z" />
    <glyph glyph-name="V" unicode="V" horiz-adv-x="1335" 
d="M39 1321c0 44 15 82.334 45 115.001s69 49 117 49c56 0 98.333 -15 127 -45c19.333 -20.667 38.333 -56.334 57 -107.001l283 -751l282 751c18 50.667 36.667 85.667 56 105c30 31.333 73 47 129 47c46.667 0 85.167 -16 115.5 -48s45.5 -70.667 45.5 -116
c0 -15.333 -3.33301 -33.5 -10 -54.5s-14.667 -43.167 -24 -66.5l-414 -1034c-24.667 -62.667 -43.667 -103 -57 -121c-30 -38 -72.333 -57 -127 -57c-53.333 0 -95 19 -125 57c-16.667 20.667 -36.667 61 -60 121l-405 1034c-5.33301 13.333 -12.5 33.833 -21.5 61.5
s-13.5 47.5 -13.5 59.5z" />
    <glyph glyph-name="W" unicode="W" horiz-adv-x="1935" 
d="M47 1321c0 45.333 15.3379 83.999 46.0049 115.999s70.667 48 120 48c50.667 0 89.667 -13.333 117 -40s45.666 -63.334 54.999 -110.001l170 -792l244 770c20.667 62.667 45.167 107 73.5 133s65.833 39 112.5 39c45.333 0 82.666 -12.667 111.999 -38s54 -70 74 -134
l240 -770l174 792c10.667 48 27.667 83.667 51 107c28.667 28.667 69 43 121 43c50.667 0 91 -15.667 121 -47s45 -70.333 45 -117c0 -23.333 -4.83301 -54.166 -14.5 -92.499s-15.834 -64.166 -18.501 -77.499l-221 -913c-18 -72.667 -33.667 -122.667 -47 -150
c-34 -66.667 -96 -100 -186 -100c-117.333 0 -196 61.333 -236 184l-213 674l-217 -674c-20.667 -61.333 -49.334 -107.333 -86.001 -138s-86.334 -46 -149.001 -46c-74 0 -128 21 -162 63c-26 32.667 -50 95 -72 187l-221 913l-21.5 86
c-7.66699 31.333 -11.5 59.333 -11.5 84z" />
    <glyph glyph-name="X" unicode="X" horiz-adv-x="1265" 
d="M6 152c0 35.333 8.33105 66.667 24.998 94c5.33301 9.33301 21 31.666 47 66.999l354 480l-291 389c-12 16.667 -23.667 34.334 -35 53.001c-17.333 30 -26 60.333 -26 91c0 42.667 15 79.834 45 111.501s73 47.5 129 47.5c39.333 0 74.666 -15 105.999 -45
c16.667 -15.333 45.334 -51.666 86.001 -108.999l187 -260l186 260c30 40.667 51.333 68.667 64 84c39.333 46.667 82.333 70 129 70c54.667 0 98.334 -16.333 131.001 -49c28.667 -28.667 43 -64.334 43 -107.001c0 -22 -3.5 -42.833 -10.5 -62.5
s-24.167 -47.834 -51.5 -84.501l-290 -389l354 -480c28.667 -38 47.834 -67.167 57.501 -87.5s14.5 -44.833 14.5 -73.5c0 -49.333 -15.167 -89 -45.5 -119s-69.166 -45 -116.499 -45c-32.667 0 -60.667 6.5 -84 19.5s-49.333 39.167 -78 78.5l-303 418l-303 -418
c-27.333 -36.667 -53.333 -62.167 -78 -76.5s-52.667 -21.5 -84 -21.5c-46.667 0 -85.334 15.333 -116.001 46s-46 70 -46 118z" />
    <glyph glyph-name="Y" unicode="Y" horiz-adv-x="1153" 
d="M36 1443c33.333 28 75.335 41.998 126.002 41.998c39.333 0 74 -12.333 104 -37c19.333 -15.333 40.666 -40.666 63.999 -75.999l245 -354l246 354c26 36.667 46.667 61.334 62 74.001c31.333 26 66.666 39 105.999 39c50.667 0 92.667 -13.667 126 -41
s50 -63.666 50 -108.999c0 -32.667 -7.83301 -63.334 -23.5 -92.001s-53.5 -83.334 -113.5 -164.001l-287 -389v-524c0 -57.333 -15.333 -101.333 -46 -132s-70.667 -46 -120 -46c-50.667 0 -90.834 15 -120.501 45s-44.5 74.333 -44.5 133v524l-287 389
c-57.333 78 -93.666 130.667 -108.999 158c-18.667 32.667 -28 64.334 -28 95.001c0 46 16.667 83 50 111z" />
    <glyph glyph-name="Z" unicode="Z" horiz-adv-x="1124" 
d="M-10 184c0 34 7.33301 64.667 22 92c4 6.66699 17 25.334 39 56.001l627 844h-490c-56 0 -99.333 13.167 -130 39.5s-46 62.166 -46 107.499s15 81.666 45 108.999s73.667 41 131 41h713c78 0 134 -20.667 168 -62c23.333 -27.333 35 -62.666 35 -105.999
c0 -48 -52 -141.667 -156 -281l-530 -713h540c56 0 99.5 -14 130.5 -42s46.5 -65.667 46.5 -113c0 -48 -15.5 -86 -46.5 -114s-74.5 -42 -130.5 -42h-735c-84.667 0 -144.667 15.667 -180 47s-53 77 -53 137z" />
    <glyph glyph-name="bracketleft" unicode="[" horiz-adv-x="567" 
d="M14 -205l0.00195312 1569c0 94 47.333 141 142 141h280c35.333 0 63.666 -10.5 84.999 -31.5s32 -49.167 32 -84.5s-11 -64 -33 -86s-50 -33 -84 -33h-139v-1383h139c35.333 0 63.666 -10.5 84.999 -31.5s32 -49.167 32 -84.5s-11 -64 -33 -86s-50 -33 -84 -33h-280
c-94 0 -141.333 47.667 -142 143z" />
    <glyph glyph-name="backslash" unicode="\" horiz-adv-x="942" 
d="M20 1395c0 74 38.333 110.666 115 109.999c38 0 74.333 -26 109 -78c6.66699 -9.33301 23.667 -40 51 -92l551 -1061l53 -110c16.667 -38 25 -66.667 25 -86c0 -74 -38.333 -111 -115 -111c-31.333 0 -61.333 17.667 -90 53c-18 23.333 -41.333 62.333 -70 117l-551 1061
c-22 40.667 -40.5 78.834 -55.5 114.501s-22.5 63.167 -22.5 82.5z" />
    <glyph glyph-name="bracketright" unicode="]" horiz-adv-x="718" 
d="M90 -229c0 34 11 61.833 33 83.5s50 32.5 84 32.5h139v1383h-139c-34 0 -62 10.833 -84 32.5s-33 50.5 -33 86.5c0 34 11 61.833 33 83.5s50 32.5 84 32.5h280c94 0 141.333 -47 142 -141v-1569c0 -95.333 -47.333 -143 -142 -143h-280c-34 0 -62 10.833 -84 32.5
s-33 50.5 -33 86.5z" />
    <glyph glyph-name="asciicircum" unicode="^" horiz-adv-x="1142" 
d="M94 727c0 26 8.99902 56 26.999 90l315 580c18 32.667 37.833 55.5 59.5 68.5s46.834 19.5 75.501 19.5s54 -6.16699 76 -18.5s42 -35.5 60 -69.5l315 -580c18 -34 27 -64 27 -90c0 -27.333 -11 -47.666 -33 -60.999c-16.667 -9.33301 -40.667 -14.333 -72 -15
c-35.333 0 -63.333 5.5 -84 16.5s-39.667 33.5 -57 67.5l-232 428l-231 -428c-18 -32.667 -37.5 -54.834 -58.5 -66.501s-48.5 -17.5 -82.5 -17.5c-38 0 -65 7.5 -81 22.5s-24 32.833 -24 53.5z" />
    <glyph glyph-name="underscore" unicode="_" horiz-adv-x="1427" 
d="M31 106c0 42 11.832 75.167 35.499 99.5s56.834 36.5 99.501 36.5h1098c40.667 0 73.334 -12.333 98.001 -37s37 -57.667 37 -99c0 -91.333 -45 -137 -135 -137h-1098c-40.667 0 -73.334 12.333 -98.001 37s-37 58 -37 100z" />
    <glyph glyph-name="grave" unicode="`" horiz-adv-x="675" 
d="M39 1493c0 42 12 76.333 36 103s56.333 40 97 40c12 0 26.333 -2 43 -6s30.334 -8 41.001 -12l307 -135c50.667 -23.333 76 -61 76 -113c0 -42 -12 -76.333 -36 -103s-56.333 -40 -97 -40c-12 0 -26.333 2 -43 6s-30.334 8 -41.001 12l-307 135
c-50.667 22 -76 59.667 -76 113z" />
    <glyph glyph-name="a" unicode="a" horiz-adv-x="1165" 
d="M45 551c0 162.667 47.4971 300.334 142.497 413.001s212.167 169 351.5 169c62.667 0 114.834 -9 156.501 -27s80.834 -50 117.501 -96c13.333 28.667 31 51.667 53 69c27.333 22 59.666 33 96.999 33c46.667 0 84.834 -15.667 114.501 -47s44.5 -71 44.5 -119v-790
c0 -48 -14.667 -88 -44 -120s-67.666 -48 -114.999 -48c-34 0 -64.5 10.167 -91.5 30.5s-46.5 44.166 -58.5 71.499c-66.667 -82 -158 -123 -274 -123c-138 0 -254.833 56.667 -350.5 170s-143.5 251.333 -143.5 414zM364.997 551c0 -79.333 19.333 -145 58 -197
s92.334 -78 161.001 -78c68 0 121.5 26.333 160.5 79s58.5 118 58.5 196s-18.333 141.333 -55 190c-40.667 54.667 -95.334 82 -164.001 82c-68 0 -121.5 -25.833 -160.5 -77.5s-58.5 -116.5 -58.5 -194.5z" />
    <glyph glyph-name="b" unicode="b" horiz-adv-x="1114" 
d="M18 156l0.00195312 1269c0 48 14.667 88 44 120s68 48 116 48c46.667 0 85 -16.333 115 -49s45 -72.334 45 -119.001v-383c36.667 30 70 51.333 100 64c44 18 98.667 27 164 27c139.333 0 256.5 -56.333 351.5 -169s142.5 -250.334 142.5 -413.001
c0 -164 -47.5 -302.333 -142.5 -415s-212.167 -169 -351.5 -169c-62.667 0 -114.834 8.83301 -156.501 26.5s-80.834 49.834 -117.501 96.501c-13.333 -28.667 -32.5 -52.834 -57.5 -72.501s-55.833 -29.5 -92.5 -29.5c-46.667 0 -85 15.667 -115 47s-45 71.666 -45 120.999
zM338.002 551.003c0 -79.333 19.501 -145 58.501 -197s92.5 -78 160.5 -78s121.5 26.333 160.5 79s58.5 118 58.5 196s-18.333 141.333 -55 190c-40.667 54.667 -95.334 82 -164.001 82c-68 0 -121.5 -25.833 -160.5 -77.5s-58.5 -116.5 -58.5 -194.5z" />
    <glyph glyph-name="c" unicode="c" horiz-adv-x="999" 
d="M41 551c0 165.333 49.833 303.667 149.5 415s229.5 167 389.5 167c95.333 0 175.666 -13.667 240.999 -41c91.333 -38 137 -95.333 137 -172c0 -44 -12.5 -80 -37.5 -108s-56.167 -42 -93.5 -42c-23.333 0 -56 8.83301 -98 26.5s-85.667 26.5 -131 26.5
c-76.667 0 -135.5 -25.833 -176.5 -77.5s-61.5 -116.5 -61.5 -194.5c0 -79.333 19.5 -145 58.5 -197s92.833 -78 161.5 -78c46.667 0 89.334 6.16699 128.001 18.5l119 39.5c35.333 0 66 -15 92 -45s39 -63 39 -99c0 -72.667 -47 -130 -141 -172
c-76.667 -34 -155.667 -51 -237 -51c-160 0 -289.833 55.667 -389.5 167s-149.5 250.333 -149.5 417z" />
    <glyph glyph-name="d" unicode="d" horiz-adv-x="1165" 
d="M45 551c0 162.667 47.498 300.334 142.498 413.001s212.167 169 351.5 169c64 0 117.667 -9 161 -27c32.667 -13.333 67 -34.666 103 -63.999v383c0 48 14.667 88 44 120s68 48 116 48c46.667 0 84.834 -16.333 114.501 -49s44.5 -72.334 44.5 -119.001v-1269
c0 -48 -14.667 -88 -44 -120s-67.666 -48 -114.999 -48c-34 0 -64.5 10.167 -91.5 30.5s-46.5 44.166 -58.5 71.499c-66.667 -82 -158 -123 -274 -123c-138 0 -254.833 56.667 -350.5 170s-143.5 251.333 -143.5 414zM364.998 551c0 -79.333 19.333 -145 58 -197
s92.334 -78 161.001 -78c68 0 121.5 26.333 160.5 79s58.5 118 58.5 196s-18.333 141.333 -55 190c-40.667 54.667 -95.334 82 -164.001 82c-68 0 -121.5 -25.833 -160.5 -77.5s-58.5 -116.5 -58.5 -194.5z" />
    <glyph glyph-name="e" unicode="e" horiz-adv-x="1157" 
d="M41 551c0 160 52.501 297.001 157.501 411.001s238.833 171 401.5 171c151.333 0 277 -56 377 -168c94 -106.667 141 -233 141 -379c0 -53.333 -12.333 -90.333 -37 -111s-64 -31 -118 -31h-578c0 -44 17 -82 51 -114c45.333 -44 113.666 -66 204.999 -66
c58.667 0 123.5 17.167 194.5 51.5s115.5 51.166 133.5 50.499c38 0 69.667 -12.5 95 -37.5s38 -58.833 38 -101.5c0 -75.333 -51.5 -137.5 -154.5 -186.5s-218.833 -73.5 -347.5 -73.5c-166.667 0 -301.5 55.667 -404.5 167s-154.5 250.333 -154.5 417zM385.001 666.001
h413.999c0 44 -18.667 85.667 -56 125c-41.333 46 -91 69 -149 69h-2c-57.333 0 -106.166 -21.833 -146.499 -65.5s-60.5 -86.5 -60.5 -128.5z" />
    <glyph glyph-name="f" unicode="f" horiz-adv-x="843" 
d="M31 952c0 50.667 14.333 88.001 43 112.001s70.334 36 125.001 36h37v145c0 100 31 183 93 249s141.333 99 238 99c60 0 108 -9.33301 144 -28c46 -24 69 -63.667 69 -119c0 -101.333 -50.333 -152 -151 -152c-26 0 -44.833 -7.5 -56.5 -22.5s-17.5 -42.167 -17.5 -81.5
v-90h88c53.333 0 94.666 -12 123.999 -36s44 -61.333 44 -112s-15 -88.167 -45 -112.5s-71 -36.5 -123 -36.5h-88v-647c0 -48 -14.667 -88 -44 -120s-68 -48 -116 -48c-46.667 0 -84.834 15.667 -114.501 47s-44.5 71.666 -44.5 120.999v647h-37
c-53.333 0 -94.666 11.833 -123.999 35.5s-44 61.5 -44 113.5z" />
    <glyph glyph-name="g" unicode="g" horiz-adv-x="1206" 
d="M208 964c94.667 112.667 211.666 169.003 350.999 169.003c62.667 0 114.834 -9 156.501 -27s81.167 -50 118.5 -96c13.333 28.667 31 51.667 53 69c27.333 22 59.333 33 96 33c46.667 0 85 -15.667 115 -47s45 -71 45 -119v-837c0 -194 -57.333 -340.333 -172 -439
c-101.333 -86 -237.333 -129 -408 -129c-108 0 -208.333 17.667 -301 53c-117.333 45.333 -176 107.666 -176 186.999c0 35.333 14 67.666 42 96.999s58.333 44 91 44c27.333 0 60 -9.33301 98 -28c90 -45.333 170 -68 240 -68c95.333 0 163.5 24.167 204.5 72.5
s61.5 119.833 61.5 214.5c-34 -46.667 -79 -80.334 -135 -101.001c-43.333 -16 -94.333 -24 -153 -24h-7c-146 0 -261.333 57.333 -346 172c-77.333 104.667 -116 233.667 -116 387c0 165.333 47.333 304.333 142 417zM384.999 551.003
c0 -83.333 19.168 -150.668 57.501 -202.001s92.166 -77 161.499 -77c68 0 121.5 26.333 160.5 79s58.5 119.334 58.5 200.001c0 78 -18.333 141.333 -55 190c-41.333 54.667 -96 82 -164 82s-121.5 -25.833 -160.5 -77.5s-58.5 -116.5 -58.5 -194.5z" />
    <glyph glyph-name="h" unicode="h" horiz-adv-x="1157" 
d="M82 156l-0.000976562 1269c0 48 14.667 88 44 120s68 48 116 48c46.667 0 84.834 -16.333 114.501 -49s44.5 -72.334 44.5 -119.001v-372c54.667 32.667 102.5 54.167 143.5 64.5s84.833 15.5 131.5 15.5c117.333 0 210.666 -30.333 279.999 -91
c78 -66.667 117 -162.667 117 -288v-598c0 -48 -14.667 -88 -44 -120s-68 -48 -116 -48c-46.667 0 -84.834 15.667 -114.501 47s-44.5 71.666 -44.5 120.999v510c0 57.333 -15.333 104 -46 140s-74 54 -130 54c-53.333 0 -96.166 -18 -128.499 -54s-48.5 -82.667 -48.5 -140
v-510c0 -48 -14.667 -88 -44 -120s-67.666 -48 -114.999 -48c-46.667 0 -85 15.667 -115 47s-45 71.666 -45 120.999z" />
    <glyph glyph-name="i" unicode="i" horiz-adv-x="456" 
d="M39 1401c0 53.333 18.667 98.668 56 136.001s82 56 134 56c53.333 0 98.5 -18.333 135.5 -55s55.5 -82.334 55.5 -137.001s-18.5 -100.5 -55.5 -137.5s-82.167 -55.5 -135.5 -55.5s-98.333 18.5 -135 55.5s-55 82.833 -55 137.5zM70 156.002l0.00195312 790.001
c0 46.667 14.667 86 44 118s67.666 48 114.999 48c46.667 0 85 -15.667 115 -47s45 -71 45 -119v-790c0 -48 -14.667 -88 -44 -120s-68 -48 -116 -48c-46.667 0 -84.834 15.667 -114.501 47s-44.5 71.666 -44.5 120.999z" />
    <glyph glyph-name="j" unicode="j" horiz-adv-x="477" 
d="M-410 -164c0 45.333 12.666 83.333 37.999 114s63.333 46 114 46c23.333 0 65 -17.667 125 -53c30 -18 57.333 -27 82 -27c44 0 74.833 16.333 92.5 49s26.5 90.667 26.5 174v795c0 57.333 15.333 101.333 46 132s70.334 46 119.001 46c50.667 0 91 -15 121 -45
s45 -74.333 45 -133v-852c0 -144.667 -25 -254.667 -75 -330c-69.333 -105.333 -191 -158 -365 -158c-48 0 -96.167 6.16699 -144.5 18.5s-90.333 30.166 -126 53.499s-61 47.333 -76 72s-22.5 57.334 -22.5 98.001zM40.999 1401c0 53.333 18.667 98.668 56 136.001
s82 56 134 56c53.333 0 98.5 -18.333 135.5 -55s55.5 -82.334 55.5 -137.001s-18.5 -100.5 -55.5 -137.5s-82.167 -55.5 -135.5 -55.5s-98.333 18.5 -135 55.5s-55 82.833 -55 137.5z" />
    <glyph glyph-name="k" unicode="k" horiz-adv-x="1116" 
d="M106 156v1269c0 48 14.833 88 44.5 120s68.167 48 115.5 48c46.667 0 85 -16.333 115 -49s45 -72.334 45 -119.001v-686l260 262c39.333 39.333 66.666 64.666 81.999 75.999c31.333 23.333 64 35 98 35c46.667 0 84.334 -14.333 113.001 -43s43 -63.334 43 -104.001
c0 -32.667 -14.333 -65.667 -43 -99c-8 -9.33301 -31.333 -33 -70 -71l-172 -172l269 -344c22 -27.333 38.333 -50 49 -68c17.333 -27.333 26 -51.333 26 -72c0 -38 -12.333 -71.333 -37 -100c-30 -34 -70 -51 -120 -51c-38 0 -68 6.83301 -90 20.5s-50 42.834 -84 87.501
l-320 424l-4 -364c0 -48 -14.667 -88 -44 -120s-68 -48 -116 -48c-46.667 0 -85 15.667 -115 47s-45 71.666 -45 120.999z" />
    <glyph glyph-name="l" unicode="l" horiz-adv-x="458" 
d="M70 156l0.00195312 1269c0 48 14.667 88 44 120s67.666 48 114.999 48c46.667 0 85 -16.333 115 -49s45 -72.334 45 -119.001v-1269c0 -48 -14.667 -88 -44 -120s-68 -48 -116 -48c-46.667 0 -84.834 15.667 -114.501 47s-44.5 71.666 -44.5 120.999z" />
    <glyph glyph-name="m" unicode="m" horiz-adv-x="1687" 
d="M45 156v790.003c0 46.667 14.667 86 44 118s68 48 116 48c39.333 0 74 -11 104 -33c24.667 -18 43.334 -41 56.001 -69c26 39.333 62.833 69.666 110.5 90.999s102.167 32 163.5 32c53.333 0 107.333 -10.667 162 -32s99.667 -54.666 135 -99.999
c52 39.333 95.667 68 131 86c58.667 30 118 45.333 178 46c117.333 0 211 -30.333 281 -91c78 -66.667 116.667 -162.667 116 -288v-598c0 -48 -14.667 -88 -44 -120s-67.666 -48 -114.999 -48c-46.667 0 -85 15.667 -115 47s-45 71.666 -45 120.999v510
c0 53.333 -14.333 99 -43 137s-67.667 57 -117 57c-50.667 0 -89.834 -18.667 -117.501 -56s-41.5 -83.333 -41.5 -138v-510c0 -48 -14.833 -88 -44.5 -120s-68.167 -48 -115.5 -48c-46.667 0 -85 15.667 -115 47s-45 71.666 -45 120.999v510c0 53.333 -14.333 99 -43 137
s-67.667 57 -117 57c-50.667 0 -89.834 -18.667 -117.501 -56s-41.5 -83.333 -41.5 -138v-510c0 -48 -14.833 -88 -44.5 -120s-68.167 -48 -115.5 -48c-46.667 0 -85 15.667 -115 47s-45 71.666 -45 120.999z" />
    <glyph glyph-name="n" unicode="n" 
d="M45 156l-0.00195312 790.002c0 46.667 14.667 86 44 118s68 48 116 48c39.333 0 74 -11 104 -33c24.667 -18 43.334 -41 56.001 -69c52 82 143.333 123 274 123c117.333 0 211 -30.333 281 -91c78 -66.667 116.667 -162.667 116 -288v-598c0 -48 -14.667 -88 -44 -120
s-67.666 -48 -114.999 -48c-46.667 0 -85 15.667 -115 47s-45 71.666 -45 120.999v510c0 57.333 -15.333 104 -46 140s-74 54 -130 54c-53.333 0 -96 -18 -128 -54s-48 -82.667 -48 -140v-510c0 -48 -14.833 -88 -44.5 -120s-68.167 -48 -115.5 -48
c-46.667 0 -85 15.667 -115 47s-45 71.666 -45 120.999z" />
    <glyph glyph-name="o" unicode="o" horiz-adv-x="1142" 
d="M33 551c0 165.333 49.833 303.668 149.5 415.001s229.167 167 388.5 167c160 0 289.833 -55.333 389.5 -166s149.5 -249.334 149.5 -416.001c0 -165.333 -49.833 -304 -149.5 -416s-229.5 -168 -389.5 -168s-289.667 55.667 -389 167s-149 250.333 -149 417zM352 551.002
c0 -79.333 19.501 -145 58.501 -197s92.5 -78 160.5 -78s121.667 26.333 161 79s59 118 59 196s-18.667 141.333 -56 190c-40.667 54.667 -95.334 82 -164.001 82c-68 0 -121.5 -25.833 -160.5 -77.5s-58.5 -116.5 -58.5 -194.5z" />
    <glyph glyph-name="p" unicode="p" horiz-adv-x="1171" 
d="M47 -291l-0.00195312 1237c0 46.667 14.667 86 44 118s68 48 116 48c34 0 64.333 -10.167 91 -30.5s46 -44.166 58 -71.499c66.667 82 158.334 123 275.001 123c139.333 0 256.333 -56.333 351 -169s142 -250.334 142 -413.001c0 -164 -47.333 -302.333 -142 -415
s-211.667 -169 -351 -169c-64 0 -115.167 7.83301 -153.5 23.5s-75.166 37.834 -110.499 66.501v-348c0 -48 -14.667 -88 -44 -120s-68 -48 -116 -48c-46.667 0 -85 15.667 -115 47s-45 71.666 -45 120.999zM366.998 551c0 -79.333 19.333 -145 58 -197
s92.334 -78 161.001 -78c68 0 121.5 26.333 160.5 79s58.5 118 58.5 196s-18.333 141.333 -55 190c-40.667 54.667 -95.334 82 -164.001 82c-68 0 -121.5 -25.833 -160.5 -77.5s-58.5 -116.5 -58.5 -194.5z" />
    <glyph glyph-name="q" unicode="q" horiz-adv-x="1185" 
d="M53 551c0 162.667 47.4961 300.333 142.496 413s212.167 169 351.5 169c62.667 0 114.834 -9 156.501 -27s80.834 -50 117.501 -96c16.667 32.667 37 57.834 61 75.501s53.667 26.5 89 26.5c46.667 0 84.834 -15.667 114.501 -47s44.5 -71 44.5 -119v-1237
c0 -48 -14.667 -88 -44 -120s-67.666 -48 -114.999 -48c-46.667 0 -85 15.667 -115 47s-45 71.666 -45 120.999v348c-36.667 -30 -70 -51 -100 -63c-44 -18 -98.667 -27 -164 -27c-138 0 -254.833 56.667 -350.5 170s-143.5 251.333 -143.5 414zM372.996 550.999
c0 -79.333 19.501 -145 58.501 -197s92.5 -78 160.5 -78s121.5 26.333 160.5 79s58.5 118 58.5 196s-18.333 141.333 -55 190c-40.667 54.667 -95.334 82 -164.001 82c-68 0 -121.5 -25.833 -160.5 -77.5s-58.5 -116.5 -58.5 -194.5z" />
    <glyph glyph-name="r" unicode="r" horiz-adv-x="782" 
d="M68 156l0.000976562 789.999c0 46.667 14.667 86 44 118s67.666 48 114.999 48c39.333 0 74.333 -11 105 -33c24.667 -18 43 -41 55 -69c31.333 36.667 63.333 65.334 96 86.001c39.333 24.667 81 37.334 125 38.001c44 0 82.333 -16 115 -48s49 -71.667 49 -119
c0 -52 -18.333 -91 -55 -117c-23.333 -16.667 -71.166 -35.5 -143.499 -56.5s-121.5 -47.5 -147.5 -79.5s-39 -87 -39 -165v-393c0 -48 -14.667 -88 -44 -120s-68 -48 -116 -48c-46.667 0 -84.834 15.667 -114.501 47s-44.5 71.666 -44.5 120.999z" />
    <glyph glyph-name="s" unicode="s" horiz-adv-x="884" 
d="M25 190c0 44 13.001 81 39.001 111s56.667 45 92 45c22 0 80.667 -21 176 -63c46.667 -20.667 90.334 -31 131.001 -31c31.333 0 54.166 5.83301 68.499 17.5s21.5 27.5 21.5 47.5c0 23.333 -10.333 42 -31 56l-217 90c-90 38 -152 75.333 -186 112
c-44 46.667 -66 111 -66 193c0 98 36.333 182 109 252c78 75.333 179 113 303 113c82 0 159 -17.333 231 -52c91.333 -44 137.333 -103.333 138 -178c0 -40.667 -12.333 -73.334 -37 -98.001s-57 -37 -97 -37c-12 0 -61 17.667 -147 53c-44 18 -80.333 27 -109 27
c-24.667 0 -44.834 -5.5 -60.501 -16.5s-23.5 -28.167 -23.5 -51.5c0 -30 43 -61.333 129 -94c118.667 -45.333 198.667 -82.333 240 -111c87.333 -61.333 131 -143 131 -245c0 -109.333 -39.833 -197.166 -119.5 -263.499s-176.167 -99.5 -289.5 -99.5
c-110.667 0 -207 19.333 -289 58c-91.333 42 -137 97 -137 165z" />
    <glyph glyph-name="t" unicode="t" horiz-adv-x="868" 
d="M43 952c0 50.667 14.3301 88.002 42.9971 112.002s70.334 36 125.001 36h37v211c0 48 14.667 88 44 120s68 48 116 48c46.667 0 84.834 -15.833 114.501 -47.5s44.5 -71.834 44.5 -120.501v-211h88c53.333 0 94.666 -12 123.999 -36s44 -61.333 44 -112
s-15 -88.167 -45 -112.5s-71 -36.5 -123 -36.5h-88v-647c0 -48 -14.667 -88 -44 -120s-67.666 -48 -114.999 -48c-46.667 0 -85 15.667 -115 47s-45 71.666 -45 120.999v647h-37c-53.333 0 -94.666 11.833 -123.999 35.5s-44 61.5 -44 113.5z" />
    <glyph glyph-name="u" unicode="u" 
d="M45 346l-0.00292969 597.998c0 48 14.667 88 44 120s68 48 116 48c46.667 0 85 -15.667 115 -47s45 -71.666 45 -120.999v-510c0 -57.333 15.333 -104 46 -140s74 -54 130 -54c53.333 0 96 18 128 54s48 82.667 48 140v510c0 48 14.667 88 44 120s68 48 116 48
c46.667 0 84.834 -15.667 114.501 -47s44.5 -71.666 44.5 -120.999v-790c0 -46.667 -14.667 -86 -44 -118s-67.666 -48 -114.999 -48c-39.333 0 -74.333 10.667 -105 32c-24.667 18 -43 41.333 -55 70c-52 -82 -143.667 -123 -275 -123c-117.333 0 -210.666 30 -279.999 90
c-78 66.667 -117 163 -117 289z" />
    <glyph glyph-name="v" unicode="v" horiz-adv-x="1112" 
d="M117 1065c31.333 31.333 68.6689 47 112.002 47c35.333 0 65.666 -8.16699 90.999 -24.5s46.333 -48.5 63 -96.5l170 -489l174 489c16.667 46.667 37.167 78.5 61.5 95.5s55.166 25.5 92.499 25.5c44 0 81.5 -15.667 112.5 -47s46.5 -69 46.5 -113
c0 -27.333 -6.66699 -61.333 -20 -102c-8 -24.667 -17.667 -50.667 -29 -78l-260 -653c-16.667 -40.667 -39.167 -72.667 -67.5 -96s-64.5 -35 -108.5 -35s-79.833 11.167 -107.5 33.5s-50.5 54.833 -68.5 97.5l-260 653l-27 74c-14.667 42 -22 76.333 -22 103
c0 46 15.667 84.667 47 116z" />
    <glyph glyph-name="w" unicode="w" horiz-adv-x="1636" 
d="M29 958c0 44 13.999 80.667 41.999 110s67.667 44 119 44c79.333 0 130 -37.667 152 -113l156 -524l147 453c20.667 62.667 38.334 104.334 53.001 125.001c27.333 39.333 67 59 119 59c60 0 105 -29.333 135 -88c12 -23.333 24.333 -55.333 37 -96l144 -453l159 524
c23.333 75.333 74 113 152 113c52 0 92 -14.667 120 -44s42 -66 42 -110c0 -32.667 -7 -68 -21 -106c-13.333 -31.333 -23 -56 -29 -74l-223 -631c-19.333 -54.667 -44.333 -94.834 -75 -120.501s-71.667 -38.5 -123 -38.5c-54.667 0 -96.334 14.333 -125.001 43
c-23.333 23.333 -45.333 65.666 -66 126.999l-125 381l-129 -381c-19.333 -61.333 -40.333 -103.666 -63 -126.999c-28.667 -28.667 -71 -43 -127 -43c-53.333 0 -94.666 12.5 -123.999 37.5s-54.333 65.5 -75 121.5l-223 631l-32.5 96.5c-11 33 -16.5 60.833 -16.5 83.5z
" />
    <glyph glyph-name="x" unicode="x" horiz-adv-x="1075" 
d="M8 150c0 30 6.99805 56.999 20.998 80.999c6.66699 10.667 21 29.334 43 56.001l272 293l-166 178c-46.667 50.667 -72.667 79.334 -78 86.001c-30 36.667 -45 70.667 -45 102c0 49.333 15.333 89.333 46 120s66.667 46 108 46c36.667 0 66.334 -5.5 89.001 -16.5
s45.667 -31.5 69 -61.5l170 -213l170 213c26 30 49.5 50.5 70.5 61.5s49.833 16.5 86.5 16.5c40.667 0 76.5 -15.333 107.5 -46s46.5 -70.667 46.5 -120c0 -34 -13.667 -67.333 -41 -100c-2.66699 -4 -30 -33.333 -82 -88l-166 -178l272 -293
c22 -23.333 36.333 -41.333 43 -54c13.333 -24.667 20.333 -52.334 21 -83.001c0 -49.333 -16 -88.666 -48 -117.999s-70.667 -44 -116 -44c-23.333 0 -45.5 5 -66.5 15s-45.833 32.333 -74.5 67l-223 264l-224 -264c-27.333 -34 -51.166 -56.167 -71.499 -66.5
s-43.5 -15.5 -69.5 -15.5c-45.333 0 -84 14.667 -116 44s-48 68.666 -48 117.999z" />
    <glyph glyph-name="y" unicode="y" horiz-adv-x="1173" 
d="M76 963c0 46.667 15.334 83.168 46.001 109.501s67 39.5 109 39.5c78 0 132.667 -40.333 164 -121l189 -493l178 440c22 56 44.333 97 67 123c30 34 65.667 51 107 51c49.333 0 89 -14.333 119 -43s45 -68.334 45 -119.001c0 -19.333 -3.83301 -40.5 -11.5 -63.5
s-16.834 -48.833 -27.501 -77.5l-473 -1114c-23.333 -54.667 -43.333 -91 -60 -109c-27.333 -30 -65.333 -45 -114 -45c-50.667 0 -91 17 -121 51c-24.667 28.667 -37 59.667 -37 93c0 38 17.667 97.333 53 178l107 243l-273 656c-19.333 45.333 -35.333 86 -48 122
s-19 62.333 -19 79z" />
    <glyph glyph-name="z" unicode="z" horiz-adv-x="989" 
d="M10 115c0 16.667 2.83105 33.001 8.49805 49.001s19.167 39 40.5 69l410 570h-281c-53.333 0 -94.666 11.833 -123.999 35.5s-44 61.5 -44 113.5c0 50.667 14.333 88 43 112s70.334 36 125.001 36h615c54.667 0 95 -13 121 -39c18.667 -18.667 28 -43 28 -73
c0 -26.667 -13.667 -59 -41 -97l-438 -594h338c53.333 0 94.666 -12 123.999 -36s44 -61 44 -111c0 -50.667 -15 -88.334 -45 -113.001s-71 -37 -123 -37h-647c-30 -0 -50.833 1.33301 -62.5 4s-25.667 8.83398 -42 18.501s-28.666 21.667 -36.999 36
s-12.5 33.166 -12.5 56.499z" />
    <glyph glyph-name="braceleft" unicode="{" horiz-adv-x="817" 
d="M53 580c0 27.333 8.16797 50.501 24.501 69.501s41.166 28.5 74.499 28.5c31.333 0 53.666 6.66699 66.999 20c20.667 20.667 31 59.667 31 117v420c0 91.333 22.833 159.166 68.5 203.499s113.5 66.5 203.5 66.5h152c61.333 0 92 -30.667 92 -92
c0 -30 -8.16699 -53.167 -24.5 -69.5s-38.833 -24.5 -67.5 -24.5h-51c-60 0 -90.333 -39.667 -91 -119v-409c0 -65.333 -16.333 -114.833 -49 -148.5s-90 -53.834 -172 -60.501c83.333 -12 141 -34.167 173 -66.5s48 -81.166 48 -146.499v-410
c0 -80.667 30.333 -121 91 -121h51c61.333 0 92 -30.667 92 -92c0 -30 -8.5 -53.167 -25.5 -69.5s-39.167 -24.5 -66.5 -24.5h-152c-181.333 0 -272 90.667 -272 272v420c0 56 -8.5 92.5 -25.5 109.5s-41.167 25.5 -72.5 25.5s-55.666 10 -72.999 30s-26 43.667 -26 71z" />
    <glyph glyph-name="bar" unicode="|" horiz-adv-x="528" 
d="M141 100v1358c0 38 11 70 33 96s52 39 90 39c39.333 0 69.666 -12.5 90.999 -37.5s32 -57.5 32 -97.5v-1358c0 -38 -10.5 -69.667 -31.5 -95s-51.5 -38 -91.5 -38c-39.333 0 -69.666 12.667 -90.999 38s-32 57 -32 95z" />
    <glyph glyph-name="braceright" unicode="}" horiz-adv-x="811" 
d="M49 -254c0 31.333 8.16797 54.501 24.501 69.501s38.833 22.5 67.5 22.5h52c60 0 90 40.333 90 121v410c0 65.333 16.333 114.666 49 147.999s90 53.666 172 60.999c-83.333 12 -140 33 -170 63c-34 34 -51 84 -51 150v409c0 79.333 -30 119 -90 119h-52
c-61.333 0 -92 31.333 -92 94c0 31.333 8.16699 54.5 24.5 69.5s38.833 22.5 67.5 22.5h152c91.333 0 159.5 -21.5 204.5 -64.5s67.5 -111.5 67.5 -205.5v-420c0 -56 9.66699 -94.333 29 -115c15.333 -15.333 38.666 -22.666 69.999 -21.999c31.333 0 55.5 -10 72.5 -30
s25.5 -42.667 25.5 -68c0 -27.333 -8.16699 -51 -24.5 -71s-40.833 -30 -73.5 -30c-31.333 0 -54 -6.66699 -68 -20c-20.667 -20.667 -31 -59 -31 -115v-420c0 -181.333 -90.667 -272 -272 -272h-152c-61.333 0 -92 31.333 -92 94z" />
    <glyph glyph-name="asciitilde" unicode="~" horiz-adv-x="1290" 
d="M115 506c0 74 26.8301 140.332 80.4971 198.999s122.834 88 207.501 88c64 0 149.333 -23.667 256 -71s173.667 -71 201 -71c36.667 0 85.334 28 146.001 84c28.667 27.333 55.667 41 81 41c30 0 52.333 -10.5 67 -31.5s22 -47.833 22 -80.5
c0 -72.667 -26.667 -137 -80 -193c-59.333 -61.333 -133.333 -92 -222 -92c-53.333 0 -114.666 14.333 -183.999 43c-160 65.333 -246.667 98 -260 98c-36.667 0 -85 -28 -145 -84c-28.667 -27.333 -56 -41 -82 -41c-30 0 -52.167 10.333 -66.5 31
s-21.5 47.334 -21.5 80.001z" />
    <glyph glyph-name="uni00A0" unicode="&#xa0;" horiz-adv-x="540" 
 />
    <glyph glyph-name="exclamdown" unicode="&#xa1;" horiz-adv-x="585" 
d="M115 954c0 48 17.667 89.8311 53 125.498s77 53.5 125 53.5s89.667 -17.167 125 -51.5s53 -76.833 53 -127.5c0 -49.333 -17.667 -91.666 -53 -126.999s-77 -53 -125 -53s-89.667 17.833 -125 53.5s-53 77.834 -53 126.501zM133 -223.002v725.002
c0 50.667 14.333 93.667 43 129s67.667 53 117 53c50.667 0 90 -17 118 -51s42 -77.667 42 -131v-725c0 -50.667 -14.333 -93.834 -43 -129.501s-67.667 -53.5 -117 -53.5c-50.667 0 -90 17.167 -118 51.5s-42 78.166 -42 131.499z" />
    <glyph glyph-name="cent" unicode="&#xa2;" horiz-adv-x="1210" 
d="M147 551c0 152.667 44.5 283.665 133.5 392.998s205.167 172.333 348.5 189v120c0 15.333 6.16699 29.833 18.5 43.5s26.5 20.5 42.5 20.5c16.667 0 31.167 -6.16699 43.5 -18.5s18.5 -27.5 18.5 -45.5v-120c80.667 0 150.334 -16.667 209.001 -50
c69.333 -39.333 104 -93.666 104 -162.999c0 -44 -12.667 -80 -38 -108s-56.333 -42 -93 -42c-24.667 0 -59.667 9 -105 27c-31.333 12 -57 19.333 -77 22v-536c35.333 4 79 16 131 36c24.667 9.33301 41.667 14.333 51 15c35.333 0 66 -15 92 -45s39 -63 39 -99
c0 -62.667 -35.667 -115 -107 -157c-58.667 -35.333 -127.334 -57.333 -206.001 -66v-133c0 -15.333 -6.16699 -29.666 -18.5 -42.999s-26.833 -20 -43.5 -20s-31 6 -43 18s-18 27 -18 45v133c-144.667 15.333 -261.167 77.5 -349.5 186.5s-132.5 241.5 -132.5 397.5z
M467 550.998c0 -65.333 14 -122.332 42 -170.999s68 -80.334 120 -95.001v526c-52 -13.333 -92 -44 -120 -92s-42 -104 -42 -168z" />
    <glyph glyph-name="sterling" unicode="&#xa3;" horiz-adv-x="1378" 
d="M55 741c0 40.667 15.3311 76.499 45.998 107.499s73.334 46.5 128.001 46.5h68c-13.333 36.667 -24.166 69.334 -32.499 98.001s-12.5 56 -12.5 82c0 131.333 49.167 235.833 147.5 313.5s229.5 116.5 393.5 116.5c177.333 0 314.333 -45.667 411 -137
c75.333 -70.667 113 -150.667 113 -240c0 -40.667 -15.667 -76 -47 -106s-67.666 -45 -108.999 -45c-46.667 0 -85.667 24 -117 72c-70.667 106.667 -154.334 159.667 -251.001 159c-56 0 -102.833 -14.333 -140.5 -43s-56.5 -70.334 -56.5 -125.001
c0 -19.333 5.5 -45.333 16.5 -78s18.5 -55.667 22.5 -69l180 2c56 0 99 -15 129 -45s45 -66.333 45 -109c0 -40.667 -15 -76.667 -45 -108s-73 -47 -129 -47h-135c0 -61.333 -4.83301 -109.166 -14.5 -143.499s-31.5 -73.833 -65.5 -118.5h543
c54.667 0 98.334 -15.167 131.001 -45.5s49 -69.166 49 -116.499c0 -48 -16.333 -87 -49 -117s-76.334 -45 -131.001 -45h-756c-56 0 -102.833 13 -140.5 39s-56.5 67 -56.5 123c0 45.333 24 99.333 72 162c53.333 69.333 85.333 156.666 96 261.999h-129
c-56 0 -99 15 -129 45s-45 66.667 -45 110z" />
    <glyph glyph-name="currency" unicode="&#xa4;" horiz-adv-x="1200" 
d="M78 737c0 109.333 28.667 205.668 86 289.001l-49 47c-20.667 20.667 -31 44.667 -31 72s10.167 51.833 30.5 73.5s44.833 32.5 73.5 32.5c32.667 0 60.667 -11.333 84 -34l39 -39c83.333 57.333 179.666 86 288.999 86s205.666 -28.667 288.999 -86l39 39
c23.333 23.333 51.333 34.666 84 33.999c27.333 0 51.5 -10.5 72.5 -31.5s31.5 -45.833 31.5 -74.5c0 -27.333 -10.333 -51.333 -31 -72l-49 -47c27.333 -40.667 48.5 -85 63.5 -133s22.5 -100 22.5 -156s-7.16699 -107.833 -21.5 -155.5s-35.833 -92.834 -64.5 -135.501
l49 -47c20.667 -20.667 31 -43.667 31 -69c0 -28.667 -10.167 -54 -30.5 -76s-44.833 -33 -73.5 -33c-32.667 0 -60.667 11.667 -84 35l-39 39c-83.333 -57.333 -179.666 -86 -288.999 -86s-205.666 28.667 -288.999 86l-39 -39c-23.333 -23.333 -51.333 -35 -84 -35
c-27.333 0 -51.5 10.667 -72.5 32s-31.5 47 -31.5 77c0 26 10.333 49 31 69l49 47c-28.667 42 -50.167 86.333 -64.5 133s-21.5 99.334 -21.5 158.001zM336 737.002c0 -78 25.167 -144.167 75.5 -198.5s113.833 -81.5 190.5 -81.5s139.5 26.5 188.5 79.5
s73.5 119.833 73.5 200.5c0 78 -24.833 144 -74.5 198s-112.167 81 -187.5 81s-138.5 -27 -189.5 -81s-76.5 -120 -76.5 -198z" />
    <glyph glyph-name="yen" unicode="&#xa5;" horiz-adv-x="1366" 
d="M92 1335c0 44 16.833 79.998 50.5 107.998s75.5 42 125.5 42c39.333 0 74.333 -12.333 105 -37c19.333 -15.333 40.333 -40.666 63 -75.999l246 -354l246 354c26 36.667 46.333 61.334 61 74.001c31.333 26 67 39 107 39c50.667 0 92.667 -13.667 126 -41
s50 -63.666 50 -108.999c0 -32.667 -8.83301 -65.334 -26.5 -98.001s-54.5 -85.334 -110.5 -158.001l-148 -190h156c24.667 0 47.167 -9.66699 67.5 -29s30.5 -41.666 30.5 -66.999c0 -27.333 -9.5 -51.333 -28.5 -72s-42.167 -31 -69.5 -31h-295v-115h295
c24.667 0 47.167 -9.5 67.5 -28.5s30.5 -42.167 30.5 -69.5s-9.83301 -50.833 -29.5 -70.5s-42.5 -29.5 -68.5 -29.5h-295v-211c0 -57.333 -15.333 -101.333 -46 -132s-70.667 -46 -120 -46c-50.667 0 -91 15 -121 45s-45 74.333 -45 133v211h-295
c-26 0 -48.833 9.83301 -68.5 29.5s-29.5 43.167 -29.5 70.5s9.5 50.5 28.5 69.5s42.167 28.5 69.5 28.5h295v115h-295c-24.667 0 -47.167 10.333 -67.5 31s-30.5 44.667 -30.5 72c0 26 9.5 48.5 28.5 67.5s42.167 28.5 69.5 28.5h156l-148 190
c-58.667 76.667 -96.167 130 -112.5 160s-24.5 62 -24.5 96z" />
    <glyph glyph-name="brokenbar" unicode="&#xa6;" horiz-adv-x="518" 
d="M135 100v406c0 39.333 10.667 71.666 32 96.999s51.666 38 90.999 38s69.666 -12.667 90.999 -38s32 -57.666 32 -96.999v-406c0 -38 -10.667 -69.667 -32 -95s-51.666 -38 -90.999 -38s-69.666 12.667 -90.999 38s-32 57 -32 95zM135 1053v405c0 38 11 70 33 96
s52 39 90 39c39.333 0 69.666 -12.5 90.999 -37.5s32 -57.5 32 -97.5v-405c0 -38 -11 -70 -33 -96s-52 -39 -90 -39c-39.333 0 -69.666 12.5 -90.999 37.5s-32 57.5 -32 97.5z" />
    <glyph glyph-name="section" unicode="&#xa7;" horiz-adv-x="1165" 
d="M76 586c0 70.667 16.333 131.665 49 182.998s81.667 96 147 134c-39.333 34 -66.5 68.5 -81.5 103.5s-22.5 79.833 -22.5 134.5c0 105.333 38.833 192.333 116.5 261s179.5 103 305.5 103c112 0 211 -28.667 297 -86s129 -127 129 -209c0 -35.333 -12 -67.333 -36 -96
s-54.333 -43 -91 -43c-28.667 0 -88 42.333 -178 127c-42 39.333 -85 59 -129 59c-28.667 0 -53.667 -8.5 -75 -25.5s-32 -38.5 -32 -64.5c0 -57.333 52.667 -114.666 158 -171.999c187.333 -101.333 286.333 -156 297 -164c106.667 -80.667 160 -178 160 -292
c0 -78 -17.167 -145 -51.5 -201s-80.833 -99.667 -139.5 -131c31.333 -26 57.666 -57.5 78.999 -94.5s32 -73.167 32 -108.5c0 -124 -41.667 -221 -125 -291c-78 -65.333 -179 -98 -303 -98c-117.333 0 -218.333 26.667 -303 80c-90 57.333 -135.333 128.333 -136 213
c0 35.333 12 66.333 36 93s56.333 40 97 40c34 0 78 -29.667 132 -89s112.667 -89 176 -89c34 0 62.167 7.5 84.5 22.5s33.5 37.5 33.5 67.5c0 53.333 -53.667 110 -161 170c-177.333 100 -277.666 158.667 -300.999 176c-109.333 84.667 -164 180.334 -164 287.001z
M358 630.998c0 -32.667 25.333 -67.667 76 -105c23.333 -16.667 53.333 -35.667 90 -57l199 -119c56 34 84 77.667 84 131c0 34 -25.333 69.667 -76 107c-16.667 12 -46 30.333 -88 55l-201 121c-56 -34 -84 -78.333 -84 -133z" />
    <glyph glyph-name="dieresis" unicode="&#xa8;" horiz-adv-x="770" 
d="M-12 1432c0 44 15.332 81.833 45.999 113.5s68.334 47.5 113.001 47.5c44 0 81.667 -15.5 113 -46.5s47 -69.167 47 -114.5s-15.667 -83.666 -47 -114.999s-69 -47 -113 -47s-81.5 15.667 -112.5 47s-46.5 69.666 -46.5 114.999zM462.999 1432
c0 44 15.332 81.833 45.999 113.5s68.667 47.5 114 47.5c44 0 81.5 -15.5 112.5 -46.5s46.5 -69.167 46.5 -114.5s-15.667 -83.666 -47 -114.999s-68.666 -47 -111.999 -47c-44 0 -81.667 15.667 -113 47s-47 69.666 -47 114.999z" />
    <glyph glyph-name="copyright" unicode="&#xa9;" horiz-adv-x="1720" 
d="M98 737c0 234.667 77.333 424 232 568c143.333 133.333 320 200 530 200c207.333 0 383.666 -66.667 528.999 -200c155.333 -144.667 233 -334 233 -568c0 -234.667 -77.667 -424.334 -233 -569.001c-143.333 -134 -319.666 -201 -528.999 -201
c-208.667 0 -384.667 67 -528 201c-155.333 144.667 -233.333 334.334 -234 569.001zM332 737c0 -172 50.168 -312.168 150.501 -420.501s226.166 -162.5 377.499 -162.5c150 0 275.667 53.833 377 161.5s152 248.167 152 421.5c0 170.667 -51 310.334 -153 419.001
s-227.333 163 -376 163c-150 0 -275.5 -54 -376.5 -162s-151.5 -248 -151.5 -420zM483.001 742.999c0 131.333 36.334 238.332 109.001 320.999s171 124 295 124c98 0 180.667 -28 248 -84c60 -50.667 90 -105.334 90 -164.001c0 -27.333 -6.33301 -49.333 -19 -66
c-18 -24.667 -40.333 -36.667 -67 -36c-46.667 0 -82.334 29.333 -107.001 88c-8 22 -24.667 40 -50 54s-57 21 -95 21c-56 0 -100.333 -22.5 -133 -67.5s-49 -106.833 -49 -185.5c0 -78 16.667 -141.333 50 -190s78.666 -73 135.999 -73c35.333 0 67.333 9.66699 96 29
c20.667 13.333 36.334 30.333 47.001 51c18 34 33 56.667 45 68c18 16.667 40.667 24.667 68 24c24.667 0 45.167 -8.16699 61.5 -24.5s24.5 -38.166 24.5 -65.499c0 -52 -29.333 -106.667 -88 -164c-70.667 -69.333 -155.334 -104 -254.001 -104
c-121.333 0 -219.666 42.333 -294.999 127s-113 190.334 -113 317.001z" />
    <glyph glyph-name="ordfeminine" unicode="&#xaa;" horiz-adv-x="884" 
d="M84 1161c0 96.667 31 178.167 93 244.5s141 99.5 237 99.5c76.667 0 136.667 -23.667 180 -71c18 48 50 71.667 96 71c74 0 111 -30 111 -90v-516c0 -60 -37 -90 -111 -90c-46.667 0 -78.667 24 -96 72c-46.667 -48 -106.667 -72 -180 -72
c-94 0 -172.5 34.167 -235.5 102.5s-94.5 151.5 -94.5 249.5zM305 1157c0 -40.667 12.333 -75.667 37 -105s58 -44 100 -44s75.5 14.333 100.5 43s37.5 64 37.5 106c0 39.333 -12.5 74.166 -37.5 104.499s-58.5 45.5 -100.5 45.5c-40.667 0 -73.667 -14.667 -99 -44
s-38 -64.666 -38 -105.999z" />
    <glyph glyph-name="guillemotleft" unicode="&#xab;" horiz-adv-x="1112" 
d="M72 578c0 34 6.16797 65.332 18.501 93.999s33.5 54 63.5 76l172 124c19.333 15.333 36.666 26.333 51.999 33s32.666 10 51.999 10c30 0 55 -10.5 75 -31.5s30 -46.5 30 -76.5c0 -26 -3.5 -47.167 -10.5 -63.5s-22.167 -32.166 -45.5 -47.499l-182 -118l182 -123
c19.333 -13.333 33.5 -29 42.5 -47s13.5 -38 13.5 -60c0 -30 -9.66699 -55.833 -29 -77.5s-44.666 -32.5 -75.999 -32.5c-18 0 -34.833 3.33301 -50.5 10s-33.5 17.667 -53.5 33l-172 127c-28.667 22 -49.5 47.167 -62.5 75.5s-19.5 59.833 -19.5 94.5zM578.001 577.999
c0 34 6.00195 65.332 18.002 93.999s33 54 63 76l172 124c19.333 15.333 36.833 26.333 52.5 33s33.167 10 52.5 10c30 0 54.833 -10.5 74.5 -31.5s29.5 -46.5 29.5 -76.5c0 -26 -3.33301 -47.167 -10 -63.5s-21.667 -32.166 -45 -47.499l-182 -118l182 -123
c19.333 -13.333 33.333 -29 42 -47s13 -38 13 -60c0 -30 -9.5 -55.833 -28.5 -77.5s-44.167 -32.5 -75.5 -32.5c-18 0 -34.833 3.33301 -50.5 10s-33.834 17.667 -54.501 33l-172 127c-28.667 22 -49.334 47.167 -62.001 75.5s-19 59.833 -19 94.5z" />
    <glyph glyph-name="logicalnot" unicode="&#xac;" horiz-adv-x="1333" 
d="M88 829c0 42 13 75.5 39 100.5s60.667 37.5 104 37.5h852c65.333 0 109 -11.667 131 -35s33 -67 33 -131v-420c0 -44 -11.167 -79.167 -33.5 -105.5s-54.166 -39.5 -95.499 -39.5c-40.667 0 -72.334 13.167 -95.001 39.5s-34 61.5 -34 105.5v311h-758
c-45.333 0 -80.5 12 -105.5 36s-37.5 57.667 -37.5 101z" />
    <glyph glyph-name="uni00AD" unicode="&#xad;" horiz-adv-x="1335" 
d="M88 580c0 42 12.667 74.999 38 98.999s60.333 36 105 36h873c44 0 78.833 -11.667 104.5 -35s38.5 -56.666 38.5 -99.999c0 -42 -12.667 -75.167 -38 -99.5s-60.333 -36.5 -105 -36.5h-873c-44 0 -78.833 11.667 -104.5 35s-38.5 57 -38.5 101z" />
    <glyph glyph-name="registered" unicode="&#xae;" horiz-adv-x="1720" 
d="M98 737c0 234.667 77.333 424 232 568c143.333 133.333 320 200 530 200c207.333 0 383.666 -66.667 528.999 -200c155.333 -144.667 233 -334 233 -568c0 -234.667 -77.667 -424.334 -233 -569.001c-143.333 -134 -319.666 -201 -528.999 -201
c-208.667 0 -384.667 67 -528 201c-155.333 144.667 -233.333 334.334 -234 569.001zM332 737c0 -172 50.168 -312.168 150.501 -420.501s226.166 -162.5 377.499 -162.5c150 0 275.667 53.833 377 161.5s152 248.167 152 421.5c0 170.667 -51 310.334 -153 419.001
s-227.333 163 -376 163c-150 0 -275.5 -54 -376.5 -162s-151.5 -248 -151.5 -420zM557.001 429.999l0.000976562 627.001c0 30 8.83301 53.167 26.5 69.5s39.5 24.5 65.5 24.5h256c100 0 172.333 -17 217 -51c52 -39.333 78 -105.666 78 -198.999
c0 -72.667 -18.333 -129.334 -55 -170.001s-81 -61 -133 -61l143 -195c16.667 -22 25 -45 25 -69c0 -20.667 -8.66699 -37.167 -26 -49.5s-37.333 -18.5 -60 -18.5c-28.667 0 -51.334 7.33301 -68.001 22c-5.33301 5.33301 -17 20.666 -35 45.999l-188 264h-62v-240
c0 -30 -8.5 -52.833 -25.5 -68.5s-39.167 -23.5 -66.5 -23.5c-61.333 0 -92 30.667 -92 92zM741.002 819h153.998c28.667 0 48.334 2 59.001 6c32.667 12 49.334 40 50.001 84c0 36.667 -9.33301 61.167 -28 73.5s-45.667 18.5 -81 18.5h-154v-182z" />
    <glyph glyph-name="macron" unicode="&#xaf;" horiz-adv-x="749" 
d="M0 1432c0 38 11.6689 69.332 35.002 93.999s54.666 37 93.999 37h492c86 0 129 -43.667 129 -131c0 -39.333 -11.333 -71.166 -34 -95.499s-54.334 -36.5 -95.001 -36.5h-492c-86 0 -129 44 -129 132z" />
    <glyph glyph-name="degree" unicode="&#xb0;" horiz-adv-x="735" 
d="M74 1210c0 82 28 151.666 84 208.999s125.667 86 209 86c82 0 151.167 -28.333 207.5 -85s84.5 -126.667 84.5 -210s-27.833 -153.666 -83.5 -210.999s-125.167 -86 -208.5 -86c-82 0 -151.333 29 -208 87s-85 128 -85 210zM221 1210
c0 -40.667 14.5 -75.334 43.5 -104.001s63.167 -43 102.5 -43s73.333 14.333 102 43s43 63.334 43 104.001c0 38 -14.333 72.167 -43 102.5s-62.667 45.5 -102 45.5s-73.5 -14.333 -102.5 -43s-43.5 -63.667 -43.5 -105z" />
    <glyph glyph-name="plusminus" unicode="&#xb1;" horiz-adv-x="1302" 
d="M72 137c0 42 12.499 75 37.499 99s60.167 36 105.5 36h872c44 0 79 -11.5 105 -34.5s39 -56.5 39 -100.5s-12.667 -77.833 -38 -101.5s-60.666 -35.5 -105.999 -35.5h-872c-95.333 0 -143 45.667 -143 137zM71.999 754c0 42 12.5 74.999 37.5 98.999s60.167 36 105.5 36
h301v137c0 44 12 79.167 36 105.5s57 39.5 99 39.5s75 -13.167 99 -39.5s36 -61.5 36 -105.5v-137h301c44 0 79 -11.667 105 -35s39 -56.666 39 -99.999c0 -44 -12.667 -78 -38 -102s-60.666 -36 -105.999 -36h-301v-137c0 -42 -11.833 -76.333 -35.5 -103
s-56.834 -40 -99.501 -40c-44 0 -77.5 13 -100.5 39s-34.5 60.667 -34.5 104v137h-301c-95.333 0 -143 46 -143 138z" />
    <glyph glyph-name="uni00B2" unicode="&#xb2;" horiz-adv-x="819" 
d="M74 688c0 34 35.9961 86.667 107.996 158l203 190c72.667 75.333 109 137 109 185c0 23.333 -9.66699 41.333 -29 54s-40 19 -62 19c-44 0 -77.167 -28.333 -99.5 -85s-57.166 -85 -104.499 -85c-35.333 0 -62.333 10 -81 30s-28 42.333 -28 67
c0 79.333 30.333 146.5 91 201.5s139.667 82.5 237 82.5c88.667 0 162.334 -24.167 221.001 -72.5s88 -113.5 88 -195.5c0 -87.333 -52.667 -185 -158 -293l-145 -143h225c32.667 0 57.334 -9.66699 74.001 -29s25 -43.333 25 -72c0 -26 -8.66699 -48.833 -26 -68.5
s-41.666 -29.5 -72.999 -29.5h-450c-34 0 -63.333 7.83301 -88 23.5s-37 36.5 -37 62.5z" />
    <glyph glyph-name="uni00B3" unicode="&#xb3;" horiz-adv-x="843" 
d="M86 827c0 27.333 9.16797 49.999 27.501 67.999s42.5 27 72.5 27c34 0 62.667 -12.333 86 -37c53.333 -56 104 -84 152 -84c27.333 0 51.166 9.5 71.499 28.5s30.5 40.167 30.5 63.5c0 46.667 -36.833 75.334 -110.5 86.001s-110.5 40.667 -110.5 90
c0 45.333 31.5 76.166 94.5 92.499s94.5 42.833 94.5 79.5c0 18 -7.5 31.333 -22.5 40s-35.5 13 -61.5 13c-35.333 0 -70.5 -14.667 -105.5 -44s-68.167 -44 -99.5 -44c-27.333 0 -48.833 9.33301 -64.5 28s-23.5 40 -23.5 64c0 64 34 116 102 156c58.667 34 127 51 205 51
s146 -21.833 204 -65.5s87 -102.167 87 -175.5c0 -34 -9.33301 -66.167 -28 -96.5s-47.667 -57.166 -87 -80.499c52 -20.667 91.667 -50.667 119 -90s41 -84.333 41 -135c0 -82 -32.167 -147.833 -96.5 -197.5s-144.833 -74.5 -241.5 -74.5c-86 0 -163.5 23.5 -232.5 70.5
s-103.5 102.5 -103.5 166.5z" />
    <glyph glyph-name="acute" unicode="&#xb4;" horiz-adv-x="632" 
d="M16 1370c0 52 25.334 89.667 76.001 113l307 135c9.33301 4 22 8 38 12s31.333 6 46 6c39.333 0 71.333 -13.667 96 -41s37 -61.333 37 -102c0 -53.333 -25 -91 -75 -113l-308 -135c-9.33301 -4 -21.833 -8 -37.5 -12s-30.834 -6 -45.501 -6
c-39.333 0 -71.5 13.667 -96.5 41s-37.5 61.333 -37.5 102z" />
    <glyph glyph-name="mu" unicode="&#xb5;" horiz-adv-x="1220" 
d="M115 -291l0.000976562 1237c0 46.667 14.667 86 44 118s67.666 48 114.999 48c46.667 0 85 -15.667 115 -47s45 -71 45 -119v-500c0 -56 17.833 -99.667 53.5 -131s76.5 -47 122.5 -47c53.333 0 96 18.167 128 54.5s48 83.166 48 140.499v483c0 46.667 14.667 86 44 118
s68 48 116 48c46.667 0 85 -15.667 115 -47s45 -71 45 -119v-790c0 -48 -14.667 -88 -44 -120s-68 -48 -116 -48c-34 0 -64.333 10.167 -91 30.5s-46 44.166 -58 71.499c-30 -38 -59.667 -64.5 -89 -79.5s-60.666 -22.5 -93.999 -22.5c-42 0 -77.667 9.16699 -107 27.5
s-52.333 42.5 -69 72.5l-4 -379c0 -48 -14.667 -88 -44 -120s-68 -48 -116 -48c-46.667 0 -84.834 15.667 -114.501 47s-44.5 71.666 -44.5 120.999z" />
    <glyph glyph-name="paragraph" unicode="&#xb6;" horiz-adv-x="1363" 
d="M109 1104c0 139.333 48.335 238.333 145.002 297c79.333 48 198.666 72 357.999 72h521c38 0 67.833 -11 89.5 -33s32.5 -52 32.5 -90v-1598c0 -36.667 -10.833 -66.667 -32.5 -90s-51.5 -35 -89.5 -35c-82 0 -123 41.667 -123 125v1534h-199v-1534
c0 -36.667 -11 -66.667 -33 -90s-52 -35 -90 -35c-82 0 -123 41.667 -123 125v1000c-148.667 0 -261.834 30.667 -339.501 92s-116.5 148 -116.5 260z" />
    <glyph glyph-name="periodcentered" unicode="&#xb7;" horiz-adv-x="612" 
d="M129 575c0 48 17.333 90.166 52 126.499s76.667 54.5 126 54.5c48 0 89.667 -17.833 125 -53.5s53 -78.167 53 -127.5s-17.667 -91.666 -53 -126.999s-77 -53 -125 -53c-49.333 0 -91.333 17.5 -126 52.5s-52 77.5 -52 127.5z" />
    <glyph glyph-name="cedilla" unicode="&#xb8;" horiz-adv-x="411" 
d="M-25 -362c0 16.667 5.16895 32.668 15.502 48.001s23.833 23 40.5 23c13.333 0 36.333 -6.66699 69 -20c19.333 -8 34.333 -12.333 45 -13c19.333 0 35.833 6.16699 49.5 18.5s20.5 28.833 20.5 49.5c0 19.333 -6.83301 33.666 -20.5 42.999s-27.834 14 -42.501 14h-41
c-12 0 -23 4.83301 -33 14.5s-15 20.5 -15 32.5c0 16.667 6.33301 34.667 19 54c5.33301 8 17.666 23.667 36.999 47l43 51h141l-80 -109l49 3c48 0 87.333 -14.833 118 -44.5s46 -69.5 46 -119.5c0 -58.667 -29.333 -106 -88 -142c-50.667 -31.333 -106.667 -47 -168 -47
c-52 0 -93.667 5 -125 15c-53.333 16.667 -80 44 -80 82z" />
    <glyph glyph-name="uni00B9" unicode="&#xb9;" horiz-adv-x="622" 
d="M111 1395c0 26 8.49902 48.833 25.499 68.5s41.167 29.5 72.5 29.5h188c32.667 0 60.334 -8.83301 83.001 -26.5s34 -46.5 34 -86.5v-673c0 -32.667 -10.5 -60.334 -31.5 -83.001s-49.5 -34 -85.5 -34c-38 0 -66.833 10.833 -86.5 32.5s-29.5 49.834 -29.5 84.501v587
h-72c-32.667 0 -57.167 9.66699 -73.5 29s-24.5 43.333 -24.5 72z" />
    <glyph glyph-name="ordmasculine" unicode="&#xba;" horiz-adv-x="831" 
d="M59 1161c0 96.667 32.501 178.167 97.501 244.5s151.5 99.5 259.5 99.5c105.333 0 191 -33 257 -99s99 -147.667 99 -245c0 -100 -33 -183.667 -99 -251s-151.667 -101 -257 -101c-106.667 0 -192.834 33.5 -258.501 100.5s-98.5 150.833 -98.5 251.5zM281.001 1157
c0 -39.333 12.333 -74 37 -104s57.334 -45 98.001 -45c42 0 75 14.667 99 44s36 64.333 36 105c0 39.333 -12.333 74.166 -37 104.499s-57.334 45.5 -98.001 45.5c-42 0 -75 -14.667 -99 -44s-36 -64.666 -36 -105.999z" />
    <glyph glyph-name="guillemotright" unicode="&#xbb;" horiz-adv-x="1099" 
d="M66 348c0 23.333 3.66504 43.501 10.998 60.501s22 33.167 44 48.5l182 121l-182 120c-22 15.333 -36.667 31.166 -44 47.499s-11 36.833 -11 61.5c0 28.667 9.5 53.834 28.5 75.501s44.167 32.5 75.5 32.5c18 0 34.833 -3.33301 50.5 -10s33.5 -17.667 53.5 -33
l172 -124c28.667 -22 49.5 -47.333 62.5 -76s19.5 -60 19.5 -94c0 -35.333 -5.66699 -66.833 -17 -94.5s-33 -52.834 -65 -75.501l-172 -127c-19.333 -15.333 -36.666 -26.333 -51.999 -33s-32.666 -10 -51.999 -10c-30 0 -54.833 10.5 -74.5 31.5s-29.5 47.167 -29.5 78.5z
M570.998 348.001c0 23.333 3.83203 43.501 11.499 60.501s22.5 33.167 44.5 48.5l182 121l-182 120c-22 15.333 -36.833 31.166 -44.5 47.499s-11.5 36.833 -11.5 61.5c0 28.667 9.66699 53.834 29 75.501s44.666 32.5 75.999 32.5c18 0 34.833 -3.33301 50.5 -10
s33.5 -17.667 53.5 -33l172 -124c28.667 -22 49.5 -47.333 62.5 -76s19.5 -60 19.5 -94c0 -35.333 -5.83301 -66.833 -17.5 -94.5s-33.167 -52.834 -64.5 -75.501l-172 -127c-19.333 -15.333 -36.666 -26.333 -51.999 -33s-32.666 -10 -51.999 -10c-30 0 -55 10.5 -75 31.5
s-30 47.167 -30 78.5z" />
    <glyph glyph-name="onequarter" unicode="&#xbc;" horiz-adv-x="1849" 
d="M16 1395c0 26 8.66699 48.833 26 68.5s41.666 29.5 72.999 29.5h188c32.667 0 60.334 -8.83301 83.001 -26.5s34 -46.5 34 -86.5v-673c0 -32.667 -10.667 -60.334 -32 -83.001s-49.666 -34 -84.999 -34c-38 0 -67 10.833 -87 32.5s-30 49.834 -30 84.501v587h-71
c-32.667 0 -57.334 9.66699 -74.001 29s-25 43.333 -25 72zM332 82c0 22 3.99902 43.002 11.999 63.002c4 9.33301 21 39.666 51 90.999l662 1161c22 38 39.667 64 53 78c20.667 20.667 45.334 30.667 74.001 30c34 0 62.667 -10.833 86 -32.5s35 -48.834 35 -81.501
c0 -22 -3.16699 -40.5 -9.5 -55.5s-24.5 -47.833 -54.5 -98.5l-661 -1161c-22 -38 -40 -64 -54 -78c-20.667 -20.667 -45 -31 -73 -31c-34 0 -62.667 11 -86 33s-35 49.333 -35 82zM982.999 258.002c0 19.333 4.66699 39 14 59c4 8 13 23 27 45l317 459
c20.667 31.333 43 52.5 67 63.5s56.333 16.5 97 16.5c54.667 0 97.334 -13.333 128.001 -40s46 -63 46 -109v-379h58c31.333 0 55.166 -9 71.499 -27s24.5 -42.667 24.5 -74c0 -28.667 -8.5 -52.167 -25.5 -70.5s-40.5 -27.5 -70.5 -27.5h-58v-90
c0 -64 -39.333 -96 -118 -96c-35.333 0 -63.333 8.83301 -84 26.5s-31 40.834 -31 69.501v90h-354c-36.667 0 -64 8.16699 -82 24.5s-27 36.166 -27 59.499zM1268 373.002h178v262z" />
    <glyph glyph-name="onehalf" unicode="&#xbd;" horiz-adv-x="1857" 
d="M47 1395c0 26 8.49805 48.833 25.498 68.5s41.167 29.5 72.5 29.5h189c32.667 0 60.334 -8.83301 83.001 -26.5s34 -46.5 34 -86.5v-673c0 -32.667 -10.667 -60.334 -32 -83.001s-49.666 -34 -84.999 -34c-38 0 -67 10.833 -87 32.5s-30 49.834 -30 84.501v587h-72
c-32.667 0 -57.167 9.66699 -73.5 29s-24.5 43.333 -24.5 72zM359.998 82c0 24.667 7.66699 52.001 23 82.001c20.667 34 34.334 58 41.001 72l661 1161c22 38 40 64 54 78c20.667 20.667 45 30.667 73 30c34 0 62.667 -10.833 86 -32.5s35 -48.834 35 -81.501
c0 -22 -3 -40.5 -9 -55.5s-24 -47.833 -54 -98.5l-662 -1161c-22 -38 -39.667 -64 -53 -78c-20.667 -20.667 -45.334 -31 -74.001 -31c-34 0 -62.667 11 -86 33s-35 49.333 -35 82zM1137 86.001c0 34 36 86.6689 108 158.002l203 190
c72.667 75.333 108.667 136.666 108 183.999c0 23.333 -9.5 41.5 -28.5 54.5s-39.5 19.5 -61.5 19.5c-44 0 -76.833 -28 -98.5 -84s-56.834 -84 -105.501 -84c-35.333 0 -62.333 9.33301 -81 28s-28 40.667 -28 66c0 79.333 30.333 146.666 91 201.999s139.667 83 237 83
c88.667 0 162.334 -24.167 221.001 -72.5s88 -113.5 88 -195.5c0 -87.333 -52.667 -185 -158 -293l-145 -143h225c32.667 0 57.167 -9.66699 73.5 -29s24.5 -43.333 24.5 -72c0 -26 -8.5 -48.833 -25.5 -68.5s-41.167 -29.5 -72.5 -29.5h-450
c-34 0 -63.333 7.83301 -88 23.5s-37 36.5 -37 62.5z" />
    <glyph glyph-name="threequarters" unicode="&#xbe;" horiz-adv-x="1826" 
d="M4 827c0 27.333 9.16797 49.999 27.501 67.999s42.5 27 72.5 27c34 0 62.667 -12.333 86 -37c53.333 -56 104 -84 152 -84c27.333 0 51.166 9.5 71.499 28.5s30.5 40.167 30.5 63.5c0 46.667 -36.833 75.334 -110.5 86.001s-110.5 40.667 -110.5 90
c0 45.333 31.5 76.166 94.5 92.499s94.5 42.833 94.5 79.5c0 18 -7.5 31.333 -22.5 40s-35.5 13 -61.5 13c-35.333 0 -70.5 -14.667 -105.5 -44s-68.167 -44 -99.5 -44c-27.333 0 -48.833 9.33301 -64.5 28s-23.5 40 -23.5 64c0 64 34 116 102 156c58.667 34 127 51 205 51
s146 -21.833 204 -65.5s87 -102.167 87 -175.5c0 -34 -9.16699 -66.167 -27.5 -96.5s-47.5 -57.166 -87.5 -80.499c52 -20.667 91.667 -50.667 119 -90s41 -84.333 41 -135c0 -82 -32.167 -147.833 -96.5 -197.5s-144.833 -74.5 -241.5 -74.5c-86 0 -163.5 23.5 -232.5 70.5
s-103.5 102.5 -103.5 166.5zM430.001 81.999c0 24.667 7.66602 52.001 22.999 82.001c20.667 34 34.334 58 41.001 72l661 1161c22 38 39.667 64 53 78c20.667 20.667 45.334 30.667 74.001 30c34 0 62.667 -10.833 86 -32.5s35 -48.834 35 -81.501
c0 -22 -3.16699 -40.5 -9.5 -55.5s-24.5 -47.833 -54.5 -98.5l-661 -1161c-22 -38 -39.667 -64 -53 -78c-20.667 -20.667 -45.334 -31 -74.001 -31c-34 0 -62.667 11 -86 33s-35 49.333 -35 82zM971 258c0 19.333 4.66504 39.001 13.998 59.001c4 8 13 23 27 45l317 459
c32.667 46.667 87.334 70 164.001 70c54.667 0 97.334 -13.333 128.001 -40s46 -63.334 46 -110.001v-368h57c31.333 0 55.333 -9 72 -27s25 -42.667 25 -74c0 -28.667 -8.66699 -52.167 -26 -70.5s-41 -27.5 -71 -27.5h-57v-90c0 -64 -39.667 -96 -119 -96
c-35.333 0 -63.166 8.83301 -83.499 26.5s-30.5 40.834 -30.5 69.501v90h-355c-36.667 0 -63.834 8.16699 -81.501 24.5s-26.5 36.166 -26.5 59.499zM1255 373.001h179v262z" />
    <glyph glyph-name="questiondown" unicode="&#xbf;" horiz-adv-x="899" 
d="M-37 53c0 125.333 33.3311 224.999 99.998 298.999c58.667 64 143.334 107 254.001 129v43c0 48 14.833 86.667 44.5 116s68.167 44 115.5 44c48 0 86.667 -14.667 116 -44s44 -68 44 -116v-166c0 -49.333 -16.333 -84 -49 -104c-20.667 -12 -57.667 -22.833 -111 -32.5
s-93 -26.5 -119 -50.5s-39 -60 -39 -108c0 -34 13.667 -64.667 41 -92s63.666 -41 108.999 -41c62.667 0 118.334 31.167 167.001 93.5s99.334 93.5 152.001 93.5c40.667 0 75.5 -15.667 104.5 -47s43.5 -67.666 43.5 -108.999c0 -108 -52.667 -198 -158 -270
c-94 -64 -197 -96.333 -309 -97c-140.667 0 -258.667 40.333 -354 121c-101.333 86 -152 198.667 -152 338zM298.998 953.999c0 48 17.833 89.8311 53.5 125.498s77.167 53.5 124.5 53.5c48 0 89.667 -17.167 125 -51.5s53 -76.833 53 -127.5
c0 -49.333 -17.667 -91.666 -53 -126.999s-77 -53 -125 -53s-89.667 17.833 -125 53.5s-53 77.834 -53 126.501z" />
    <glyph glyph-name="Agrave" unicode="&#xc0;" horiz-adv-x="1306" 
d="M6 125c0 26 3.16895 52.999 9.50195 80.999s19.5 70 39.5 126l320 870c38 105.333 70.667 176.333 98 213c45.333 60 104.666 90 177.999 90c60 0 109.833 -17.667 149.5 -53s83.5 -118.666 131.5 -249.999l319 -870c22 -58.667 35.667 -101 41 -127s8 -52.667 8 -80
c0 -42 -14.333 -75.333 -43 -100s-67.334 -37 -116.001 -37c-50.667 0 -89.667 15 -117 45c-22 23.333 -41 63 -57 119l-41 131h-545l-41 -131c-18 -54.667 -37 -93.667 -57 -117c-27.333 -31.333 -66.333 -47 -117 -47c-48 0 -86.667 12.5 -116 37.5s-44 58.167 -44 99.5z
M287.002 1837c0 42 11.835 76.333 35.502 103s56.167 40 97.5 40c12 0 26.167 -2 42.5 -6s30.166 -8 41.499 -12l307 -135c50.667 -22 76 -59.667 76 -113c0 -42 -12 -76.333 -36 -103s-56.333 -40 -97 -40c-12 0 -26.333 2 -43 6s-30.334 8 -41.001 12l-308 135
c-50.667 22 -75.667 59.667 -75 113zM479.004 593.999h348l-165 539z" />
    <glyph glyph-name="Aacute" unicode="&#xc1;" horiz-adv-x="1306" 
d="M6 125c0 26 3.16895 52.999 9.50195 80.999s19.5 70 39.5 126l320 870c38 105.333 70.667 176.333 98 213c45.333 60 104.666 90 177.999 90c60 0 109.833 -17.667 149.5 -53s83.5 -118.666 131.5 -249.999l319 -870c22 -58.667 35.667 -101 41 -127s8 -52.667 8 -80
c0 -42 -14.333 -75.333 -43 -100s-67.334 -37 -116.001 -37c-50.667 0 -89.667 15 -117 45c-22 23.333 -41 63 -57 119l-41 131h-545l-41 -131c-18 -54.667 -37 -93.667 -57 -117c-27.333 -31.333 -66.333 -47 -117 -47c-48 0 -86.667 12.5 -116 37.5s-44 58.167 -44 99.5z
M420.002 1714c0 53.333 25.333 91 76 113l307 135c9.33301 4 21.833 8 37.5 12s31.167 6 46.5 6c39.333 0 71.333 -13.667 96 -41s37 -61.333 37 -102c0 -53.333 -25.333 -91 -76 -113l-307 -135c-9.33301 -4 -22 -8 -38 -12s-31.333 -6 -46 -6
c-39.333 0 -71.333 13.667 -96 41s-37 61.333 -37 102zM479.002 593.999h348l-165 539z" />
    <glyph glyph-name="Acircumflex" unicode="&#xc2;" horiz-adv-x="1306" 
d="M6 125c0 26 3.16895 52.999 9.50195 80.999s19.5 70 39.5 126l320 870c38 105.333 70.667 176.333 98 213c45.333 60 104.666 90 177.999 90c60 0 109.833 -17.667 149.5 -53s83.5 -118.666 131.5 -249.999l319 -870c22 -58.667 35.667 -101 41 -127s8 -52.667 8 -80
c0 -42 -14.333 -75.333 -43 -100s-67.334 -37 -116.001 -37c-50.667 0 -89.667 15 -117 45c-22 23.333 -41 63 -57 119l-41 131h-545l-41 -131c-18 -54.667 -37 -93.667 -57 -117c-27.333 -31.333 -66.333 -47 -117 -47c-48 0 -86.667 12.5 -116 37.5s-44 58.167 -44 99.5z
M238.002 1696c0 44 7.16895 75.834 21.502 95.501s43.166 39.5 86.499 59.5l180 84l64 27c31.333 12 52.333 18 63 18c13.333 0 32.5 -5 57.5 -15s48.167 -20 69.5 -30l181 -84c40.667 -19.333 68.834 -39.833 84.501 -61.5s23.5 -52.834 23.5 -93.501
c0 -35.333 -10.5 -65 -31.5 -89s-46.5 -36 -76.5 -36c-20.667 0 -36.834 1.66699 -48.501 5s-32.5 12 -62.5 26l-197 92l-196 -92c-18 -8 -36.5 -15.167 -55.5 -21.5s-37.5 -9.5 -55.5 -9.5c-28.667 0 -53.834 11.5 -75.501 34.5s-32.5 53.167 -32.5 90.5zM479.004 594h348
l-165 539z" />
    <glyph glyph-name="Atilde" unicode="&#xc3;" horiz-adv-x="1306" 
d="M6 125c0 26 3.16895 52.999 9.50195 80.999s19.5 70 39.5 126l320 870c38 105.333 70.667 176.333 98 213c45.333 60 104.666 90 177.999 90c60 0 109.833 -17.667 149.5 -53s83.5 -118.666 131.5 -249.999l319 -870c22 -58.667 35.667 -101 41 -127s8 -52.667 8 -80
c0 -42 -14.333 -75.333 -43 -100s-67.334 -37 -116.001 -37c-50.667 0 -89.667 15 -117 45c-22 23.333 -41 63 -57 119l-41 131h-545l-41 -131c-18 -54.667 -37 -93.667 -57 -117c-27.333 -31.333 -66.333 -47 -117 -47c-48 0 -86.667 12.5 -116 37.5s-44 58.167 -44 99.5z
M217.002 1704c0 56 20.834 107.499 62.501 154.499s89.834 70.5 144.501 70.5c48 0 101.333 -10.333 160 -31c131.333 -45.333 200.333 -67.666 207 -66.999c24.667 0 48.334 10.333 71.001 31c50.667 45.333 87 67.666 109 66.999c36.667 0 65.667 -12.667 87 -38
s32 -57 32 -95c0 -56 -20.833 -107.5 -62.5 -154.5s-89.834 -70.5 -144.501 -70.5c-58.667 0 -129.334 16 -212.001 48s-134.334 48 -155.001 48c-26 0 -50 -9.66699 -72 -29c-52 -45.333 -88 -67.666 -108 -66.999c-36.667 0 -65.667 12.667 -87 38s-32 57 -32 95z
M479.003 593.998h348l-165 539z" />
    <glyph glyph-name="Adieresis" unicode="&#xc4;" horiz-adv-x="1306" 
d="M6 125c0 26 3.16895 52.999 9.50195 80.999s19.5 70 39.5 126l320 870c38 105.333 70.667 176.333 98 213c45.333 60 104.666 90 177.999 90c60 0 109.833 -17.667 149.5 -53s83.5 -118.666 131.5 -249.999l319 -870c22 -58.667 35.667 -101 41 -127s8 -52.667 8 -80
c0 -42 -14.333 -75.333 -43 -100s-67.334 -37 -116.001 -37c-50.667 0 -89.667 15 -117 45c-22 23.333 -41 63 -57 119l-41 131h-545l-41 -131c-18 -54.667 -37 -93.667 -57 -117c-27.333 -31.333 -66.333 -47 -117 -47c-48 0 -86.667 12.5 -116 37.5s-44 58.167 -44 99.5z
M256.002 1776c0 44 15.334 81.834 46.001 113.501s68.667 47.5 114 47.5c44 0 81.5 -15.5 112.5 -46.5s46.5 -69.167 46.5 -114.5c0 -44 -15.333 -82 -46 -114s-68.334 -48 -113.001 -48c-44 0 -81.667 15.667 -113 47s-47 69.666 -47 114.999zM479.003 594h348l-165 539z
M731.003 1776c0 44 15.333 81.834 46 113.501s68.667 47.5 114 47.5c44 0 81.667 -15.5 113 -46.5s47 -69.167 47 -114.5c0 -44 -15.5 -82 -46.5 -114s-68.833 -48 -113.5 -48c-44 0 -81.667 15.667 -113 47s-47 69.666 -47 114.999z" />
    <glyph glyph-name="Aring" unicode="&#xc5;" horiz-adv-x="1306" 
d="M6 125c0 26 3.16895 52.999 9.50195 80.999s19.5 70 39.5 126l320 870c38 105.333 70.667 176.333 98 213c45.333 60 104.666 90 177.999 90c60 0 109.833 -17.667 149.5 -53s83.5 -118.666 131.5 -249.999l319 -870c22 -58.667 35.667 -101 41 -127s8 -52.667 8 -80
c0 -42 -14.333 -75.333 -43 -100s-67.334 -37 -116.001 -37c-50.667 0 -89.667 15 -117 45c-22 23.333 -41 63 -57 119l-41 131h-545l-41 -131c-18 -54.667 -37 -93.667 -57 -117c-27.333 -31.333 -66.333 -47 -117 -47c-48 0 -86.667 12.5 -116 37.5s-44 58.167 -44 99.5z
M451.002 1753c0 54.667 19.667 102.5 59 143.5s87 61.5 143 61.5s103.833 -19.833 143.5 -59.5s59.5 -88.167 59.5 -145.5c0 -56 -19.833 -104.5 -59.5 -145.5s-87.5 -61.5 -143.5 -61.5s-103.667 20.5 -143 61.5s-59 89.5 -59 145.5zM479.002 593.999h348l-165 539z
M561.002 1753c0 -24.667 8.83301 -46.5 26.5 -65.5s39.5 -28.5 65.5 -28.5c24.667 0 46.167 9.16699 64.5 27.5s27.5 40.5 27.5 66.5c0 24.667 -9.16699 46.167 -27.5 64.5s-39.833 27.5 -64.5 27.5s-46.167 -9.16699 -64.5 -27.5s-27.5 -39.833 -27.5 -64.5z" />
    <glyph glyph-name="AE" unicode="&#xc6;" horiz-adv-x="1841" 
d="M55 152c0 28.667 4.16797 54.499 12.501 77.499s19.166 46.167 32.499 69.5l596 1024c38 64 75.167 105 111.5 123s93.5 27 171.5 27h627c53.333 0 94.333 -13.667 123 -41s43 -65.666 43 -114.999c0 -48 -14.333 -85.667 -43 -113s-69.667 -41 -123 -41h-342v-268h313
c52 0 92.667 -13.667 122 -41s44 -65 44 -113c0 -104 -55.333 -155.667 -166 -155h-313v-275h356c53.333 0 94.333 -13.667 123 -41s43 -65.333 43 -114c0 -48 -14.667 -86 -44 -114s-70 -42 -122 -42h-522c-45.333 0 -84.333 15 -117 45s-49 71 -49 123v115h-465l-64 -127
c-32.667 -64 -57 -105 -73 -123c-28.667 -30 -71.667 -45 -129 -45c-44 0 -79.333 14.667 -106 44s-40 69.333 -40 120zM633.001 593.999h299v565z" />
    <glyph glyph-name="Ccedilla" unicode="&#xc7;" horiz-adv-x="1191" 
d="M8 737c0 225.333 66.167 409.667 198.5 553s307.166 215 524.499 215c120 0 218.333 -16.333 295 -49c96.667 -40.667 145 -102 145 -184c0 -42 -13.167 -79.167 -39.5 -111.5s-60.833 -48.5 -103.5 -48.5c-13.333 0 -66.666 15.667 -159.999 47
c-49.333 16.667 -92.333 25 -129 25c-125.333 0 -220.666 -45.667 -285.999 -137c-58.667 -82 -88 -185.333 -88 -310c0 -124 30.333 -227.667 91 -311s145.667 -125 255 -125c68 0 126.167 7.5 174.5 22.5l150.5 47.5c57.333 0 98.333 -20.667 123 -62
c16.667 -27.333 25 -58.666 25 -93.999c0 -83.333 -53.333 -147.333 -160 -192c-87.333 -36.667 -187 -55.334 -299 -56.001c-222.667 0 -399.334 75.333 -530.001 226c-124 142 -186.333 323.333 -187 544zM393 -361.999c0 16.667 5.16797 32.668 15.501 48.001
s23.833 23 40.5 23c13.333 0 36.333 -6.66699 69 -20c19.333 -8 34.333 -12.333 45 -13c19.333 0 35.833 6.16699 49.5 18.5s20.5 28.833 20.5 49.5c0 19.333 -6.83301 33.666 -20.5 42.999s-28.167 14 -43.5 14h-41c-12 0 -22.833 4.83301 -32.5 14.5
s-14.5 20.5 -14.5 32.5c0 16.667 6.33301 34.667 19 54c5.33301 8 17.666 23.667 36.999 47l43 51h141l-80 -109l49 3c48 0 87.333 -14.833 118 -44.5s46 -69.5 46 -119.5c0 -58.667 -29.333 -106 -88 -142c-50.667 -31.333 -106.667 -47 -168 -47c-52 0 -93.667 5 -125 15
c-53.333 16.667 -80 44 -80 82z" />
    <glyph glyph-name="Egrave" unicode="&#xc8;" horiz-adv-x="931" 
d="M41 168v1137c0 53.333 16 94.666 48 123.999s71.333 44 118 44h508c53.333 0 94.333 -13.667 123 -41s43 -65.666 43 -114.999c0 -48 -14.333 -85.667 -43 -113s-69.667 -41 -123 -41h-342v-268h313c52 0 92.667 -13.667 122 -41s44 -65 44 -113
c0 -104 -55.333 -155.667 -166 -155h-313v-275h354c53.333 0 94.333 -13.667 123 -41s43 -65.333 43 -114c0 -48 -14.667 -86 -44 -114s-70 -42 -122 -42h-520c-45.333 0 -84.333 15 -117 45s-49 71 -49 123zM70 1837c0 42 11.835 76.333 35.502 103s56.167 40 97.5 40
c12 0 26.167 -2 42.5 -6s30.166 -8 41.499 -12l307 -135c50.667 -23.333 76 -61 76 -113c0 -42 -12 -76.333 -36 -103s-56.333 -40 -97 -40c-12 0 -26.333 2 -43 6s-30.334 8 -41.001 12l-308 135c-50.667 22 -75.667 59.667 -75 113z" />
    <glyph glyph-name="Eacute" unicode="&#xc9;" horiz-adv-x="931" 
d="M41 168v1137c0 53.333 16 94.666 48 123.999s71.333 44 118 44h508c53.333 0 94.333 -13.667 123 -41s43 -65.666 43 -114.999c0 -48 -14.333 -85.667 -43 -113s-69.667 -41 -123 -41h-342v-268h313c52 0 92.667 -13.667 122 -41s44 -65 44 -113
c0 -104 -55.333 -155.667 -166 -155h-313v-275h354c53.333 0 94.333 -13.667 123 -41s43 -65.333 43 -114c0 -48 -14.667 -86 -44 -114s-70 -42 -122 -42h-520c-45.333 0 -84.333 15 -117 45s-49 71 -49 123zM203 1714c0 53.333 25.333 91 76 113l307 135
c9.33301 4 21.833 8 37.5 12s31.167 6 46.5 6c39.333 0 71.333 -13.667 96 -41s37 -61.333 37 -102c0 -52 -25.333 -89.667 -76 -113l-307 -135c-9.33301 -4 -22 -8 -38 -12s-31.333 -6 -46 -6c-39.333 0 -71.333 13.667 -96 41s-37 61.333 -37 102z" />
    <glyph glyph-name="Ecircumflex" unicode="&#xca;" horiz-adv-x="931" 
d="M31 1696c0 44 7.16895 75.834 21.502 95.501s43.166 39.5 86.499 59.5l180 84l64 27c31.333 12 52.333 18 63 18c13.333 0 32.5 -5 57.5 -15s48.167 -20 69.5 -30l181 -84c40.667 -19.333 68.834 -39.833 84.501 -61.5s23.5 -52.834 23.5 -93.501
c0 -35.333 -10.5 -65 -31.5 -89s-46.5 -36 -76.5 -36c-20.667 0 -36.834 1.66699 -48.501 5s-32.5 12 -62.5 26l-197 92l-196 -92c-18 -8 -36.5 -15.167 -55.5 -21.5s-37.5 -9.5 -55.5 -9.5c-28.667 0 -53.834 11.5 -75.501 34.5s-32.5 53.167 -32.5 90.5zM51.002 168.001
v1137c0 53.333 16 94.666 48 123.999s71.333 44 118 44h508c53.333 0 94.333 -13.667 123 -41s43 -65.666 43 -114.999c0 -48 -14.333 -85.667 -43 -113s-69.667 -41 -123 -41h-342v-268h313c52 0 92.667 -13.667 122 -41s44 -65 44 -113c0 -104 -55.333 -155.667 -166 -155
h-313v-275h354c53.333 0 94.333 -13.667 123 -41s43 -65.333 43 -114c0 -48 -14.667 -86 -44 -114s-70 -42 -122 -42h-520c-45.333 0 -84.333 15 -117 45s-49 71 -49 123z" />
    <glyph glyph-name="Edieresis" unicode="&#xcb;" horiz-adv-x="931" 
d="M39 1776c0 44 15.334 81.834 46.001 113.501s68.667 47.5 114 47.5c44 0 81.5 -15.5 112.5 -46.5s46.5 -69.167 46.5 -114.5c0 -44 -15.333 -82 -46 -114s-68.334 -48 -113.001 -48c-44 0 -81.667 15.667 -113 47s-47 69.666 -47 114.999zM41.001 168.001v1137
c0 53.333 16 94.666 48 123.999s71.333 44 118 44h508c53.333 0 94.333 -13.667 123 -41s43 -65.666 43 -114.999c0 -48 -14.333 -85.667 -43 -113s-69.667 -41 -123 -41h-342v-268h313c52 0 92.667 -13.667 122 -41s44 -65 44 -113c0 -104 -55.333 -155.667 -166 -155h-313
v-275h354c53.333 0 94.333 -13.667 123 -41s43 -65.333 43 -114c0 -48 -14.667 -86 -44 -114s-70 -42 -122 -42h-520c-45.333 0 -84.333 15 -117 45s-49 71 -49 123zM514.001 1776c0 44 15.333 81.834 46 113.501s68.667 47.5 114 47.5c44 0 81.667 -15.5 113 -46.5
s47 -69.167 47 -114.5c0 -44 -15.5 -82 -46.5 -114s-68.833 -48 -113.5 -48c-44 0 -81.667 15.667 -113 47s-47 69.666 -47 114.999z" />
    <glyph glyph-name="Igrave" unicode="&#xcc;" horiz-adv-x="636" 
d="M18 1837c0 42 12 76.333 36 103s56.667 40 98 40c12 0 26.167 -2 42.5 -6s30.166 -8 41.499 -12l307 -135c50.667 -22 75.667 -59.667 75 -113c0 -42 -11.833 -76.333 -35.5 -103s-56.167 -40 -97.5 -40c-12 0 -26.167 2 -42.5 6s-30.166 8 -41.499 12l-307 135
c-50.667 22 -76 59.667 -76 113zM219 166v1141c0 57.333 15.333 101.333 46 132s70.667 46 120 46c50.667 0 91 -15 121 -45s45 -74.333 45 -133v-1141c0 -57.333 -15.333 -101.333 -46 -132s-70.667 -46 -120 -46c-50.667 0 -91 15 -121 45s-45 74.333 -45 133z" />
    <glyph glyph-name="Iacute" unicode="&#xcd;" horiz-adv-x="491" 
d="M-55 1714c0 52 25 89.667 75 113l308 135c9.33301 4 21.833 8 37.5 12s31.167 6 46.5 6c39.333 0 71.333 -13.667 96 -41s37 -61.333 37 -102c0 -53.333 -25.333 -91 -76 -113l-307 -135c-9.33301 -4 -22 -8 -38 -12s-31.333 -6 -46 -6c-39.333 0 -71.333 13.667 -96 41
s-37 61.333 -37 102zM12 166v1141c0 57.333 15.333 101.333 46 132s70.667 46 120 46c50.667 0 91 -15 121 -45s45 -74.333 45 -133v-1141c0 -57.333 -15.333 -101.333 -46 -132s-70.667 -46 -120 -46c-50.667 0 -91 15 -121 45s-45 74.333 -45 133z" />
    <glyph glyph-name="Icircumflex" unicode="&#xce;" horiz-adv-x="483" 
d="M-174 1696c0 44 7.16992 75.834 21.5029 95.501s43.166 39.5 86.499 59.5l181 84l63 27c31.333 12 52.666 18 63.999 18c13.333 0 32.333 -5 57 -15s48 -20 70 -30l180 -84c40.667 -19.333 68.834 -39.833 84.501 -61.5s23.5 -52.834 23.5 -93.501
c0 -35.333 -10.5 -65 -31.5 -89s-46.5 -36 -76.5 -36c-20.667 0 -36.834 1.66699 -48.501 5s-32.5 12 -62.5 26l-196 92l-197 -92c-18 -8 -36.5 -15.167 -55.5 -21.5s-37.5 -9.5 -55.5 -9.5c-28.667 0 -53.834 11.5 -75.501 34.5s-32.5 53.167 -32.5 90.5zM76.0029 166.001
v1141c0 57.333 15.333 101.333 46 132s70.667 46 120 46c50.667 0 91 -15 121 -45s45 -74.333 45 -133v-1141c0 -57.333 -15.5 -101.333 -46.5 -132s-70.833 -46 -119.5 -46c-50.667 0 -91 15 -121 45s-45 74.333 -45 133z" />
    <glyph glyph-name="Idieresis" unicode="&#xcf;" horiz-adv-x="483" 
d="M-156 1776c0 44 15.5 81.834 46.5 113.501s68.833 47.5 113.5 47.5c44 0 81.667 -15.5 113 -46.5s47 -69.167 47 -114.5c0 -44 -15.333 -82 -46 -114s-68.667 -48 -114 -48c-44 0 -81.667 15.667 -113 47s-47 69.666 -47 114.999zM76 166.001v1141
c0 57.333 15.333 101.333 46 132s70.667 46 120 46c50.667 0 91 -15 121 -45s45 -74.333 45 -133v-1141c0 -57.333 -15.5 -101.333 -46.5 -132s-70.833 -46 -119.5 -46c-50.667 0 -91 15 -121 45s-45 74.333 -45 133zM319 1776c0 44 15.5 81.834 46.5 113.501
s68.833 47.5 113.5 47.5c44 0 81.667 -15.5 113 -46.5s47 -69.167 47 -114.5c0 -44 -15.333 -82 -46 -114s-68.667 -48 -114 -48c-44 0 -81.667 15.667 -113 47s-47 69.666 -47 114.999z" />
    <glyph glyph-name="Eth" unicode="&#xd0;" horiz-adv-x="1513" 
d="M43 748c0 39.333 11.668 70.668 35.001 94.001s54.666 35 93.999 35h55v428c0 53.333 16.167 94.666 48.5 123.999s71.5 44 117.5 44h398c207.333 0 374.333 -74 501 -222c118.667 -138 178 -305.667 178 -503c0 -232 -68 -417 -204 -555
c-126.667 -128.667 -285 -193 -475 -193h-398c-45.333 0 -84.333 15 -117 45s-49 71 -49 123v448h-55c-86 0 -129 44 -129 132zM559.001 311.002l176.002 0.000976562c125.333 0 221 40.333 287 121c61.333 75.333 92 180.666 92 315.999c0 128.667 -30 229 -90 301
c-64 76.667 -155.333 114.667 -274 114h-191v-286h168c39.333 0 70.666 -11.667 93.999 -35s35 -54.666 35 -93.999c0 -40.667 -10.833 -72.834 -32.5 -96.501s-53.834 -35.5 -96.501 -35.5h-168v-305z" />
    <glyph glyph-name="Ntilde" unicode="&#xd1;" horiz-adv-x="1433" 
d="M76 166v1141c0 57.333 15.333 101.333 46 132s70.667 46 120 46s93 -20 131 -60c13.333 -13.333 46 -53.333 98 -120l551 -697l4 699c0 57.333 15.333 101.333 46 132s70.667 46 120 46c50.667 0 91 -15 121 -45s45 -74.333 45 -133v-1141
c0 -57.333 -15.333 -101.333 -46 -132s-70.667 -46 -120 -46c-48 0 -91.667 20.333 -131 61c-15.333 16.667 -48 56.334 -98 119.001l-551 696l-4 -698c0 -57.333 -15.5 -101.333 -46.5 -132s-70.833 -46 -119.5 -46c-50.667 0 -91 15 -121 45s-45 74.333 -45 133zM281 1704
c0 56 20.6689 107.499 62.002 154.499s89.333 70.5 144 70.5c48 0 101.333 -10.333 160 -31c131.333 -45.333 200.333 -67.666 207 -66.999c24.667 0 48.667 10.333 72 31c50.667 45.333 86.667 67.666 108 66.999c36.667 0 65.667 -12.667 87 -38s32 -57 32 -95
c0 -56 -20.833 -107.5 -62.5 -154.5s-89.834 -70.5 -144.501 -70.5c-58.667 0 -129.334 16 -212.001 48s-134 48 -154 48c-26 0 -50 -9.66699 -72 -29c-52 -45.333 -88.333 -67.666 -109 -66.999c-36.667 0 -65.5 12.667 -86.5 38s-31.5 57 -31.5 95z" />
    <glyph glyph-name="Ograve" unicode="&#xd2;" horiz-adv-x="1607" 
d="M88 737c0 232 65.168 417.999 195.501 557.999s304.166 210 521.499 210c216 0 389.5 -69.667 520.5 -209s196.5 -325.666 196.5 -558.999s-65.333 -420 -196 -560s-304.334 -210 -521.001 -210c-217.333 0 -391.166 70 -521.499 210s-195.5 326.667 -195.5 560z
M438.001 1837c0 42 11.998 76.333 35.998 103s56.333 40 97 40c12 0 26.333 -2 43 -6s30.334 -8 41.001 -12l308 -135c50.667 -23.333 75.667 -61 75 -113c0 -42 -11.833 -76.333 -35.5 -103s-56.167 -40 -97.5 -40c-12 0 -26.167 2 -42.5 6s-30.166 8 -41.499 12l-307 135
c-50.667 22 -76 59.667 -76 113zM443.999 736.999c0 -130 28 -236.332 84 -318.999c64 -94 156.333 -141.333 277 -142c120 0 212 47.333 276 142c56 83.333 84 189.666 84 318.999c0 128.667 -28 234.667 -84 318c-64 94 -156 141 -276 141s-212.333 -47 -277 -141
c-56 -82 -84 -188 -84 -318z" />
    <glyph glyph-name="Oacute" unicode="&#xd3;" horiz-adv-x="1513" 
d="M41 737c0 232 65.168 417.999 195.501 557.999s304.166 210 521.499 210c216 0 389.5 -69.667 520.5 -209s196.5 -325.666 196.5 -558.999s-65.333 -420 -196 -560s-304.334 -210 -521.001 -210c-217.333 0 -391.166 70 -521.499 210s-195.5 326.667 -195.5 560z
M397.001 736.999c0 -130 28 -236.332 84 -318.999c64 -94 156.333 -141.333 277 -142c120 0 212 47.333 276 142c56 83.333 84 189.666 84 318.999c0 128.667 -28 234.667 -84 318c-64 94 -156 141 -276 141s-212.333 -47 -277 -141c-56 -82 -84 -188 -84 -318z
M524.001 1714c0 53.333 25.333 91 76 113l307 135c9.33301 4 22 8 38 12s31.333 6 46 6c39.333 0 71.333 -13.667 96 -41s37 -61.333 37 -102c0 -52 -25 -89.667 -75 -113l-308 -135c-9.33301 -4 -21.833 -8 -37.5 -12s-31.167 -6 -46.5 -6c-39.333 0 -71.333 13.667 -96 41
s-37 61.333 -37 102z" />
    <glyph glyph-name="Ocircumflex" unicode="&#xd4;" horiz-adv-x="1513" 
d="M41 737c0 232 65.168 417.999 195.501 557.999s304.166 210 521.499 210c216 0 389.5 -69.667 520.5 -209s196.5 -325.666 196.5 -558.999s-65.333 -420 -196 -560s-304.334 -210 -521.001 -210c-217.333 0 -391.166 70 -521.499 210s-195.5 326.667 -195.5 560z
M342.001 1696c0 44 7.16797 75.834 21.501 95.501s43.5 39.5 87.5 59.5l180 84c12 5.33301 33.333 14.166 64 26.499s51.667 18.5 63 18.5c13.333 0 32.333 -5 57 -15s48 -20 70 -30l180 -84c40.667 -19.333 69 -39.5 85 -60.5s24 -52.5 24 -94.5
c0 -35.333 -10.667 -65 -32 -89s-47 -36 -77 -36c-20.667 0 -37.834 2 -51.501 6s-33.5 12.333 -59.5 25l-196 92l-197 -92c-18 -8 -36.5 -15.167 -55.5 -21.5s-37.167 -9.5 -54.5 -9.5c-28.667 0 -54 11.5 -76 34.5s-33 53.167 -33 90.5zM397.002 737
c0 -130 28 -236.332 84 -318.999c64 -94 156.333 -141.333 277 -142c120 0 212 47.333 276 142c56 83.333 84 189.666 84 318.999c0 128.667 -28 234.667 -84 318c-64 94 -156 141 -276 141s-212.333 -47 -277 -141c-56 -82 -84 -188 -84 -318z" />
    <glyph glyph-name="Otilde" unicode="&#xd5;" horiz-adv-x="1513" 
d="M41 737c0 232 65.168 417.999 195.501 557.999s304.166 210 521.499 210c216 0 389.5 -69.667 520.5 -209s196.5 -325.666 196.5 -558.999s-65.333 -420 -196 -560s-304.334 -210 -521.001 -210c-217.333 0 -391.166 70 -521.499 210s-195.5 326.667 -195.5 560z
M322.001 1704c0 56 20.6689 107.499 62.002 154.499s89.333 70.5 144 70.5c48 0 101.333 -10.333 160 -31c131.333 -45.333 200.333 -67.666 207 -66.999c24.667 0 48.667 10.333 72 31c50.667 45.333 86.667 67.666 108 66.999c36.667 0 65.667 -12.667 87 -38
s32 -57 32 -95c0 -56 -20.833 -107.5 -62.5 -154.5s-89.834 -70.5 -144.501 -70.5c-58.667 0 -129.334 16 -212.001 48s-134 48 -154 48c-26 0 -50 -9.66699 -72 -29c-52 -45.333 -88.333 -67.666 -109 -66.999c-36.667 0 -65.5 12.667 -86.5 38s-31.5 57 -31.5 95z
M397.003 736.998c0 -130 28 -236.332 84 -318.999c64 -94 156.333 -141.333 277 -142c120 0 212 47.333 276 142c56 83.333 84 189.666 84 318.999c0 128.667 -28 234.667 -84 318c-64 94 -156 141 -276 141s-212.333 -47 -277 -141c-56 -82 -84 -188 -84 -318z" />
    <glyph glyph-name="Odieresis" unicode="&#xd6;" horiz-adv-x="1607" 
d="M86 737c0 232 65.168 417.999 195.501 557.999s304.166 210 521.499 210c216 0 389.5 -69.667 520.5 -209s196.5 -325.666 196.5 -558.999s-65.333 -420 -196 -560s-304.334 -210 -521.001 -210c-217.333 0 -391.166 70 -521.499 210s-195.5 326.667 -195.5 560z
M406.001 1776c0 44 15.332 81.834 45.999 113.501s68.334 47.5 113.001 47.5c44 0 81.667 -15.5 113 -46.5s47 -69.167 47 -114.5c0 -44 -15.333 -82 -46 -114s-68.667 -48 -114 -48c-44 0 -81.5 15.667 -112.5 47s-46.5 69.666 -46.5 114.999zM442 737
c0 -130 28 -236.332 84 -318.999c64 -94 156.333 -141.333 277 -142c120 0 212 47.333 276 142c56 83.333 84 189.666 84 318.999c0 128.667 -28 234.667 -84 318c-64 94 -156 141 -276 141s-212.333 -47 -277 -141c-56 -82 -84 -188 -84 -318zM881 1776
c0 44 15.332 81.834 45.999 113.501s68.334 47.5 113.001 47.5c44 0 81.667 -15.5 113 -46.5s47 -69.167 47 -114.5c0 -44 -15.333 -82 -46 -114s-68.667 -48 -114 -48c-44 0 -81.5 15.667 -112.5 47s-46.5 69.666 -46.5 114.999z" />
    <glyph glyph-name="multiply" unicode="&#xd7;" horiz-adv-x="1284" 
d="M137 215c0 31.333 12.334 59.333 37.001 84l283 287l-283 282c-24.667 24.667 -37 51.334 -37 80.001c0 34 16 67.167 48 99.5s63.333 48.5 94 48.5c27.333 0 54.333 -13.667 81 -41l283 -283l283 283c12 12 24.833 21.833 38.5 29.5s28.834 11.5 45.501 11.5
s31 -3.83301 43 -11.5s28.333 -20.167 49 -37.5c31.333 -28.667 47 -62.334 47 -101.001c0 -15.333 -3.5 -29 -10.5 -41s-16.5 -24.333 -28.5 -37l-283 -282l283 -287c26 -26 39 -53.333 39 -82c0 -18 -3.83301 -33.667 -11.5 -47s-19.5 -29 -35.5 -47
c-32.667 -32.667 -65.334 -49 -98.001 -49c-27.333 0 -53.333 13.667 -78 41l-283 284l-283 -284c-10.667 -10.667 -22.834 -20.167 -36.501 -28.5s-27.167 -12.5 -40.5 -12.5c-32.667 0 -65.667 16.333 -99 49c-16.667 16.667 -28.667 31.667 -36 45s-11 29 -11 47z" />
    <glyph glyph-name="Oslash" unicode="&#xd8;" horiz-adv-x="1611" 
d="M57 0c0 22 5.00488 41.667 15.0049 59c4 8 15.333 23 34 45l125 138c-95.333 134 -143 299 -143 495c0 232 65.167 418 195.5 558s304.166 210 521.499 210c173.333 0 319.333 -45 438 -135l127 141c13.333 15.333 23.666 25.666 30.999 30.999
c18 15.333 36.333 23 55 23c27.333 0 50.166 -7.83301 68.499 -23.5s27.5 -36.5 27.5 -62.5c0 -23.333 -3.66699 -41.5 -11 -54.5s-20 -29.167 -38 -48.5l-127 -141c46.667 -64 82.667 -138.667 108 -224s38 -176.666 38 -273.999c0 -233.333 -65.333 -420 -196 -560
s-304.334 -210 -521.001 -210c-174.667 0 -321.334 46.333 -440.001 139l-125 -139c-15.333 -18 -29.5 -31 -42.5 -39s-27.5 -12 -43.5 -12c-28.667 0 -52 7.5 -70 22.5s-27 35.5 -27 61.5zM444.005 737c0 -39.333 2.83301 -77.167 8.5 -113.5s15.167 -70.833 28.5 -103.5
l539 600c-57.333 50.667 -129 76 -215 76c-120 0 -212.333 -47 -277 -141c-56 -82 -84 -188 -84 -318zM588.005 353.999c27.333 -26 58.667 -45.499 94 -58.499s76.333 -19.5 123 -19.5c120 0 212 47.333 276 142c56 83.333 84 189.666 84 318.999
c0 79.333 -12.333 153 -37 221z" />
    <glyph glyph-name="Ugrave" unicode="&#xd9;" horiz-adv-x="1388" 
d="M61 592l0.00195312 715c0 57.333 15.5 101.333 46.5 132s70.833 46 119.5 46c50.667 0 91 -15 121 -45s45 -74.333 45 -133v-715c0 -94 29.333 -169 88 -225c54.667 -52 125 -78 211 -78c84.667 0 156 27 214 81s87 128 87 222v715c0 57.333 15.333 101.333 46 132
s70.667 46 120 46c50.667 0 91 -15 121 -45s45 -74.333 45 -133v-715c0 -191.333 -58.333 -343.333 -175 -456s-269.334 -169 -458.001 -169c-187.333 0 -338 55.333 -452 166c-118.667 114.667 -178.334 267.667 -179.001 459zM328.002 1837c0 42 11.835 76.333 35.502 103
s56.167 40 97.5 40c12 0 26.167 -2 42.5 -6s30.166 -8 41.499 -12l307 -135c50.667 -22 76 -59.667 76 -113c0 -42 -12 -76.333 -36 -103s-56.333 -40 -97 -40c-12 0 -26.333 2 -43 6s-30.334 8 -41.001 12l-308 135c-50.667 23.333 -75.667 61 -75 113z" />
    <glyph glyph-name="Uacute" unicode="&#xda;" horiz-adv-x="1388" 
d="M61 592l0.00195312 715c0 57.333 15.5 101.333 46.5 132s70.833 46 119.5 46c50.667 0 91 -15 121 -45s45 -74.333 45 -133v-715c0 -94 29.333 -169 88 -225c54.667 -52 125 -78 211 -78c84.667 0 156 27 214 81s87 128 87 222v715c0 57.333 15.333 101.333 46 132
s70.667 46 120 46c50.667 0 91 -15 121 -45s45 -74.333 45 -133v-715c0 -191.333 -58.333 -343.333 -175 -456s-269.334 -169 -458.001 -169c-187.333 0 -338 55.333 -452 166c-118.667 114.667 -178.334 267.667 -179.001 459zM461.002 1714c0 52 25.333 89.667 76 113
l307 135c9.33301 4 21.833 8 37.5 12s31.167 6 46.5 6c39.333 0 71.333 -13.667 96 -41s37 -61.333 37 -102c0 -53.333 -25.333 -91 -76 -113l-307 -135c-9.33301 -4 -22 -8 -38 -12s-31.333 -6 -46 -6c-39.333 0 -71.333 13.667 -96 41s-37 61.333 -37 102z" />
    <glyph glyph-name="Ucircumflex" unicode="&#xdb;" horiz-adv-x="1388" 
d="M61 592l0.00195312 715c0 57.333 15.5 101.333 46.5 132s70.833 46 119.5 46c50.667 0 91 -15 121 -45s45 -74.333 45 -133v-715c0 -94 29.333 -169 88 -225c54.667 -52 125 -78 211 -78c84.667 0 156 27 214 81s87 128 87 222v715c0 57.333 15.333 101.333 46 132
s70.667 46 120 46c50.667 0 91 -15 121 -45s45 -74.333 45 -133v-715c0 -191.333 -58.333 -343.333 -175 -456s-269.334 -169 -458.001 -169c-187.333 0 -338 55.333 -452 166c-118.667 114.667 -178.334 267.667 -179.001 459zM279.002 1696
c0 42 7.83301 73.668 23.5 95.001s43.834 41.333 84.501 60l180 84l64 27c31.333 12 52.333 18 63 18c15.333 0 36.666 -5.33301 63.999 -16c9.33301 -4 30.333 -13.667 63 -29l180 -84c40.667 -19.333 69 -39.833 85 -61.5s24 -52.834 24 -93.501
c0 -35.333 -10.5 -65 -31.5 -89s-46.833 -36 -77.5 -36c-20.667 0 -36.667 1.66699 -48 5s-32 12 -62 26l-197 92l-196 -92c-18 -8 -36.167 -15.167 -54.5 -21.5s-37.166 -9.5 -56.499 -9.5c-28.667 0 -53.834 11.5 -75.501 34.5s-32.5 53.167 -32.5 90.5z" />
    <glyph glyph-name="Udieresis" unicode="&#xdc;" horiz-adv-x="1480" 
d="M109 592v715c0 57.333 15.333 101.333 46 132s70.334 46 119.001 46c50.667 0 91 -15 121 -45s45 -74.333 45 -133v-715c0 -94 29.333 -169 88 -225c54.667 -52 125 -78 211 -78c84.667 0 156 27 214 81s87 128 87 222v715c0 57.333 15.5 101.333 46.5 132
s70.833 46 119.5 46c50.667 0 91 -15 121 -45s45 -74.333 45 -133v-715c0 -191.333 -58.333 -343.333 -175 -456s-269.334 -169 -458.001 -169c-187.333 0 -338 55.333 -452 166c-118.667 114.667 -178 267.667 -178 459zM344 1776c0 44 15.333 81.834 46 113.501
s68.667 47.5 114 47.5c44 0 81.667 -15.5 113 -46.5s47 -69.167 47 -114.5c0 -44 -15.5 -82 -46.5 -114s-68.833 -48 -113.5 -48c-44 0 -81.667 15.667 -113 47s-47 69.666 -47 114.999zM819 1776c0 44 15.333 81.834 46 113.501s68.667 47.5 114 47.5
c44 0 81.667 -15.5 113 -46.5s47 -69.167 47 -114.5c0 -44 -15.333 -82 -46 -114s-68.667 -48 -114 -48c-44 0 -81.667 15.667 -113 47s-47 69.666 -47 114.999z" />
    <glyph glyph-name="Yacute" unicode="&#xdd;" horiz-adv-x="1230" 
d="M25 1335c0 44 16.668 79.999 50.001 107.999s75.333 42 126 42c39.333 0 74 -12.333 104 -37c19.333 -15.333 40.666 -40.666 63.999 -75.999l245 -354l246 354c26 36.667 46.667 61.334 62 74.001c31.333 26 66.666 39 105.999 39c50.667 0 92.667 -13.667 126 -41
s50 -63.666 50 -108.999c0 -32.667 -7.83301 -63.334 -23.5 -92.001s-53.5 -83.334 -113.5 -164.001l-287 -389v-524c0 -57.333 -15.333 -101.333 -46 -132s-70.667 -46 -120 -46c-50.667 0 -90.834 15 -120.501 45s-44.5 74.333 -44.5 133v524l-287 389
c-57.333 78 -93.666 130.667 -108.999 158c-19.333 34 -28.666 66.667 -27.999 98zM381.001 1714c0 52 25.333 89.667 76 113l307 135c9.33301 4 21.833 8 37.5 12s31.167 6 46.5 6c39.333 0 71.333 -13.667 96 -41s37 -61.333 37 -102c0 -53.333 -25.333 -91 -76 -113
l-307 -135c-9.33301 -4 -21.833 -8 -37.5 -12s-31.167 -6 -46.5 -6c-39.333 0 -71.333 13.667 -96 41s-37 61.333 -37 102z" />
    <glyph glyph-name="Thorn" unicode="&#xde;" horiz-adv-x="1228" 
d="M78 166v1141c0 58.667 15 103 45 133s70.333 45 121 45c49.333 0 89.333 -14.667 120 -44s46 -74 46 -134v-54h241c138 0 253.333 -41.667 346 -125c102.667 -91.333 154 -215.333 154 -372c0 -147.333 -41.667 -266.333 -125 -357c-88.667 -95.333 -210 -143 -364 -143
h-252v-90c0 -58.667 -15.167 -103 -45.5 -133s-70.5 -45 -120.5 -45c-49.333 0 -89.333 14.667 -120 44s-46 74 -46 134zM410 555l177.999 -0.000976562c66.667 0 119.834 19.833 159.501 59.5s59.5 86.834 59.5 141.501c0 64 -19.5 113.333 -58.5 148s-92.5 52 -160.5 52
h-178v-401z" />
    <glyph glyph-name="germandbls" unicode="&#xdf;" horiz-adv-x="1253" 
d="M96 156l0.000976562 946.003c0 146 46.167 264.333 138.5 355s208.166 136 347.499 136c138 0 250 -40.833 336 -122.5s129 -188.167 129 -319.5c0 -56 -11.333 -107.833 -34 -155.5s-55.334 -86.5 -98.001 -116.5c80.667 -30 141.5 -81 182.5 -153
s61.5 -154.333 61.5 -247c0 -144.667 -49.667 -267.334 -149 -368.001c-94 -95.333 -203.333 -143.333 -328 -144c-54.667 0 -98.667 13.333 -132 40s-50 64.667 -50 114c0 88.667 54.667 141.334 164 158.001c48 6.66699 87.167 31.167 117.5 73.5s45.5 87.833 45.5 136.5
c0 68 -20.333 120 -61 156c-28.667 26 -64.334 42.333 -107.001 49c-61.333 10.667 -105.666 27.667 -132.999 51s-41 60.333 -41 111c0 68 40.333 115.667 121 143s121 76.666 121 147.999c0 39.333 -12.667 71.666 -38 96.999s-59.666 38 -102.999 38
c-60 0 -103.333 -21.833 -130 -65.5s-40 -103.167 -40 -178.5v-882c0 -48 -14.667 -88 -44 -120s-68 -48 -116 -48c-46.667 0 -85 15.667 -115 47s-45 71.666 -45 120.999z" />
    <glyph glyph-name="agrave" unicode="&#xe0;" horiz-adv-x="1165" 
d="M45 551c0 162.667 47.4971 300.334 142.497 413.001s212.167 169 351.5 169c62.667 0 114.834 -9 156.501 -27s80.834 -50 117.501 -96c13.333 28.667 31 51.667 53 69c27.333 22 59.666 33 96.999 33c46.667 0 84.834 -15.667 114.501 -47s44.5 -71 44.5 -119v-790
c0 -48 -14.667 -88 -44 -120s-67.666 -48 -114.999 -48c-34 0 -64.5 10.167 -91.5 30.5s-46.5 44.166 -58.5 71.499c-66.667 -82 -158 -123 -274 -123c-138 0 -254.833 56.667 -350.5 170s-143.5 251.333 -143.5 414zM235.997 1493c0 42 11.833 76.333 35.5 103
s56.167 40 97.5 40c12 0 26.167 -2 42.5 -6s30.166 -8 41.499 -12l307 -135c50.667 -23.333 76 -61 76 -113c0 -42 -12 -76.333 -36 -103s-56.667 -40 -98 -40c-12 0 -26.167 2 -42.5 6s-30.166 8 -41.499 12l-307 135c-50.667 22 -75.667 59.667 -75 113zM364.997 551
c0 -79.333 19.333 -145 58 -197s92.334 -78 161.001 -78c68 0 121.5 26.333 160.5 79s58.5 118 58.5 196s-18.333 141.333 -55 190c-40.667 54.667 -95.334 82 -164.001 82c-68 0 -121.5 -25.833 -160.5 -77.5s-58.5 -116.5 -58.5 -194.5z" />
    <glyph glyph-name="aacute" unicode="&#xe1;" horiz-adv-x="1165" 
d="M45 551c0 162.667 47.4971 300.334 142.497 413.001s212.167 169 351.5 169c62.667 0 114.834 -9 156.501 -27s80.834 -50 117.501 -96c13.333 28.667 31 51.667 53 69c27.333 22 59.666 33 96.999 33c46.667 0 84.834 -15.667 114.501 -47s44.5 -71 44.5 -119v-790
c0 -48 -14.667 -88 -44 -120s-67.666 -48 -114.999 -48c-34 0 -64.5 10.167 -91.5 30.5s-46.5 44.166 -58.5 71.499c-66.667 -82 -158 -123 -274 -123c-138 0 -254.833 56.667 -350.5 170s-143.5 251.333 -143.5 414zM364.997 551c0 -79.333 19.333 -145 58 -197
s92.334 -78 161.001 -78c68 0 121.5 26.333 160.5 79s58.5 118 58.5 196s-18.333 141.333 -55 190c-40.667 54.667 -95.334 82 -164.001 82c-68 0 -121.5 -25.833 -160.5 -77.5s-58.5 -116.5 -58.5 -194.5zM368.997 1370c0 53.333 25 91 75 113l308 135
c9.33301 4 21.833 8 37.5 12s31.167 6 46.5 6c39.333 0 71.333 -13.667 96 -41s37 -61.333 37 -102c0 -52 -25.333 -89.667 -76 -113l-307 -135c-9.33301 -4 -22 -8 -38 -12s-31.333 -6 -46 -6c-39.333 0 -71.333 13.667 -96 41s-37 61.333 -37 102z" />
    <glyph glyph-name="acircumflex" unicode="&#xe2;" horiz-adv-x="1165" 
d="M45 551c0 162.667 47.4971 300.334 142.497 413.001s212.167 169 351.5 169c62.667 0 114.834 -9 156.501 -27s80.834 -50 117.501 -96c13.333 28.667 31 51.667 53 69c27.333 22 59.666 33 96.999 33c46.667 0 84.834 -15.667 114.501 -47s44.5 -71 44.5 -119v-790
c0 -48 -14.667 -88 -44 -120s-67.666 -48 -114.999 -48c-34 0 -64.5 10.167 -91.5 30.5s-46.5 44.166 -58.5 71.499c-66.667 -82 -158 -123 -274 -123c-138 0 -254.833 56.667 -350.5 170s-143.5 251.333 -143.5 414zM185.997 1352c0 44 7.16699 75.835 21.5 95.502
s43.5 39.5 87.5 59.5l180 84c12 5.33301 33.5 14.166 64.5 26.499s51.833 18.5 62.5 18.5c13.333 0 32.333 -5 57 -15s48 -20 70 -30l180 -84c40.667 -19.333 69 -39.833 85 -61.5s24 -52.834 24 -93.501c0 -35.333 -10.667 -65 -32 -89s-47 -36 -77 -36
c-20.667 0 -37.667 2 -51 6s-33 12 -59 24l-197 93l-196 -93c-18 -8 -36.5 -15 -55.5 -21s-37.5 -9 -55.5 -9c-28.667 0 -54 11.5 -76 34.5s-33 53.167 -33 90.5zM364.997 551.002c0 -79.333 19.333 -145 58 -197s92.334 -78 161.001 -78c68 0 121.5 26.333 160.5 79
s58.5 118 58.5 196s-18.333 141.333 -55 190c-40.667 54.667 -95.334 82 -164.001 82c-68 0 -121.5 -25.833 -160.5 -77.5s-58.5 -116.5 -58.5 -194.5z" />
    <glyph glyph-name="atilde" unicode="&#xe3;" horiz-adv-x="1165" 
d="M45 551c0 162.667 47.4971 300.334 142.497 413.001s212.167 169 351.5 169c62.667 0 114.834 -9 156.501 -27s80.834 -50 117.501 -96c13.333 28.667 31 51.667 53 69c27.333 22 59.666 33 96.999 33c46.667 0 84.834 -15.667 114.501 -47s44.5 -71 44.5 -119v-790
c0 -48 -14.667 -88 -44 -120s-67.666 -48 -114.999 -48c-34 0 -64.5 10.167 -91.5 30.5s-46.5 44.166 -58.5 71.499c-66.667 -82 -158 -123 -274 -123c-138 0 -254.833 56.667 -350.5 170s-143.5 251.333 -143.5 414zM165.997 1360c0 56 20.833 107.499 62.5 154.499
s89.834 70.5 144.501 70.5c48 0 101 -10.333 159 -31c131.333 -45.333 200.333 -67.666 207 -66.999c24.667 0 48.667 10.333 72 31c50.667 45.333 87 67.666 109 66.999c36.667 0 65.5 -12.667 86.5 -38s31.5 -57 31.5 -95c0 -56 -20.833 -107.5 -62.5 -154.5
s-89.834 -70.5 -144.501 -70.5c-58.667 0 -129.167 16 -211.5 48s-133.833 48 -154.5 48c-26 0 -50 -9.66699 -72 -29c-52 -45.333 -88 -67.666 -108 -66.999c-36.667 0 -65.667 12.667 -87 38s-32 57 -32 95zM364.997 550.999c0 -79.333 19.333 -145 58 -197
s92.334 -78 161.001 -78c68 0 121.5 26.333 160.5 79s58.5 118 58.5 196s-18.333 141.333 -55 190c-40.667 54.667 -95.334 82 -164.001 82c-68 0 -121.5 -25.833 -160.5 -77.5s-58.5 -116.5 -58.5 -194.5z" />
    <glyph glyph-name="adieresis" unicode="&#xe4;" horiz-adv-x="1165" 
d="M45 551c0 162.667 47.4971 300.334 142.497 413.001s212.167 169 351.5 169c62.667 0 114.834 -9 156.501 -27s80.834 -50 117.501 -96c13.333 28.667 31 51.667 53 69c27.333 22 59.666 33 96.999 33c46.667 0 84.834 -15.667 114.501 -47s44.5 -71 44.5 -119v-790
c0 -48 -14.667 -88 -44 -120s-67.666 -48 -114.999 -48c-34 0 -64.5 10.167 -91.5 30.5s-46.5 44.166 -58.5 71.499c-66.667 -82 -158 -123 -274 -123c-138 0 -254.833 56.667 -350.5 170s-143.5 251.333 -143.5 414zM204.997 1432c0 44 15.334 81.834 46.001 113.501
s68.667 47.5 114 47.5c44 0 81.5 -15.5 112.5 -46.5s46.5 -69.167 46.5 -114.5c0 -44 -15.333 -82 -46 -114s-68.334 -48 -113.001 -48c-44 0 -81.667 15.667 -113 47s-47 69.666 -47 114.999zM364.998 551.001c0 -79.333 19.333 -145 58 -197s92.334 -78 161.001 -78
c68 0 121.5 26.333 160.5 79s58.5 118 58.5 196s-18.333 141.333 -55 190c-40.667 54.667 -95.334 82 -164.001 82c-68 0 -121.5 -25.833 -160.5 -77.5s-58.5 -116.5 -58.5 -194.5zM679.998 1432c0 44 15.334 81.834 46.001 113.501s68.667 47.5 114 47.5
c44 0 81.5 -15.5 112.5 -46.5s46.5 -69.167 46.5 -114.5c0 -44 -15.333 -82 -46 -114s-68.334 -48 -113.001 -48c-44 0 -81.667 15.667 -113 47s-47 69.666 -47 114.999z" />
    <glyph glyph-name="aring" unicode="&#xe5;" horiz-adv-x="1165" 
d="M45 551c0 162.667 47.4971 300.334 142.497 413.001s212.167 169 351.5 169c62.667 0 114.834 -9 156.501 -27s80.834 -50 117.501 -96c13.333 28.667 31 51.667 53 69c27.333 22 59.666 33 96.999 33c46.667 0 84.834 -15.667 114.501 -47s44.5 -71 44.5 -119v-790
c0 -48 -14.667 -88 -44 -120s-67.666 -48 -114.999 -48c-34 0 -64.5 10.167 -91.5 30.5s-46.5 44.166 -58.5 71.499c-66.667 -82 -158 -123 -274 -123c-138 0 -254.833 56.667 -350.5 170s-143.5 251.333 -143.5 414zM364.997 551c0 -79.333 19.333 -145 58 -197
s92.334 -78 161.001 -78c68 0 121.5 26.333 160.5 79s58.5 118 58.5 196s-18.333 141.333 -55 190c-40.667 54.667 -95.334 82 -164.001 82c-68 0 -121.5 -25.833 -160.5 -77.5s-58.5 -116.5 -58.5 -194.5zM398.997 1380c0 54.667 19.833 102.5 59.5 143.5
s87.5 61.5 143.5 61.5s103.833 -19.833 143.5 -59.5s59.5 -88.167 59.5 -145.5c0 -56 -19.833 -104.333 -59.5 -145s-87.5 -61 -143.5 -61s-103.833 20.333 -143.5 61s-59.5 89 -59.5 145zM509.997 1380c0 -24.667 8.83301 -46.5 26.5 -65.5s39.5 -28.5 65.5 -28.5
c24.667 0 46.167 9.16699 64.5 27.5s27.5 40.5 27.5 66.5c0 24.667 -9.16699 46.334 -27.5 65.001s-39.833 28 -64.5 28s-46.167 -9.33301 -64.5 -28s-27.5 -40.334 -27.5 -65.001z" />
    <glyph glyph-name="ae" unicode="&#xe6;" horiz-adv-x="1974" 
d="M70 551c0 162.667 47.3379 300.332 142.005 412.999s211.667 169 351 169c64 0 116.167 -9 156.5 -27s78.5 -50 114.5 -96c2.66699 36.667 14.5 66.334 35.5 89.001s56.167 34 105.5 34c28.667 0 53.167 -7.16699 73.5 -21.5s35.5 -31.833 45.5 -52.5
c27.333 20.667 61.333 37 102 49c53.333 16.667 116.666 25 189.999 25c151.333 0 277 -56 377 -168c94 -106.667 141.333 -233 142 -379c0 -53.333 -12.333 -90.333 -37 -111s-64.334 -31 -119.001 -31h-602c0 -56 33.333 -102.333 100 -139
c50.667 -27.333 110.667 -41 180 -41c58.667 0 123.667 17.167 195 51.5s115.666 51.5 132.999 51.5c38 0 69.667 -12.667 95 -38s38 -59.333 38 -102c0 -75.333 -51.5 -137.5 -154.5 -186.5s-218.833 -73.5 -347.5 -73.5c-64 0 -120.833 6.5 -170.5 19.5
s-91.5 31.167 -125.5 54.5c-10.667 -22 -23.667 -38.333 -39 -49c-20.667 -16.667 -47.334 -25 -80.001 -25c-48 0 -82.167 11 -102.5 33s-30.5 52 -30.5 90c-66.667 -82 -158.334 -123 -275.001 -123c-138 0 -254.667 56.667 -350 170s-143 251.333 -143 414z
M389.005 550.998c0 -79.333 19.501 -145 58.501 -197s92.5 -78 160.5 -78s121.5 26.333 160.5 79s58.5 118 58.5 196s-18.333 141.333 -55 190c-40.667 54.667 -95.334 82 -164.001 82c-68 0 -121.5 -25.833 -160.5 -77.5s-58.5 -116.5 -58.5 -194.5zM1147.01 665.998h438
c0 44 -19 85.667 -57 125c-45.333 46.667 -99.333 69.667 -162 69c-62.667 0 -116.667 -23 -162 -69c-38 -39.333 -57 -81 -57 -125z" />
    <glyph glyph-name="ccedilla" unicode="&#xe7;" horiz-adv-x="999" 
d="M41 551c0 165.333 49.833 303.667 149.5 415s229.5 167 389.5 167c95.333 0 175.666 -13.667 240.999 -41c91.333 -38 137 -95.333 137 -172c0 -44 -12.5 -80 -37.5 -108s-56.167 -42 -93.5 -42c-23.333 0 -56 8.83301 -98 26.5s-85.667 26.5 -131 26.5
c-76.667 0 -135.5 -25.833 -176.5 -77.5s-61.5 -116.5 -61.5 -194.5c0 -79.333 19.5 -145 58.5 -197s92.833 -78 161.5 -78c46.667 0 89.334 6.16699 128.001 18.5l119 39.5c35.333 0 66 -15 92 -45s39 -63 39 -99c0 -72.667 -47 -130 -141 -172
c-76.667 -34 -155.667 -51 -237 -51c-160 0 -289.833 55.667 -389.5 167s-149.5 250.333 -149.5 417zM281 -361.999c0 16.667 5.00293 32.668 15.0029 48.001s23.333 23 40 23c13.333 0 36.666 -6.66699 69.999 -20c19.333 -8 34.333 -12.333 45 -13
c19.333 0 35.666 6.16699 48.999 18.5s20 28.833 20 49.5c0 19.333 -6.83301 33.666 -20.5 42.999s-27.834 14 -42.501 14h-41c-12 0 -22.833 4.83301 -32.5 14.5s-14.5 20.5 -14.5 32.5c0 16.667 6 34.667 18 54c5.33301 8 17.666 23.667 36.999 47l43 51h141l-80 -109
l50 3c48 0 87.167 -14.833 117.5 -44.5s45.5 -69.5 45.5 -119.5c0 -58.667 -29.333 -106 -88 -142c-50.667 -31.333 -106.667 -47 -168 -47c-52 0 -93.667 5 -125 15c-53.333 16.667 -79.666 44 -78.999 82z" />
    <glyph glyph-name="egrave" unicode="&#xe8;" horiz-adv-x="1157" 
d="M41 551c0 160 52.501 297 157.501 411s238.833 171 401.5 171c151.333 0 277 -56 377 -168c94 -106.667 141 -233 141 -379c0 -53.333 -12.333 -90.333 -37 -111s-64 -31 -118 -31h-578c0 -44 17 -82 51 -114c45.333 -44 113.666 -66 204.999 -66
c58.667 0 123.5 17.167 194.5 51.5s115.5 51.5 133.5 51.5c38 0 69.667 -12.667 95 -38s38 -59.333 38 -102c0 -75.333 -51.5 -137.5 -154.5 -186.5s-218.833 -73.5 -347.5 -73.5c-166.667 0 -301.5 55.667 -404.5 167s-154.5 250.333 -154.5 417zM213.001 1493
c0 42 12 76.333 36 103s56.333 40 97 40c12 0 26.333 -2 43 -6s30.334 -8 41.001 -12l307 -135c50.667 -23.333 76 -61 76 -113c0 -42 -12 -76.333 -36 -103s-56.333 -40 -97 -40c-12 0 -26.333 2 -43 6s-30.334 8 -41.001 12l-307 135c-50.667 22 -76 59.667 -76 113z
M385.001 666h413.999c0 44 -18.667 85.667 -56 125c-42 46.667 -92.333 69.667 -151 69c-57.333 0 -106.166 -21.833 -146.499 -65.5s-60.5 -86.5 -60.5 -128.5z" />
    <glyph glyph-name="eacute" unicode="&#xe9;" horiz-adv-x="1157" 
d="M41 551c0 160 52.501 297 157.501 411s238.833 171 401.5 171c151.333 0 277 -56 377 -168c94 -106.667 141 -233 141 -379c0 -53.333 -12.333 -90.333 -37 -111s-64 -31 -118 -31h-578c0 -44 17 -82 51 -114c45.333 -44 113.666 -66 204.999 -66
c58.667 0 123.5 17.167 194.5 51.5s115.5 51.5 133.5 51.5c38 0 69.667 -12.667 95 -38s38 -59.333 38 -102c0 -75.333 -51.5 -137.5 -154.5 -186.5s-218.833 -73.5 -347.5 -73.5c-166.667 0 -301.5 55.667 -404.5 167s-154.5 250.333 -154.5 417zM346.001 1370
c0 53.333 25.333 91 76 113l307 135c9.33301 4 22 8 38 12s31.333 6 46 6c39.333 0 71.333 -13.667 96 -41s37 -61.333 37 -102c0 -52 -25.333 -89.667 -76 -113l-307 -135c-9.33301 -4 -21.833 -8 -37.5 -12s-31.167 -6 -46.5 -6c-39.333 0 -71.333 13.667 -96 41
s-37 61.333 -37 102zM385.001 666h413.999c0 44 -18.667 85.667 -56 125c-42 46.667 -92.333 69.667 -151 69c-57.333 0 -106.166 -21.833 -146.499 -65.5s-60.5 -86.5 -60.5 -128.5z" />
    <glyph glyph-name="ecircumflex" unicode="&#xea;" horiz-adv-x="1157" 
d="M41 551c0 160 52.501 297 157.501 411s238.833 171 401.5 171c151.333 0 277 -56 377 -168c94 -106.667 141 -233 141 -379c0 -53.333 -12.333 -90.333 -37 -111s-64 -31 -118 -31h-578c0 -44 17 -82 51 -114c45.333 -44 113.666 -66 204.999 -66
c58.667 0 123.5 17.167 194.5 51.5s115.5 51.5 133.5 51.5c38 0 69.667 -12.667 95 -38s38 -59.333 38 -102c0 -75.333 -51.5 -137.5 -154.5 -186.5s-218.833 -73.5 -347.5 -73.5c-166.667 0 -301.5 55.667 -404.5 167s-154.5 250.333 -154.5 417zM164.001 1352
c0 44 7.16895 75.834 21.502 95.501s43.166 39.5 86.499 59.5l181 84c12 5.33301 33.333 14.166 64 26.499s51.667 18.5 63 18.5c13.333 0 32.333 -5 57 -15s48 -20 70 -30l180 -84c40.667 -19.333 68.834 -39.5 84.501 -60.5s23.5 -52.5 23.5 -94.5
c0 -35.333 -10.5 -65 -31.5 -89s-46.5 -36 -76.5 -36c-20.667 0 -37.834 2 -51.501 6s-33.5 12 -59.5 24l-196 93l-197 -93c-18 -8 -36.5 -15 -55.5 -21s-37.5 -9 -55.5 -9c-28.667 0 -53.834 11.5 -75.501 34.5s-32.5 53.167 -32.5 90.5zM385.003 666.001h413.999
c0 44 -18.667 85.667 -56 125c-42 46.667 -92.333 69.667 -151 69c-57.333 0 -106.166 -21.833 -146.499 -65.5s-60.5 -86.5 -60.5 -128.5z" />
    <glyph glyph-name="edieresis" unicode="&#xeb;" horiz-adv-x="1157" 
d="M41 551c0 160 52.501 297 157.501 411s238.833 171 401.5 171c151.333 0 277 -56 377 -168c94 -106.667 141 -233 141 -379c0 -53.333 -12.333 -90.333 -37 -111s-64 -31 -118 -31h-578c0 -44 17 -82 51 -114c45.333 -44 113.666 -66 204.999 -66
c58.667 0 123.5 17.167 194.5 51.5s115.5 51.5 133.5 51.5c38 0 69.667 -12.667 95 -38s38 -59.333 38 -102c0 -75.333 -51.5 -137.5 -154.5 -186.5s-218.833 -73.5 -347.5 -73.5c-166.667 0 -301.5 55.667 -404.5 167s-154.5 250.333 -154.5 417zM182.001 1432
c0 44 15.333 81.834 46 113.501s68.667 47.5 114 47.5c44 0 81.667 -15.5 113 -46.5s47 -69.167 47 -114.5c0 -44 -15.333 -82 -46 -114s-68.667 -48 -114 -48c-44 0 -81.667 15.667 -113 47s-47 69.666 -47 114.999zM385.001 666.001h413.999c0 44 -18.667 85.667 -56 125
c-42 46.667 -92.333 69.667 -151 69c-57.333 0 -106.166 -21.833 -146.499 -65.5s-60.5 -86.5 -60.5 -128.5zM657 1432c0 44 15.5 81.834 46.5 113.501s68.833 47.5 113.5 47.5c44 0 81.667 -15.5 113 -46.5s47 -69.167 47 -114.5c0 -44 -15.333 -82 -46 -114
s-68.667 -48 -114 -48c-44 0 -81.667 15.667 -113 47s-47 69.666 -47 114.999z" />
    <glyph glyph-name="igrave" unicode="&#xec;" horiz-adv-x="456" 
d="M-72 1493c0 42 11.998 76.333 35.998 103s56.333 40 97 40c12 0 26.333 -2 43 -6s30.334 -8 41.001 -12l308 -135c50.667 -22 75.667 -59.667 75 -113c0 -42 -11.833 -76.333 -35.5 -103s-56.167 -40 -97.5 -40c-12 0 -26.167 2 -42.5 6s-30.166 8 -41.499 12l-307 135
c-50.667 22 -76 59.667 -76 113zM134.998 156v790.001c0 46.667 14.667 86 44 118s68 48 116 48c46.667 0 85 -15.667 115 -47s45 -71 45 -119v-790c0 -48 -14.667 -88 -44 -120s-68 -48 -116 -48c-46.667 0 -85 15.667 -115 47s-45 71.666 -45 120.999z" />
    <glyph glyph-name="iacute" unicode="&#xed;" horiz-adv-x="456" 
d="M-72 1370c0 53.333 25.333 91 76 113l307 135c9.33301 4 22 8 38 12s31.333 6 46 6c39.333 0 71.333 -13.667 96 -41s37 -61.333 37 -102c0 -53.333 -25 -91 -75 -113l-308 -135c-9.33301 -4 -21.833 -8 -37.5 -12s-31.167 -6 -46.5 -6c-39.333 0 -71.333 13.667 -96 41
s-37 61.333 -37 102zM2 156v790.001c0 46.667 14.667 86 44 118s68 48 116 48c46.667 0 85 -15.667 115 -47s45 -71 45 -119v-790c0 -48 -14.833 -88 -44.5 -120s-68.167 -48 -115.5 -48c-46.667 0 -85 15.667 -115 47s-45 71.666 -45 120.999z" />
    <glyph glyph-name="icircumflex" unicode="&#xee;" horiz-adv-x="456" 
d="M-186 1352c0 44 7.16895 75.834 21.502 95.501s43.166 39.5 86.499 59.5l180 84c12 5.33301 33.5 14.166 64.5 26.499s51.833 18.5 62.5 18.5c13.333 0 32.5 -5 57.5 -15s48.167 -20 69.5 -30l181 -84c40.667 -19.333 68.834 -39.5 84.501 -60.5s23.5 -52.5 23.5 -94.5
c0 -35.333 -10.5 -65 -31.5 -89s-46.5 -36 -76.5 -36c-20.667 0 -37.834 2 -51.501 6s-33.5 12 -59.5 24l-197 93l-196 -93c-18 -8 -36.5 -15 -55.5 -21s-37.5 -9 -55.5 -9c-28.667 0 -53.834 11.5 -75.501 34.5s-32.5 53.167 -32.5 90.5zM70.002 156.001
l0.00195312 790.001c0 46.667 14.667 86 44 118s67.666 48 114.999 48c46.667 0 85 -15.667 115 -47s45 -71 45 -119v-790c0 -48 -14.667 -88 -44 -120s-68 -48 -116 -48c-46.667 0 -84.834 15.667 -114.501 47s-44.5 71.666 -44.5 120.999z" />
    <glyph glyph-name="idieresis" unicode="&#xef;" horiz-adv-x="456" 
d="M-168 1432c0 44 15.333 81.833 46 113.5s68.667 47.5 114 47.5c44 0 81.667 -15.5 113 -46.5s47 -69.167 47 -114.5s-15.833 -83.666 -47.5 -114.999s-69.167 -47 -112.5 -47c-44 0 -81.667 15.667 -113 47s-47 69.666 -47 114.999zM70 156l0.00195312 790.001
c0 46.667 14.667 86 44 118s67.666 48 114.999 48c46.667 0 85 -15.667 115 -47s45 -71 45 -119v-790c0 -48 -14.667 -88 -44 -120s-68 -48 -116 -48c-46.667 0 -84.834 15.667 -114.501 47s-44.5 71.666 -44.5 120.999zM307.002 1432c0 44 15.333 81.833 46 113.5
s68.667 47.5 114 47.5c44 0 81.667 -15.5 113 -46.5s47 -69.167 47 -114.5s-15.833 -83.666 -47.5 -114.999s-69.167 -47 -112.5 -47c-44 0 -81.667 15.667 -113 47s-47 69.666 -47 114.999z" />
    <glyph glyph-name="eth" unicode="&#xf0;" horiz-adv-x="1222" 
d="M72 518c0 161.333 46.3281 293.167 138.995 395.5s213.334 153.5 362.001 153.5c50.667 0 93.5 -4.83301 128.5 -14.5s63.167 -26.834 84.5 -51.501l5 5c-23.333 46.667 -50.666 89 -81.999 127c-40.667 49.333 -81.667 84 -123 104l-189 -92
c-23.333 -12 -42.5 -20.833 -57.5 -26.5s-29.167 -8.5 -42.5 -8.5c-22 0 -39.833 8.83301 -53.5 26.5s-20.5 36.834 -20.5 57.501s5.16699 36.334 15.5 47.001s28.5 23 54.5 37l125 61c-61.333 34 -99.666 58 -114.999 72c-27.333 23.333 -41 50.666 -41 81.999
c0 32.667 15.333 61 46 85s72.667 36 126 36c46.667 0 99 -10.667 157 -32s109.333 -49 154 -83l168 84c24.667 12 47.334 18.333 68.001 19c20.667 0 38.5 -7.66699 53.5 -23s22.5 -36.333 22.5 -63c0 -22 -5.83301 -38.167 -17.5 -48.5s-28.5 -20.833 -50.5 -31.5
l-104 -52c80.667 -70.667 142.667 -163.334 186 -278.001c52 -135.333 78 -298.666 78 -489.999c0 -188.667 -42.333 -340 -127 -454c-95.333 -130 -232.666 -195 -411.999 -195c-155.333 0 -283.833 51.5 -385.5 154.5s-152.5 235.167 -152.5 396.5zM390.995 518.001
c0 -64 20.8291 -120.334 62.4961 -169.001s93.834 -73 156.501 -73s114.834 24 156.501 72s62.5 104.667 62.5 170c0 62.667 -20.667 118.334 -62 167.001s-93.666 73 -156.999 73c-61.333 0 -113.166 -24 -155.499 -72s-63.5 -104 -63.5 -168z" />
    <glyph glyph-name="ntilde" unicode="&#xf1;" 
d="M45 156l-0.00195312 790.002c0 46.667 14.667 86 44 118s68 48 116 48c39.333 0 74 -11 104 -33c24.667 -18 43.334 -41 56.001 -69c52 82 143.333 123 274 123c117.333 0 211 -30.333 281 -91c78 -66.667 116.667 -162.667 116 -288v-598c0 -48 -14.667 -88 -44 -120
s-67.666 -48 -114.999 -48c-46.667 0 -85 15.667 -115 47s-45 71.666 -45 120.999v510c0 57.333 -15.333 104 -46 140s-74 54 -130 54c-53.333 0 -96 -18 -128 -54s-48 -82.667 -48 -140v-510c0 -48 -14.833 -88 -44.5 -120s-68.167 -48 -115.5 -48
c-46.667 0 -85 15.667 -115 47s-45 71.666 -45 120.999zM103.998 1360c0 56 20.835 107.499 62.502 154.499s89.834 70.5 144.501 70.5c48 0 101.333 -10.333 160 -31c131.333 -45.333 200.333 -67.666 207 -66.999c24.667 0 48.667 10.333 72 31
c50.667 45.333 86.667 67.666 108 66.999c36.667 0 65.667 -12.667 87 -38s32 -57 32 -95c0 -56 -20.833 -107.5 -62.5 -154.5s-89.834 -70.5 -144.501 -70.5c-58.667 0 -129.334 16 -212.001 48s-134.334 48 -155.001 48c-26 0 -49.667 -9.66699 -71 -29
c-52 -45.333 -88.333 -67.666 -109 -66.999c-36.667 0 -65.667 12.667 -87 38s-32 57 -32 95z" />
    <glyph glyph-name="ograve" unicode="&#xf2;" horiz-adv-x="1142" 
d="M33 551c0 165.333 49.833 303.668 149.5 415.001s229.167 167 388.5 167c160 0 289.833 -55.333 389.5 -166s149.5 -249.334 149.5 -416.001c0 -165.333 -49.833 -304 -149.5 -416s-229.5 -168 -389.5 -168s-289.667 55.667 -389 167s-149 250.333 -149 417zM205 1493
c0 42 11.833 76.333 35.5 103s56.167 40 97.5 40c12 0 26.333 -2 43 -6s30.334 -8 41.001 -12l307 -135c50.667 -22 76 -59.667 76 -113c0 -42 -12 -76.333 -36 -103s-56.333 -40 -97 -40c-12 0 -26.333 2 -43 6s-30.334 8 -41.001 12l-307 135
c-50.667 23.333 -76 61 -76 113zM352 551.002c0 -79.333 19.501 -145 58.501 -197s92.5 -78 160.5 -78s121.667 26.333 161 79s59 118 59 196s-18.667 141.333 -56 190c-40.667 54.667 -95.334 82 -164.001 82c-68 0 -121.5 -25.833 -160.5 -77.5s-58.5 -116.5 -58.5 -194.5
z" />
    <glyph glyph-name="oacute" unicode="&#xf3;" horiz-adv-x="1142" 
d="M33 551c0 165.333 49.833 303.668 149.5 415.001s229.167 167 388.5 167c160 0 289.833 -55.333 389.5 -166s149.5 -249.334 149.5 -416.001c0 -165.333 -49.833 -304 -149.5 -416s-229.5 -168 -389.5 -168s-289.667 55.667 -389 167s-149 250.333 -149 417zM338 1370
c0 52 25.333 89.667 76 113l307 135c9.33301 4 21.833 8 37.5 12s31.167 6 46.5 6c39.333 0 71.333 -13.667 96 -41s37 -61.333 37 -102c0 -53.333 -25.333 -91 -76 -113l-307 -135c-9.33301 -4 -21.833 -8 -37.5 -12s-31.167 -6 -46.5 -6c-39.333 0 -71.333 13.667 -96 41
s-37 61.333 -37 102zM352 551.002c0 -79.333 19.501 -145 58.501 -197s92.5 -78 160.5 -78s121.667 26.333 161 79s59 118 59 196s-18.667 141.333 -56 190c-40.667 54.667 -95.334 82 -164.001 82c-68 0 -121.5 -25.833 -160.5 -77.5s-58.5 -116.5 -58.5 -194.5z" />
    <glyph glyph-name="ocircumflex" unicode="&#xf4;" horiz-adv-x="1142" 
d="M33 551c0 165.333 49.833 303.668 149.5 415.001s229.167 167 388.5 167c160 0 289.833 -55.333 389.5 -166s149.5 -249.334 149.5 -416.001c0 -165.333 -49.833 -304 -149.5 -416s-229.5 -168 -389.5 -168s-289.667 55.667 -389 167s-149 250.333 -149 417zM156 1352
c0 44 7.16895 75.835 21.502 95.502s43.166 39.5 86.499 59.5l180 84l64 27c31.333 12 52.333 18 63 18c13.333 0 32.5 -5 57.5 -15s48.167 -20 69.5 -30l181 -84c40.667 -19.333 68.834 -39.833 84.501 -61.5s23.5 -52.834 23.5 -93.501c0 -35.333 -10.5 -65 -31.5 -89
s-46.5 -36 -76.5 -36c-20.667 0 -36.834 1.66699 -48.501 5s-32.5 11.666 -62.5 24.999l-197 93l-196 -93c-18 -8 -36.5 -15 -55.5 -21s-37.5 -9 -55.5 -9c-28.667 0 -53.834 11.5 -75.501 34.5s-32.5 53.167 -32.5 90.5zM352.002 551.004
c0 -79.333 19.501 -145 58.501 -197s92.5 -78 160.5 -78s121.667 26.333 161 79s59 118 59 196s-18.667 141.333 -56 190c-40.667 54.667 -95.334 82 -164.001 82c-68 0 -121.5 -25.833 -160.5 -77.5s-58.5 -116.5 -58.5 -194.5z" />
    <glyph glyph-name="otilde" unicode="&#xf5;" horiz-adv-x="1142" 
d="M33 551c0 165.333 49.833 303.668 149.5 415.001s229.167 167 388.5 167c160 0 289.833 -55.333 389.5 -166s149.5 -249.334 149.5 -416.001c0 -165.333 -49.833 -304 -149.5 -416s-229.5 -168 -389.5 -168s-289.667 55.667 -389 167s-149 250.333 -149 417zM135 1360
c0 56 20.834 107.499 62.501 154.499s89.834 70.5 144.501 70.5c48 0 101.333 -10.333 160 -31c131.333 -45.333 200.333 -67.666 207 -66.999c24.667 0 48.334 10.333 71.001 31c50.667 45.333 87 67.666 109 66.999c36.667 0 65.667 -12.667 87 -38s32 -57 32 -95
c0 -56 -20.833 -107.5 -62.5 -154.5s-89.834 -70.5 -144.501 -70.5c-58.667 0 -129.334 16 -212.001 48s-134.334 48 -155.001 48c-26 0 -50 -9.66699 -72 -29c-52 -45.333 -88 -67.666 -108 -66.999c-36.667 0 -65.667 12.667 -87 38s-32 57 -32 95zM352.001 551.001
c0 -79.333 19.501 -145 58.501 -197s92.5 -78 160.5 -78s121.667 26.333 161 79s59 118 59 196s-18.667 141.333 -56 190c-40.667 54.667 -95.334 82 -164.001 82c-68 0 -121.5 -25.833 -160.5 -77.5s-58.5 -116.5 -58.5 -194.5z" />
    <glyph glyph-name="odieresis" unicode="&#xf6;" horiz-adv-x="1142" 
d="M33 551c0 165.333 49.833 303.668 149.5 415.001s229.167 167 388.5 167c160 0 289.833 -55.333 389.5 -166s149.5 -249.334 149.5 -416.001c0 -165.333 -49.833 -304 -149.5 -416s-229.5 -168 -389.5 -168s-289.667 55.667 -389 167s-149 250.333 -149 417zM174 1432
c0 44 15.333 81.834 46 113.501s68.667 47.5 114 47.5c44 0 81.667 -15.5 113 -46.5s47 -69.167 47 -114.5c0 -44 -15.5 -82 -46.5 -114s-68.833 -48 -113.5 -48c-44 0 -81.667 15.667 -113 47s-47 69.666 -47 114.999zM352 551.003c0 -79.333 19.501 -145 58.501 -197
s92.5 -78 160.5 -78s121.667 26.333 161 79s59 118 59 196s-18.667 141.333 -56 190c-40.667 54.667 -95.334 82 -164.001 82c-68 0 -121.5 -25.833 -160.5 -77.5s-58.5 -116.5 -58.5 -194.5zM649.001 1432c0 44 15.333 81.834 46 113.501s68.667 47.5 114 47.5
c44 0 81.667 -15.5 113 -46.5s47 -69.167 47 -114.5c0 -44 -15.333 -82 -46 -114s-68.667 -48 -114 -48c-44 0 -81.667 15.667 -113 47s-47 69.666 -47 114.999z" />
    <glyph glyph-name="divide" unicode="&#xf7;" horiz-adv-x="1134" 
d="M-12 586c0 42 12.5 74.999 37.5 98.999s60.167 36 105.5 36h873c44 0 78.833 -11.667 104.5 -35s38.5 -56.666 38.5 -99.999c0 -44 -12.667 -77.833 -38 -101.5s-60.333 -35.5 -105 -35.5h-873c-95.333 0 -143 45.667 -143 137zM377 146.999c0 52 18.333 97.167 55 135.5
s81.667 57.5 135 57.5c50.667 0 95.167 -19.167 133.5 -57.5s57.5 -83.5 57.5 -135.5c0 -53.333 -18.833 -98.666 -56.5 -135.999s-82.5 -56 -134.5 -56c-50.667 0 -95 19.167 -133 57.5s-57 83.166 -57 134.499zM377 1024c0 52 18.333 97.167 55 135.5
s81.667 57.5 135 57.5c50.667 0 95.167 -19.167 133.5 -57.5s57.5 -83.5 57.5 -135.5c0 -53.333 -18.833 -98.833 -56.5 -136.5s-82.5 -56.5 -134.5 -56.5c-50.667 0 -95 19.167 -133 57.5s-57 83.5 -57 135.5z" />
    <glyph glyph-name="oslash" unicode="&#xf8;" horiz-adv-x="1253" 
d="M43 12c0 26 10.332 49.3359 30.999 70.0029l114 121c-66.667 98 -100 214 -100 348c0 165.333 49.833 303.666 149.5 414.999s229.5 167 389.5 167c130 0 241.333 -38.333 334 -115l73 76c46.667 48 81 71.667 103 71c20.667 0 38 -7.83301 52 -23.5
s21 -33.834 21 -54.501c0 -23.333 -10 -46.333 -30 -69l-113 -121c65.333 -100 98 -215.333 98 -346c0 -165.333 -49.833 -304 -149.5 -416s-229.167 -168 -388.5 -168c-65.333 0 -126.166 10 -182.499 30s-106.833 48.333 -151.5 85l-74 -76
c-45.333 -46.667 -79.333 -69.667 -102 -69c-20.667 0 -38.167 7.16699 -52.5 21.5s-21.5 32.166 -21.5 53.499zM407.999 551.003c0 -39.333 4.66797 -74.333 14.001 -105l321 340c-32.667 24.667 -71.334 37 -116.001 37c-68 0 -121.5 -25.833 -160.5 -77.5
s-58.5 -116.5 -58.5 -194.5zM512 313.003c32.667 -24.667 71 -36.999 115 -36.999c68 0 121.5 26.333 160.5 79s58.5 118 58.5 196c0 39.333 -5 72.666 -15 99.999z" />
    <glyph glyph-name="ugrave" unicode="&#xf9;" 
d="M45 346l-0.00292969 597.998c0 48 14.667 88 44 120s68 48 116 48c46.667 0 85 -15.667 115 -47s45 -71.666 45 -120.999v-510c0 -57.333 15.333 -104 46 -140s74 -54 130 -54c53.333 0 96 18 128 54s48 82.667 48 140v510c0 48 14.667 88 44 120s68 48 116 48
c46.667 0 84.834 -15.667 114.501 -47s44.5 -71.666 44.5 -120.999v-790c0 -46.667 -14.667 -86 -44 -118s-67.666 -48 -114.999 -48c-39.333 0 -74.333 10.667 -105 32c-24.667 18 -43 41.333 -55 70c-52 -82 -143.667 -123 -275 -123c-117.333 0 -210.666 30 -279.999 90
c-78 66.667 -117 163 -117 289zM140.997 1493c0 42 11.998 76.333 35.998 103s56.333 40 97 40c12 0 26.333 -2 43 -6s30.334 -8 41.001 -12l308 -135c50.667 -23.333 75.667 -61 75 -113c0 -42 -11.833 -76.333 -35.5 -103s-56.167 -40 -97.5 -40c-12 0 -26.167 2 -42.5 6
s-30.166 8 -41.499 12l-307 135c-50.667 22 -76 59.667 -76 113z" />
    <glyph glyph-name="uacute" unicode="&#xfa;" 
d="M45 346l-0.00292969 597.998c0 48 14.667 88 44 120s68 48 116 48c46.667 0 85 -15.667 115 -47s45 -71.666 45 -120.999v-510c0 -57.333 15.333 -104 46 -140s74 -54 130 -54c53.333 0 96 18 128 54s48 82.667 48 140v510c0 48 14.667 88 44 120s68 48 116 48
c46.667 0 84.834 -15.667 114.501 -47s44.5 -71.666 44.5 -120.999v-790c0 -46.667 -14.667 -86 -44 -118s-67.666 -48 -114.999 -48c-39.333 0 -74.333 10.667 -105 32c-24.667 18 -43 41.333 -55 70c-52 -82 -143.667 -123 -275 -123c-117.333 0 -210.666 30 -279.999 90
c-78 66.667 -117 163 -117 289zM339.997 1370c0 52 25.333 89.667 76 113l307 135c9.33301 4 21.833 8 37.5 12s31.167 6 46.5 6c39.333 0 71.333 -13.667 96 -41s37 -61.333 37 -102c0 -53.333 -25.333 -91 -76 -113l-307 -135c-9.33301 -4 -21.833 -8 -37.5 -12
s-31.167 -6 -46.5 -6c-39.333 0 -71.333 13.667 -96 41s-37 61.333 -37 102z" />
    <glyph glyph-name="ucircumflex" unicode="&#xfb;" 
d="M45 346l-0.00292969 597.998c0 48 14.667 88 44 120s68 48 116 48c46.667 0 85 -15.667 115 -47s45 -71.666 45 -120.999v-510c0 -57.333 15.333 -104 46 -140s74 -54 130 -54c53.333 0 96 18 128 54s48 82.667 48 140v510c0 48 14.667 88 44 120s68 48 116 48
c46.667 0 84.834 -15.667 114.501 -47s44.5 -71.666 44.5 -120.999v-790c0 -46.667 -14.667 -86 -44 -118s-67.666 -48 -114.999 -48c-39.333 0 -74.333 10.667 -105 32c-24.667 18 -43 41.333 -55 70c-52 -82 -143.667 -123 -275 -123c-117.333 0 -210.666 30 -279.999 90
c-78 66.667 -117 163 -117 289zM124.997 1352c0 44 7.16895 75.835 21.502 95.502s43.166 39.5 86.499 59.5l181 84c12 5.33301 33.333 14.166 64 26.499s51.667 18.5 63 18.5c13.333 0 32.333 -5 57 -15s48 -20 70 -30l180 -84c40.667 -19.333 68.834 -39.833 84.501 -61.5
s23.5 -52.834 23.5 -93.501c0 -35.333 -10.5 -65 -31.5 -89s-46.5 -36 -76.5 -36c-20.667 0 -37.834 2 -51.501 6s-33.5 12 -59.5 24l-196 93l-197 -93c-18 -8 -36.5 -15 -55.5 -21s-37.5 -9 -55.5 -9c-28.667 0 -53.834 11.5 -75.501 34.5s-32.5 53.167 -32.5 90.5z" />
    <glyph glyph-name="udieresis" unicode="&#xfc;" 
d="M45 346l-0.00292969 597.998c0 48 14.667 88 44 120s68 48 116 48c46.667 0 85 -15.667 115 -47s45 -71.666 45 -120.999v-510c0 -57.333 15.333 -104 46 -140s74 -54 130 -54c53.333 0 96 18 128 54s48 82.667 48 140v510c0 48 14.667 88 44 120s68 48 116 48
c46.667 0 84.834 -15.667 114.501 -47s44.5 -71.666 44.5 -120.999v-790c0 -46.667 -14.667 -86 -44 -118s-67.666 -48 -114.999 -48c-39.333 0 -74.333 10.667 -105 32c-24.667 18 -43 41.333 -55 70c-52 -82 -143.667 -123 -275 -123c-117.333 0 -210.666 30 -279.999 90
c-78 66.667 -117 163 -117 289zM142.997 1432c0 44 15.5 81.833 46.5 113.5s68.833 47.5 113.5 47.5c44 0 81.667 -15.5 113 -46.5s47 -69.167 47 -114.5s-15.667 -83.666 -47 -114.999s-69 -47 -113 -47s-81.667 15.667 -113 47s-47 69.666 -47 114.999zM617.997 1432
c0 44 15.5 81.833 46.5 113.5s68.833 47.5 113.5 47.5c44 0 81.667 -15.5 113 -46.5s47 -69.167 47 -114.5s-15.667 -83.666 -47 -114.999s-69 -47 -113 -47s-81.667 15.667 -113 47s-47 69.666 -47 114.999z" />
    <glyph glyph-name="yacute" unicode="&#xfd;" horiz-adv-x="1107" 
d="M41 963c0 46.667 15.3301 83.1689 45.9971 109.502s67.334 39.5 110.001 39.5c78 0 132.333 -40.333 163 -121l189 -493l178 440c24.667 57.333 47.334 98.333 68.001 123c30 34 65.333 51 106 51c49.333 0 89 -14.333 119 -43s45 -68.334 45 -119.001
c0 -22 -3.5 -43.833 -10.5 -65.5s-16.5 -46.834 -28.5 -75.501l-473 -1114c-23.333 -54.667 -43 -91 -59 -109c-27.333 -30 -65.666 -45 -114.999 -45c-50.667 0 -91 17 -121 51c-24.667 28.667 -37 59.667 -37 93c0 38 17.667 97.333 53 178l107 243l-272 656l-37 90
c-20.667 52 -31 89 -31 111zM318.997 1370c0 52 25.333 89.667 76 113l307 135c9.33301 4 22 8 38 12s31.333 6 46 6c39.333 0 71.5 -13.667 96.5 -41s37.5 -61.333 37.5 -102c0 -53.333 -25.333 -91 -76 -113l-307 -135c-9.33301 -4 -22 -8 -38 -12s-31.333 -6 -46 -6
c-39.333 0 -71.5 13.667 -96.5 41s-37.5 61.333 -37.5 102z" />
    <glyph glyph-name="thorn" unicode="&#xfe;" horiz-adv-x="1259" 
d="M90 -297l-0.000976562 1729c0 50.667 13.667 90.167 41 118.5s67 42.5 119 42.5c49.333 0 88.333 -14.333 117 -43s43 -68 43 -118v-390c36.667 30 70 51.333 100 64c44 18 98.667 27 164 27c139.333 0 256.333 -56.333 351 -169s142 -250.334 142 -413.001
c0 -164 -47.333 -302.333 -142 -415s-211.667 -169 -351 -169c-64 0 -115.167 7.83301 -153.5 23.5s-75.166 37.834 -110.499 66.501v-354c0 -108 -53.333 -162 -160 -162s-160 54 -160 162zM409.999 551c0 -79.333 19.333 -145 58 -197s92.334 -78 161.001 -78
c68 0 121.5 26.333 160.5 79s58.5 118 58.5 196s-18.333 141.333 -55 190c-40.667 54.667 -95.334 82 -164.001 82c-68 0 -121.5 -25.833 -160.5 -77.5s-58.5 -116.5 -58.5 -194.5z" />
    <glyph glyph-name="ydieresis" unicode="&#xff;" horiz-adv-x="1173" 
d="M76 963c0 46.667 15.334 83.168 46.001 109.501s67 39.5 109 39.5c78 0 132.667 -40.333 164 -121l189 -493l178 440c22 56 44.333 97 67 123c30 34 65.667 51 107 51c49.333 0 89 -14.333 119 -43s45 -68.334 45 -119.001c0 -19.333 -3.83301 -40.5 -11.5 -63.5
s-16.834 -48.833 -27.501 -77.5l-473 -1114c-23.333 -54.667 -43.333 -91 -60 -109c-27.333 -30 -65.333 -45 -114 -45c-50.667 0 -91 17 -121 51c-24.667 28.667 -37 59.667 -37 93c0 38 17.667 97.333 53 178l107 243l-273 656c-19.333 45.333 -35.333 86 -48 122
s-19 62.333 -19 79zM190.001 1432c0 44 15.5 81.834 46.5 113.501s68.833 47.5 113.5 47.5c44 0 81.667 -15.5 113 -46.5s47 -69.167 47 -114.5c0 -44 -15.333 -82 -46 -114s-68.667 -48 -114 -48c-44 0 -81.667 15.667 -113 47s-47 69.666 -47 114.999zM666.001 1432
c0 44 15.332 81.834 45.999 113.501s68.334 47.5 113.001 47.5c44 0 81.667 -15.5 113 -46.5s47 -69.167 47 -114.5c0 -44 -15.333 -82 -46 -114s-68.667 -48 -114 -48c-44 0 -81.5 15.667 -112.5 47s-46.5 69.666 -46.5 114.999z" />
    <glyph glyph-name="Amacron" unicode="&#x100;" horiz-adv-x="1306" 
d="M6 125c0 26 3.16895 52.999 9.50195 80.999s19.5 70 39.5 126l320 870c38 105.333 70.667 176.333 98 213c45.333 60 104.666 90 177.999 90c60 0 109.833 -17.667 149.5 -53s83.5 -118.666 131.5 -249.999l319 -870c22 -58.667 35.667 -101 41 -127s8 -52.667 8 -80
c0 -42 -14.333 -75.333 -43 -100s-67.334 -37 -116.001 -37c-50.667 0 -89.667 15 -117 45c-22 23.333 -41 63 -57 119l-41 131h-545l-41 -131c-18 -54.667 -37 -93.667 -57 -117c-27.333 -31.333 -66.333 -47 -117 -47c-48 0 -86.667 12.5 -116 37.5s-44 58.167 -44 99.5z
M279.002 1804c0 38 11.499 69.333 34.499 94s54.5 37 94.5 37h491c86 0 129 -43.667 129 -131c0 -39.333 -11.167 -71 -33.5 -95s-54.166 -36 -95.499 -36h-491c-86 0 -129 43.667 -129 131zM479.001 593.999h348l-165 539z" />
    <glyph glyph-name="amacron" unicode="&#x101;" horiz-adv-x="1165" 
d="M45 551c0 162.667 47.4971 300.334 142.497 413.001s212.167 169 351.5 169c62.667 0 114.834 -9 156.501 -27s80.834 -50 117.501 -96c13.333 28.667 31 51.667 53 69c27.333 22 59.666 33 96.999 33c46.667 0 84.834 -15.667 114.501 -47s44.5 -71 44.5 -119v-790
c0 -48 -14.667 -88 -44 -120s-67.666 -48 -114.999 -48c-34 0 -64.5 10.167 -91.5 30.5s-46.5 44.166 -58.5 71.499c-66.667 -82 -158 -123 -274 -123c-138 0 -254.833 56.667 -350.5 170s-143.5 251.333 -143.5 414zM208.997 1432c0 38 11.667 69.332 35 93.999
s54.666 37 93.999 37h491c86 0 129 -43.667 129 -131c0 -39.333 -11.167 -71.166 -33.5 -95.499s-54.166 -36.5 -95.499 -36.5h-491c-86 0 -129 44 -129 132zM364.997 550.999c0 -79.333 19.333 -145 58 -197s92.334 -78 161.001 -78c68 0 121.5 26.333 160.5 79
s58.5 118 58.5 196s-18.333 141.333 -55 190c-40.667 54.667 -95.334 82 -164.001 82c-68 0 -121.5 -25.833 -160.5 -77.5s-58.5 -116.5 -58.5 -194.5z" />
    <glyph glyph-name="Abreve" unicode="&#x102;" horiz-adv-x="1306" 
d="M6 125c0 26 3.16895 52.999 9.50195 80.999s19.5 70 39.5 126l320 870c38 105.333 70.667 176.333 98 213c45.333 60 104.666 90 177.999 90c60 0 109.833 -17.667 149.5 -53s83.5 -118.666 131.5 -249.999l319 -870c22 -58.667 35.667 -101 41 -127s8 -52.667 8 -80
c0 -42 -14.333 -75.333 -43 -100s-67.334 -37 -116.001 -37c-50.667 0 -89.667 15 -117 45c-22 23.333 -41 63 -57 119l-41 131h-545l-41 -131c-18 -54.667 -37 -93.667 -57 -117c-27.333 -31.333 -66.333 -47 -117 -47c-48 0 -86.667 12.5 -116 37.5s-44 58.167 -44 99.5z
M279.002 1882c0 86 38.665 129 115.998 129c44 0 82.333 -37.5 115 -112.5s80.334 -112.5 143.001 -112.5c61.333 0 108.333 37.5 141 112.5s71.667 112.5 117 112.5c38 0 67 -11.5 87 -34.5s30 -54.5 30 -94.5c0 -91.333 -36.167 -167 -108.5 -227
s-161.166 -90 -266.499 -90c-104 0 -192.333 29.667 -265 89s-109 135.333 -109 228zM479 593.999h348l-165 539z" />
    <glyph glyph-name="abreve" unicode="&#x103;" horiz-adv-x="1165" 
d="M45 551c0 162.667 47.4971 300.334 142.497 413.001s212.167 169 351.5 169c62.667 0 114.834 -9 156.501 -27s80.834 -50 117.501 -96c13.333 28.667 31 51.667 53 69c27.333 22 59.666 33 96.999 33c46.667 0 84.834 -15.667 114.501 -47s44.5 -71 44.5 -119v-790
c0 -48 -14.667 -88 -44 -120s-67.666 -48 -114.999 -48c-34 0 -64.5 10.167 -91.5 30.5s-46.5 44.166 -58.5 71.499c-66.667 -82 -158 -123 -274 -123c-138 0 -254.833 56.667 -350.5 170s-143.5 251.333 -143.5 414zM208.997 1509c0 86 39.001 129 117.001 129
c44 0 82.167 -37.5 114.5 -112.5s80.166 -112.5 143.499 -112.5c61.333 0 108.333 37.5 141 112.5s71.667 112.5 117 112.5c38 0 66.833 -11.5 86.5 -34.5s29.5 -54.5 29.5 -94.5c0 -91.333 -36.167 -167 -108.5 -227s-160.833 -90 -265.5 -90
c-104 0 -192.5 29.667 -265.5 89s-109.5 135.333 -109.5 228zM364.998 551c0 -79.333 19.333 -145 58 -197s92.334 -78 161.001 -78c68 0 121.5 26.333 160.5 79s58.5 118 58.5 196s-18.333 141.333 -55 190c-40.667 54.667 -95.334 82 -164.001 82
c-68 0 -121.5 -25.833 -160.5 -77.5s-58.5 -116.5 -58.5 -194.5z" />
    <glyph glyph-name="Aogonek" unicode="&#x104;" horiz-adv-x="1306" 
d="M6 125c0 26 3.16699 52.998 9.5 80.998s19.5 70 39.5 126l320 870c38 105.333 70.667 176.333 98 213c45.333 60 104.666 90 177.999 90c60 0 109.833 -17.667 149.5 -53s83.5 -118.666 131.5 -249.999l319 -870c22 -58.667 35.667 -101 41 -127s8 -52.667 8 -80
c0 -42 -7.5 -69.5 -22.5 -82.5s-23.167 -20.5 -24.5 -22.5h4c-39.333 -20.667 -76.666 -51.334 -111.999 -92.001c-39.333 -46.667 -59.333 -87.667 -60 -123c0 -53.333 24 -79.666 72 -78.999c6.66699 0 18.667 2.33301 36 7s32 7 44 7c28.667 0 43 -19 43 -57
c0 -35.333 -21.167 -63.666 -63.5 -84.999s-96.833 -32 -163.5 -32c-56 0 -101.5 15.333 -136.5 46s-52.5 72.667 -52.5 126c0 60 26.667 119.333 80 178c36 36.667 74.333 66.667 115 90c-12 6.66699 -23.667 15.667 -35 27c-22 23.333 -41 63 -57 119l-41 131h-545
l-41 -131c-18 -54.667 -37 -93.667 -57 -117c-27.333 -31.333 -66.333 -47 -117 -47c-48 0 -86.667 12.5 -116 37.5s-44 58.167 -44 99.5zM479 593.998h348l-165 539z" />
    <glyph glyph-name="aogonek" unicode="&#x105;" horiz-adv-x="1165" 
d="M45 551c0 162.667 47.499 300.333 142.499 413s212.167 169 351.5 169c62.667 0 114.834 -9 156.501 -27s80.834 -50 117.501 -96c13.333 28.667 31 51.667 53 69c27.333 22 59.666 33 96.999 33c46.667 0 84.834 -15.667 114.501 -47s44.5 -71 44.5 -119v-790
c0 -48 -14.333 -87.667 -43 -119c-24.667 -26 -54.667 -41.667 -90 -47c-22 -16.667 -43 -37.334 -63 -62.001c-39.333 -46.667 -59.333 -87.667 -60 -123c0 -53.333 24 -79.666 72 -78.999c6.66699 0 18.5 2.33301 35.5 7s31.833 7 44.5 7c28.667 0 43 -19 43 -57
c0 -35.333 -21.167 -63.666 -63.5 -84.999s-96.833 -32 -163.5 -32c-56 0 -101.5 15.333 -136.5 46s-52.5 72.667 -52.5 126c0 60 26.667 119.333 80 178c43.333 46 91.666 80.667 144.999 104c-26 19.333 -45 42.666 -57 69.999c-66.667 -82 -158 -123 -274 -123
c-138 0 -254.833 56.667 -350.5 170s-143.5 251.333 -143.5 414zM364.999 550.999c0 -79.333 19.333 -145 58 -197s92.334 -78 161.001 -78c68 0 121.5 26.333 160.5 79s58.5 118 58.5 196s-18.333 141.333 -55 190c-40.667 54.667 -95.334 82 -164.001 82
c-68 0 -121.5 -25.833 -160.5 -77.5s-58.5 -116.5 -58.5 -194.5z" />
    <glyph glyph-name="Cacute" unicode="&#x106;" horiz-adv-x="1191" 
d="M8 737c0 225.333 66.167 409.667 198.5 553s307.166 215 524.499 215c120 0 218.333 -16.333 295 -49c96.667 -40.667 145 -102 145 -184c0 -42 -13.167 -79.167 -39.5 -111.5s-60.833 -48.5 -103.5 -48.5c-13.333 0 -66.666 15.667 -159.999 47
c-49.333 16.667 -92.333 25 -129 25c-125.333 0 -220.666 -45.667 -285.999 -137c-58.667 -82 -88 -185.333 -88 -310c0 -124 30.333 -227.667 91 -311s145.667 -125 255 -125c68 0 126.167 7.5 174.5 22.5l150.5 47.5c57.333 0 98.333 -20.667 123 -62
c16.667 -27.333 25 -58.666 25 -93.999c0 -83.333 -53.333 -147.333 -160 -192c-87.333 -36.667 -187 -55.334 -299 -56.001c-222.667 0 -399.334 75.333 -530.001 226c-124 142 -186.333 323.333 -187 544zM395 1743c0 52 25.333 89.334 76 112.001l307 136
c9.33301 4 22 8 38 12s31.333 6 46 6c39.333 0 71.333 -13.667 96 -41s37 -61.333 37 -102c0 -53.333 -25 -91 -75 -113l-308 -135c-9.33301 -4 -21.833 -8.16699 -37.5 -12.5s-31.167 -6.5 -46.5 -6.5c-39.333 0 -71.333 13.667 -96 41s-37 61.666 -37 102.999z" />
    <glyph glyph-name="cacute" unicode="&#x107;" horiz-adv-x="999" 
d="M41 551c0 165.333 49.833 303.667 149.5 415s229.5 167 389.5 167c95.333 0 175.666 -13.667 240.999 -41c91.333 -38 137 -95.333 137 -172c0 -44 -12.5 -80 -37.5 -108s-56.167 -42 -93.5 -42c-23.333 0 -56 8.83301 -98 26.5s-85.667 26.5 -131 26.5
c-76.667 0 -135.5 -25.833 -176.5 -77.5s-61.5 -116.5 -61.5 -194.5c0 -79.333 19.5 -145 58.5 -197s92.833 -78 161.5 -78c46.667 0 89.334 6.16699 128.001 18.5l119 39.5c35.333 0 66 -15 92 -45s39 -63 39 -99c0 -72.667 -47 -130 -141 -172
c-76.667 -34 -155.667 -51 -237 -51c-160 0 -289.833 55.667 -389.5 167s-149.5 250.333 -149.5 417zM299 1370c0 52 25.333 89.667 76 113l307 135c9.33301 4 21.833 8 37.5 12s31.167 6 46.5 6c39.333 0 71.333 -13.667 96 -41s37 -61.333 37 -102
c0 -53.333 -25.333 -91 -76 -113l-307 -135c-9.33301 -4 -21.833 -8 -37.5 -12s-31.167 -6 -46.5 -6c-39.333 0 -71.333 13.667 -96 41s-37 61.333 -37 102z" />
    <glyph glyph-name="Ccircumflex" unicode="&#x108;" horiz-adv-x="1191" 
d="M8 737c0 225.333 66.167 409.667 198.5 553s307.166 215 524.499 215c120 0 218.333 -16.333 295 -49c96.667 -40.667 145 -102 145 -184c0 -42 -13.167 -79.167 -39.5 -111.5s-60.833 -48.5 -103.5 -48.5c-13.333 0 -66.666 15.667 -159.999 47
c-49.333 16.667 -92.333 25 -129 25c-125.333 0 -220.666 -45.667 -285.999 -137c-58.667 -82 -88 -185.333 -88 -310c0 -124 30.333 -227.667 91 -311s145.667 -125 255 -125c68 0 126.167 7.5 174.5 22.5l150.5 47.5c57.333 0 98.333 -20.667 123 -62
c16.667 -27.333 25 -58.666 25 -93.999c0 -83.333 -53.333 -147.333 -160 -192c-87.333 -36.667 -187 -55.334 -299 -56.001c-222.667 0 -399.334 75.333 -530.001 226c-124 142 -186.333 323.333 -187 544zM180 1724c0 44 7.16797 75.833 21.501 95.5
s43.5 39.834 87.5 60.501l180 84c12 5.33301 33.5 14.166 64.5 26.499s51.833 18.5 62.5 18.5c13.333 0 32.333 -5.16699 57 -15.5l70 -29.5l180 -84c40.667 -19.333 69 -39.833 85 -61.5s24 -53.167 24 -94.5c0 -35.333 -10.667 -65 -32 -89s-47 -36 -77 -36
c-20.667 0 -37.834 2.16699 -51.501 6.5s-33.167 12.5 -58.5 24.5l-197 92l-197 -92c-18 -8 -36.5 -15.167 -55.5 -21.5s-37.167 -9.5 -54.5 -9.5c-28.667 0 -54 11.667 -76 35s-33 53.333 -33 90z" />
    <glyph glyph-name="ccircumflex" unicode="&#x109;" horiz-adv-x="999" 
d="M41 551c0 165.333 49.833 303.667 149.5 415s229.5 167 389.5 167c95.333 0 175.666 -13.667 240.999 -41c91.333 -38 137 -95.333 137 -172c0 -44 -12.5 -80 -37.5 -108s-56.167 -42 -93.5 -42c-23.333 0 -56 8.83301 -98 26.5s-85.667 26.5 -131 26.5
c-76.667 0 -135.5 -25.833 -176.5 -77.5s-61.5 -116.5 -61.5 -194.5c0 -79.333 19.5 -145 58.5 -197s92.833 -78 161.5 -78c46.667 0 89.334 6.16699 128.001 18.5l119 39.5c35.333 0 66 -15 92 -45s39 -63 39 -99c0 -72.667 -47 -130 -141 -172
c-76.667 -34 -155.667 -51 -237 -51c-160 0 -289.833 55.667 -389.5 167s-149.5 250.333 -149.5 417zM84 1352c0 44 7.16699 75.835 21.5 95.502s43.5 39.5 87.5 59.5l180 84c12 5.33301 33.333 14.166 64 26.499s51.667 18.5 63 18.5c13.333 0 32.333 -5 57 -15
s48 -20 70 -30l180 -84c40.667 -19.333 68.834 -39.833 84.501 -61.5s23.5 -52.834 23.5 -93.501c0 -35.333 -10.5 -65 -31.5 -89s-46.5 -36 -76.5 -36c-20.667 0 -37.834 2 -51.501 6s-33.5 12 -59.5 24l-196 93l-197 -93c-18 -8 -36.5 -15 -55.5 -21s-37.167 -9 -54.5 -9
c-28.667 0 -54 11.5 -76 34.5s-33 53.167 -33 90.5z" />
    <glyph glyph-name="Cdotaccent" unicode="&#x10a;" horiz-adv-x="1191" 
d="M8 737c0 225.333 66.167 409.667 198.5 553s307.166 215 524.499 215c120 0 218.333 -16.333 295 -49c96.667 -40.667 145 -102 145 -184c0 -42 -13.167 -79.167 -39.5 -111.5s-60.833 -48.5 -103.5 -48.5c-13.333 0 -66.666 15.667 -159.999 47
c-49.333 16.667 -92.333 25 -129 25c-125.333 0 -220.666 -45.667 -285.999 -137c-58.667 -82 -88 -185.333 -88 -310c0 -124 30.333 -227.667 91 -311s145.667 -125 255 -125c68 0 126.167 7.5 174.5 22.5l150.5 47.5c57.333 0 98.333 -20.667 123 -62
c16.667 -27.333 25 -58.666 25 -93.999c0 -83.333 -53.333 -147.333 -160 -192c-87.333 -36.667 -187 -55.334 -299 -56.001c-222.667 0 -399.334 75.333 -530.001 226c-124 142 -186.333 323.333 -187 544zM436 1790c0 44 15.667 81.667 47 113s69 47 113 47
s81.667 -15.667 113 -47s47 -69 47 -113s-15.667 -81.667 -47 -113s-69 -47 -113 -47s-81.667 15.667 -113 47s-47 69 -47 113z" />
    <glyph glyph-name="cdotaccent" unicode="&#x10b;" horiz-adv-x="999" 
d="M41 551c0 165.333 49.833 303.667 149.5 415s229.5 167 389.5 167c95.333 0 175.666 -13.667 240.999 -41c91.333 -38 137 -95.333 137 -172c0 -44 -12.5 -80 -37.5 -108s-56.167 -42 -93.5 -42c-23.333 0 -56 8.83301 -98 26.5s-85.667 26.5 -131 26.5
c-76.667 0 -135.5 -25.833 -176.5 -77.5s-61.5 -116.5 -61.5 -194.5c0 -79.333 19.5 -145 58.5 -197s92.833 -78 161.5 -78c46.667 0 89.334 6.16699 128.001 18.5l119 39.5c35.333 0 66 -15 92 -45s39 -63 39 -99c0 -72.667 -47 -130 -141 -172
c-76.667 -34 -155.667 -51 -237 -51c-160 0 -289.833 55.667 -389.5 167s-149.5 250.333 -149.5 417zM340 1417c0 44 15.666 81.667 46.999 113s69 47 113 47s81.5 -15.667 112.5 -47s46.5 -69 46.5 -113s-15.667 -81.667 -47 -113s-68.666 -47 -111.999 -47
c-44 0 -81.667 15.833 -113 47.5s-47 69.167 -47 112.5z" />
    <glyph glyph-name="Ccaron" unicode="&#x10c;" horiz-adv-x="1191" 
d="M8 737c0 225.333 66.167 409.667 198.5 553s307.166 215 524.499 215c120 0 218.333 -16.333 295 -49c96.667 -40.667 145 -102 145 -184c0 -42 -13.167 -79.167 -39.5 -111.5s-60.833 -48.5 -103.5 -48.5c-13.333 0 -66.666 15.667 -159.999 47
c-49.333 16.667 -92.333 25 -129 25c-125.333 0 -220.666 -45.667 -285.999 -137c-58.667 -82 -88 -185.333 -88 -310c0 -124 30.333 -227.667 91 -311s145.667 -125 255 -125c68 0 126.167 7.5 174.5 22.5l150.5 47.5c57.333 0 98.333 -20.667 123 -62
c16.667 -27.333 25 -58.666 25 -93.999c0 -83.333 -53.333 -147.333 -160 -192c-87.333 -36.667 -187 -55.334 -299 -56.001c-222.667 0 -399.334 75.333 -530.001 226c-124 142 -186.333 323.333 -187 544zM180 1870c0 34 10.667 63 32 87s47 36 77 36
c20.667 0 39.667 -2.66699 57 -8c5.33301 -1.33301 23 -9 53 -23l197 -90l197 90c18 8 36.5 15.167 55.5 21.5s37.167 9.5 54.5 9.5c28.667 0 54 -11.667 76 -35s33 -52.666 33 -87.999c0 -44 -7.16699 -75.833 -21.5 -95.5s-43.5 -39.834 -87.5 -60.501l-180 -82l-72 -29.5
c-26 -10.333 -44.333 -15.5 -55 -15.5c-18 0 -44.667 7.66699 -80 23c-23.333 12 -39 19.333 -47 22l-180 82c-40.667 19.333 -69 39.833 -85 61.5s-24 53.167 -24 94.5z" />
    <glyph glyph-name="ccaron" unicode="&#x10d;" horiz-adv-x="999" 
d="M41 551c0 165.333 49.833 303.667 149.5 415s229.5 167 389.5 167c95.333 0 175.666 -13.667 240.999 -41c91.333 -38 137 -95.333 137 -172c0 -44 -12.5 -80 -37.5 -108s-56.167 -42 -93.5 -42c-23.333 0 -56 8.83301 -98 26.5s-85.667 26.5 -131 26.5
c-76.667 0 -135.5 -25.833 -176.5 -77.5s-61.5 -116.5 -61.5 -194.5c0 -79.333 19.5 -145 58.5 -197s92.833 -78 161.5 -78c46.667 0 89.334 6.16699 128.001 18.5l119 39.5c35.333 0 66 -15 92 -45s39 -63 39 -99c0 -72.667 -47 -130 -141 -172
c-76.667 -34 -155.667 -51 -237 -51c-160 0 -289.833 55.667 -389.5 167s-149.5 250.333 -149.5 417zM84 1497c0 34 10.498 63 31.498 87s46.833 36 77.5 36c20.667 0 39.667 -2.66699 57 -8c5.33301 -1.33301 23 -9 53 -23l197 -90l196 90c18 8 36.5 15.167 55.5 21.5
s37.5 9.5 55.5 9.5c28.667 0 53.834 -11.667 75.501 -35s32.5 -52.666 32.5 -87.999c0 -44 -7.16699 -75.833 -21.5 -95.5s-43.166 -39.834 -86.499 -60.501l-180 -81l-72 -30c-26 -10.667 -44.333 -16 -55 -16c-18 0 -44.667 7.66699 -80 23c-23.333 12 -39 19.667 -47 23
l-180 81c-40.667 19.333 -69 40 -85 62s-24 53.333 -24 94z" />
    <glyph glyph-name="Dcaron" unicode="&#x10e;" horiz-adv-x="1345" 
d="M51 168l0.00195312 1137c0 53.333 16 94.666 48 123.999s71.333 44 118 44h397c207.333 0 374.666 -74 501.999 -222c118.667 -138 178 -305.667 178 -503c0 -232 -68 -417 -204 -555c-126.667 -128.667 -285.334 -193 -476.001 -193h-397c-45.333 0 -84.333 15 -117 45
s-49 71 -49 123zM258.002 1870c0 34 10.667 63 32 87s47 36 77 36c20.667 0 39.667 -2.66699 57 -8c5.33301 -1.33301 23 -9 53 -23l197 -90l196 90c18 8 36.5 15.167 55.5 21.5s37.5 9.5 55.5 9.5c28.667 0 54 -11.667 76 -35s33 -52.666 33 -87.999
c0 -44 -7.16699 -75.833 -21.5 -95.5s-43.5 -39.834 -87.5 -60.501l-180 -82l-72 -29.5c-26 -10.333 -44.333 -15.5 -55 -15.5c-18 0 -44.667 7.66699 -80 23c-23.333 12 -39 19.333 -47 22l-180 82c-40.667 19.333 -69 39.833 -85 61.5s-24 53.167 -24 94.5z
M383.002 311.001l176 0.000976562c125.333 0 221 40.333 287 121c61.333 75.333 92 180.666 92 315.999c0 128.667 -30 229 -90 301c-64 76.667 -155.667 114.667 -275 114h-190v-852z" />
    <glyph glyph-name="dcaron" unicode="&#x10f;" horiz-adv-x="1470" 
d="M45 551c0 162.667 47.498 300.334 142.498 413.001s212.167 169 351.5 169c64 0 117.667 -9 161 -27c32.667 -13.333 67 -34.666 103 -63.999v383c0 48 14.667 88 44 120s68 48 116 48c46.667 0 84.834 -16.333 114.501 -49s44.5 -72.334 44.5 -119.001v-1269
c0 -48 -14.667 -88 -44 -120s-67.666 -48 -114.999 -48c-34 0 -64.5 10.167 -91.5 30.5s-46.5 44.166 -58.5 71.499c-66.667 -82 -158 -123 -274 -123c-138 0 -254.833 56.667 -350.5 170s-143.5 251.333 -143.5 414zM364.998 551c0 -79.333 19.333 -145 58 -197
s92.334 -78 161.001 -78c68 0 121.5 26.333 160.5 79s58.5 118 58.5 196s-18.333 141.333 -55 190c-40.667 54.667 -95.334 82 -164.001 82c-68 0 -121.5 -25.833 -160.5 -77.5s-58.5 -116.5 -58.5 -194.5zM1161 1087l-0.000976562 349c0 42 12.333 76.667 37 104
s57.334 41 98.001 41c42 0 75.167 -13.333 99.5 -40s36.5 -61.667 36.5 -105v-349c0 -42 -12.333 -76.667 -37 -104s-57.667 -41 -99 -41c-42 0 -75 13.333 -99 40s-36 61.667 -36 105z" />
    <glyph glyph-name="Dcroat" unicode="&#x110;" horiz-adv-x="1513" 
d="M43 748c0 39.333 11.668 70.668 35.001 94.001s54.666 35 93.999 35h55v428c0 53.333 16.167 94.666 48.5 123.999s71.5 44 117.5 44h398c207.333 0 374.333 -74 501 -222c118.667 -138 178 -305.667 178 -503c0 -232 -68 -417 -204 -555
c-126.667 -128.667 -285 -193 -475 -193h-398c-45.333 0 -84.333 15 -117 45s-49 71 -49 123v448h-55c-86 0 -129 44 -129 132zM559.001 311.002l176.002 0.000976562c125.333 0 221 40.333 287 121c61.333 75.333 92 180.666 92 315.999c0 128.667 -30 229 -90 301
c-64 76.667 -155.333 114.667 -274 114h-191v-286h168c39.333 0 70.666 -11.667 93.999 -35s35 -54.666 35 -93.999c0 -40.667 -10.833 -72.834 -32.5 -96.501s-53.834 -35.5 -96.501 -35.5h-168v-305z" />
    <glyph glyph-name="dcroat" unicode="&#x111;" horiz-adv-x="1341" 
d="M45 551c0 162.667 47.4961 300.334 142.496 413.001s212.167 169 351.5 169c64 0 117.667 -9 161 -27c32.667 -13.333 67 -34.666 103 -63.999v140h-86c-82 0 -123 35.333 -123 106c0 30 11.333 55.333 34 76s52.334 31 89.001 31h86v30c0 48 14.667 88 44 120
s68 48 116 48c46.667 0 84.834 -16.333 114.501 -49s44.5 -72.334 44.5 -119.001v-30h82c82 0 123 -35.667 123 -107c0 -31.333 -11.167 -56.833 -33.5 -76.5s-52.166 -29.5 -89.499 -29.5h-82v-1026c0 -48 -14.667 -88 -44 -120s-67.666 -48 -114.999 -48
c-34 0 -64.5 10.167 -91.5 30.5s-46.5 44.166 -58.5 71.499c-66.667 -82 -158 -123 -274 -123c-138 0 -254.833 56.667 -350.5 170s-143.5 251.333 -143.5 414zM364.996 551c0 -79.333 19.333 -145 58 -197s92.334 -78 161.001 -78c68 0 121.5 26.333 160.5 79
s58.5 118 58.5 196s-18.333 141.333 -55 190c-40.667 54.667 -95.334 82 -164.001 82c-68 0 -121.5 -25.833 -160.5 -77.5s-58.5 -116.5 -58.5 -194.5z" />
    <glyph glyph-name="Emacron" unicode="&#x112;" horiz-adv-x="931" 
d="M41 168v1137c0 53.333 16 94.666 48 123.999s71.333 44 118 44h508c53.333 0 94.333 -13.667 123 -41s43 -65.666 43 -114.999c0 -48 -14.333 -85.667 -43 -113s-69.667 -41 -123 -41h-342v-268h313c52 0 92.667 -13.667 122 -41s44 -65 44 -113
c0 -104 -55.333 -155.667 -166 -155h-313v-275h354c53.333 0 94.333 -13.667 123 -41s43 -65.333 43 -114c0 -48 -14.667 -86 -44 -114s-70 -42 -122 -42h-520c-45.333 0 -84.333 15 -117 45s-49 71 -49 123zM92 1804c0 38 11.6689 69.333 35.002 94s54.666 37 93.999 37
h492c86 0 129 -43.667 129 -131c0 -39.333 -11.333 -71 -34 -95s-54.334 -36 -95.001 -36h-492c-86 0 -129 43.667 -129 131z" />
    <glyph glyph-name="emacron" unicode="&#x113;" horiz-adv-x="1157" 
d="M41 551c0 160 52.501 297 157.501 411s238.833 171 401.5 171c151.333 0 277 -56 377 -168c94 -106.667 141 -233 141 -379c0 -53.333 -12.333 -90.333 -37 -111s-64 -31 -118 -31h-578c0 -44 17 -82 51 -114c45.333 -44 113.666 -66 204.999 -66
c58.667 0 123.5 17.167 194.5 51.5s115.5 51.5 133.5 51.5c38 0 69.667 -12.667 95 -38s38 -59.333 38 -102c0 -75.333 -51.5 -137.5 -154.5 -186.5s-218.833 -73.5 -347.5 -73.5c-166.667 0 -301.5 55.667 -404.5 167s-154.5 250.333 -154.5 417zM205.001 1432
c0 38 11.499 69.332 34.499 93.999s54.5 37 94.5 37h491c86 0 129 -43.667 129 -131c0 -39.333 -11.167 -71.166 -33.5 -95.499s-54.166 -36.5 -95.499 -36.5h-491c-86 0 -129 44 -129 132zM385 665.999h413.999c0 44 -18.667 85.667 -56 125
c-42 46.667 -92.333 69.667 -151 69c-57.333 0 -106.166 -21.833 -146.499 -65.5s-60.5 -86.5 -60.5 -128.5z" />
    <glyph glyph-name="Ebreve" unicode="&#x114;" horiz-adv-x="931" 
d="M41 168v1137c0 53.333 16 94.666 48 123.999s71.333 44 118 44h508c53.333 0 94.333 -13.667 123 -41s43 -65.666 43 -114.999c0 -48 -14.333 -85.667 -43 -113s-69.667 -41 -123 -41h-342v-268h313c52 0 92.667 -13.667 122 -41s44 -65 44 -113
c0 -104 -55.333 -155.667 -166 -155h-313v-275h354c53.333 0 94.333 -13.667 123 -41s43 -65.333 43 -114c0 -48 -14.667 -86 -44 -114s-70 -42 -122 -42h-520c-45.333 0 -84.333 15 -117 45s-49 71 -49 123zM92 1882c0 86 38.998 129 116.998 129
c44 0 82.333 -37.5 115 -112.5s80.334 -112.5 143.001 -112.5c61.333 0 108.333 37.5 141 112.5s71.667 112.5 117 112.5c38 0 67 -11.5 87 -34.5s30 -54.5 30 -94.5c0 -91.333 -36.167 -167 -108.5 -227s-161.166 -90 -266.499 -90c-104 0 -192.5 29.667 -265.5 89
s-109.5 135.333 -109.5 228z" />
    <glyph glyph-name="ebreve" unicode="&#x115;" horiz-adv-x="1157" 
d="M41 551c0 160 52.501 297 157.501 411s238.833 171 401.5 171c151.333 0 277 -56 377 -168c94 -106.667 141 -233 141 -379c0 -53.333 -12.333 -90.333 -37 -111s-64 -31 -118 -31h-578c0 -44 17 -82 51 -114c45.333 -44 113.666 -66 204.999 -66
c58.667 0 123.5 17.167 194.5 51.5s115.5 51.5 133.5 51.5c38 0 69.667 -12.667 95 -38s38 -59.333 38 -102c0 -75.333 -51.5 -137.5 -154.5 -186.5s-218.833 -73.5 -347.5 -73.5c-166.667 0 -301.5 55.667 -404.5 167s-154.5 250.333 -154.5 417zM205.001 1509
c0 86 39.001 129 117.001 129c44 0 82.167 -37.5 114.5 -112.5s80.166 -112.5 143.499 -112.5c61.333 0 108.333 37.5 141 112.5s71.667 112.5 117 112.5c38 0 66.833 -11.5 86.5 -34.5s29.5 -54.5 29.5 -94.5c0 -91.333 -36.167 -167 -108.5 -227s-160.833 -90 -265.5 -90
c-104 0 -192.5 29.667 -265.5 89s-109.5 135.333 -109.5 228zM385.002 666h413.999c0 44 -18.667 85.667 -56 125c-42 46.667 -92.333 69.667 -151 69c-57.333 0 -106.166 -21.833 -146.499 -65.5s-60.5 -86.5 -60.5 -128.5z" />
    <glyph glyph-name="Edotaccent" unicode="&#x116;" horiz-adv-x="931" 
d="M41 168v1137c0 53.333 16 94.666 48 123.999s71.333 44 118 44h508c53.333 0 94.333 -13.667 123 -41s43 -65.666 43 -114.999c0 -48 -14.333 -85.667 -43 -113s-69.667 -41 -123 -41h-342v-268h313c52 0 92.667 -13.667 122 -41s44 -65 44 -113
c0 -104 -55.333 -155.667 -166 -155h-313v-275h354c53.333 0 94.333 -13.667 123 -41s43 -65.333 43 -114c0 -48 -14.667 -86 -44 -114s-70 -42 -122 -42h-520c-45.333 0 -84.333 15 -117 45s-49 71 -49 123zM307 1790c0 44 15.667 81.667 47 113s69 47 113 47
s81.667 -15.667 113 -47s47 -69 47 -113s-15.833 -81.667 -47.5 -113s-69.167 -47 -112.5 -47c-44 0 -81.667 15.667 -113 47s-47 69 -47 113z" />
    <glyph glyph-name="edotaccent" unicode="&#x117;" horiz-adv-x="1157" 
d="M41 551c0 160 52.501 297 157.501 411s238.833 171 401.5 171c151.333 0 277 -56 377 -168c94 -106.667 141 -233 141 -379c0 -53.333 -12.333 -90.333 -37 -111s-64 -31 -118 -31h-578c0 -44 17 -82 51 -114c45.333 -44 113.666 -66 204.999 -66
c58.667 0 123.5 17.167 194.5 51.5s115.5 51.5 133.5 51.5c38 0 69.667 -12.667 95 -38s38 -59.333 38 -102c0 -75.333 -51.5 -137.5 -154.5 -186.5s-218.833 -73.5 -347.5 -73.5c-166.667 0 -301.5 55.667 -404.5 167s-154.5 250.333 -154.5 417zM385.001 666h413.999
c0 44 -18.667 85.667 -56 125c-42 46.667 -92.333 69.667 -151 69c-57.333 0 -106.166 -21.833 -146.499 -65.5s-60.5 -86.5 -60.5 -128.5zM420 1417c0 44 15.666 81.667 46.999 113s69 47 113 47s81.5 -15.667 112.5 -47s46.5 -69 46.5 -113s-15.667 -81.667 -47 -113
s-68.666 -47 -111.999 -47c-44 0 -81.667 15.833 -113 47.5s-47 69.167 -47 112.5z" />
    <glyph glyph-name="Eogonek" unicode="&#x118;" horiz-adv-x="931" 
d="M41 168v1137c0 53.333 16 94.666 48 123.999s71.333 44 118 44h508c53.333 0 94.333 -13.667 123 -41s43 -65.666 43 -114.999c0 -48 -14.333 -85.667 -43 -113s-69.667 -41 -123 -41h-342v-268h313c52 0 92.667 -13.667 122 -41s44 -65 44 -113
c0 -104 -55.333 -155.667 -166 -155h-313v-275h354c53.333 0 94.333 -13.667 123 -41s43 -65.333 43 -114c0 -48 -14.667 -86 -44 -114s-70 -42 -122 -42h-520c-45.333 0 -84.333 15 -117 45s-49 71 -49 123zM334 -262c0 60 26.666 119.332 79.999 177.999
c43.333 46 92.333 80.667 147 104h166c-39.333 -20.667 -77 -51.334 -113 -92.001c-39.333 -46.667 -59 -87.667 -59 -123c0 -53.333 24 -79.666 72 -78.999c6.66699 0 18.5 2.33301 35.5 7s31.833 7 44.5 7c28.667 0 43 -19 43 -57
c0 -35.333 -21.167 -63.666 -63.5 -84.999s-97.166 -32 -164.499 -32c-56 0 -101.333 15.333 -136 46s-52 72.667 -52 126z" />
    <glyph glyph-name="eogonek" unicode="&#x119;" horiz-adv-x="1157" 
d="M41 551c0 160 52.501 297 157.501 411s238.833 171 401.5 171c151.333 0 277 -56 377 -168c94 -106.667 141 -233 141 -379c0 -53.333 -12.333 -90.333 -37 -111s-64 -31 -118 -31h-578c0 -44 17 -82 51 -114c45.333 -44 113.666 -66 204.999 -66
c58.667 0 123.5 17.167 194.5 51.5s115.5 51.5 133.5 51.5c38 0 69.667 -12.667 95 -38s38 -59.333 38 -102c0 -75.333 -51.5 -137.5 -154.5 -186.5s-218.833 -73.5 -347.5 -73.5c-166.667 0 -301.5 55.667 -404.5 167s-154.5 250.333 -154.5 417zM385.001 666h413.999
c0 44 -18.667 85.667 -56 125c-42 46.667 -92.333 69.667 -151 69c-57.333 0 -106.166 -21.833 -146.499 -65.5s-60.5 -86.5 -60.5 -128.5zM588 -217c0 60 26.666 119.331 79.999 177.998c43.333 46.667 92.333 81.667 147 105h166c-39.333 -20.667 -77 -51.667 -113 -93
c-39.333 -46.667 -59 -87.667 -59 -123c0 -53.333 24 -79.666 72 -78.999c6.66699 0 18.5 2.33301 35.5 7s31.833 7 44.5 7c28.667 0 43 -19 43 -57c0 -35.333 -21.167 -63.666 -63.5 -84.999s-97.166 -32 -164.499 -32c-56 0 -101.333 15.333 -136 46s-52 72.667 -52 126z
" />
    <glyph glyph-name="Ecaron" unicode="&#x11a;" horiz-adv-x="931" 
d="M41 168v1137c0 53.333 16 94.666 48 123.999s71.333 44 118 44h508c53.333 0 94.333 -13.667 123 -41s43 -65.666 43 -114.999c0 -48 -14.333 -85.667 -43 -113s-69.667 -41 -123 -41h-342v-268h313c52 0 92.667 -13.667 122 -41s44 -65 44 -113
c0 -104 -55.333 -155.667 -166 -155h-313v-275h354c53.333 0 94.333 -13.667 123 -41s43 -65.333 43 -114c0 -48 -14.667 -86 -44 -114s-70 -42 -122 -42h-520c-45.333 0 -84.333 15 -117 45s-49 71 -49 123zM51 1870c0 34 10.667 63 32 87s47 36 77 36
c20.667 0 39.667 -2.66699 57 -8c5.33301 -1.33301 23 -9 53 -23l197 -90l197 90c18 8 36.5 15.167 55.5 21.5s37.167 9.5 54.5 9.5c28.667 0 54 -11.667 76 -35s33 -52.666 33 -87.999c0 -44 -7.16699 -75.833 -21.5 -95.5s-43.5 -39.834 -87.5 -60.501l-180 -82l-72 -29.5
c-26 -10.333 -44.333 -15.5 -55 -15.5c-18 0 -44.667 7.66699 -80 23c-23.333 12 -39 19.333 -47 22l-180 82c-40.667 19.333 -69 39.833 -85 61.5s-24 53.167 -24 94.5z" />
    <glyph glyph-name="ecaron" unicode="&#x11b;" horiz-adv-x="1157" 
d="M41 551c0 160 52.501 297 157.501 411s238.833 171 401.5 171c151.333 0 277 -56 377 -168c94 -106.667 141 -233 141 -379c0 -53.333 -12.333 -90.333 -37 -111s-64 -31 -118 -31h-578c0 -44 17 -82 51 -114c45.333 -44 113.666 -66 204.999 -66
c58.667 0 123.5 17.167 194.5 51.5s115.5 51.5 133.5 51.5c38 0 69.667 -12.667 95 -38s38 -59.333 38 -102c0 -75.333 -51.5 -137.5 -154.5 -186.5s-218.833 -73.5 -347.5 -73.5c-166.667 0 -301.5 55.667 -404.5 167s-154.5 250.333 -154.5 417zM164.001 1497
c0 34 10.499 63 31.499 87s46.5 36 76.5 36c20.667 0 40 -2.66699 58 -8c5.33301 -1.33301 23 -9 53 -23l197 -90l196 90c18 8 36.5 15.167 55.5 21.5s37.5 9.5 55.5 9.5c28.667 0 53.834 -11.667 75.501 -35s32.5 -52.666 32.5 -87.999c0 -44 -7.16699 -75.833 -21.5 -95.5
s-43.166 -39.834 -86.499 -60.501l-180 -81l-72 -30c-26 -10.667 -44.333 -16 -55 -16c-18 0 -44.667 7.66699 -80 23c-23.333 12 -39 19.667 -47 23l-181 81c-40.667 19.333 -68.834 40 -84.501 62s-23.5 53.333 -23.5 94zM385 666h413.999c0 44 -18.667 85.667 -56 125
c-42 46.667 -92.333 69.667 -151 69c-57.333 0 -106.166 -21.833 -146.499 -65.5s-60.5 -86.5 -60.5 -128.5z" />
    <glyph glyph-name="Gcircumflex" unicode="&#x11c;" horiz-adv-x="1468" 
d="M43 737c0 222.667 67.667 406.335 203 551.002s306.666 217 513.999 217c148.667 0 277 -27.333 385 -82c120 -61.333 180 -141 180 -239c0 -44 -13.333 -78.667 -40 -104s-63 -38 -109 -38c-31.333 0 -85.666 25.667 -162.999 77s-157 77 -239 77
c-113.333 0 -204.166 -43.333 -272.499 -130s-102.5 -196.334 -102.5 -329.001c0 -126.667 28.667 -231.667 86 -315c66.667 -96.667 161 -145.334 283 -146.001c87.333 0 159 26 215 78s88 121.667 96 209h-190c-53.333 0 -94.333 13.667 -123 41s-43 65 -43 113
c0 104 55.333 155.667 166 155h358c117.333 0 176 -68 176 -204c0 -202 -59.333 -368 -178 -498c-122.667 -135.333 -284.334 -203 -485.001 -203c-222.667 0 -399.667 75.333 -531 226c-124 142 -186 323.333 -186 544zM317 1724c0 44 7.16699 75.833 21.5 95.5
s43.5 39.834 87.5 60.501l180 84c12 5.33301 33.5 14.166 64.5 26.499s51.833 18.5 62.5 18.5c13.333 0 32.333 -5.16699 57 -15.5l70 -29.5l180 -84c40.667 -19.333 69 -39.833 85 -61.5s24 -53.167 24 -94.5c0 -35.333 -10.667 -65 -32 -89s-47 -36 -77 -36
c-20.667 0 -37.667 2.16699 -51 6.5s-33 12.5 -59 24.5l-197 92l-196 -92c-18 -8 -36.5 -15.167 -55.5 -21.5s-37.5 -9.5 -55.5 -9.5c-28.667 0 -54 11.667 -76 35s-33 53.333 -33 90z" />
    <glyph glyph-name="gcircumflex" unicode="&#x11d;" horiz-adv-x="1206" 
d="M66 551c0 162.667 47.3311 300.337 141.998 413.004s211.667 169 351 169c62.667 0 114.834 -9 156.501 -27s81.167 -50 118.5 -96c13.333 28.667 31 51.667 53 69c27.333 22 59.333 33 96 33c46.667 0 85 -15.667 115 -47s45 -71 45 -119v-837
c0 -194 -57.333 -340.333 -172 -439c-101.333 -86 -237.333 -129 -408 -129c-108 0 -208.333 17.667 -301 53c-117.333 45.333 -176 107.666 -176 186.999c0 35.333 14 67.666 42 96.999s58.333 44 91 44c27.333 0 60 -9.33301 98 -28c90 -45.333 170 -68 240 -68
c95.333 0 163.5 24.167 204.5 72.5s61.5 119.833 61.5 214.5c-34 -46.667 -79 -80.334 -135 -101.001c-45.333 -16.667 -98.666 -24.667 -159.999 -24c-146 0 -261.333 57.333 -346 172c-78 105.333 -116.667 235.666 -116 390.999zM187.998 1352
c0 44 7.16699 75.835 21.5 95.502s43.5 39.5 87.5 59.5l180 84c12 5.33301 33.5 14.166 64.5 26.499s51.833 18.5 62.5 18.5c13.333 0 32.333 -5 57 -15s48 -20 70 -30l180 -84c40.667 -19.333 69 -39.833 85 -61.5s24 -52.834 24 -93.501c0 -35.333 -10.667 -65 -32 -89
s-47 -36 -77 -36c-20.667 0 -37.667 2 -51 6s-33 12 -59 24l-197 93l-196 -93c-18 -8 -36.5 -15 -55.5 -21s-37.5 -9 -55.5 -9c-28.667 0 -54 11.5 -76 34.5s-33 53.167 -33 90.5zM384.998 551.005c0 -83.333 19.168 -150.668 57.501 -202.001s92.166 -77 161.499 -77
c68 0 121.5 26.333 160.5 79s58.5 119.334 58.5 200.001c0 78 -18.333 141.333 -55 190c-41.333 54.667 -96 82 -164 82s-121.5 -25.833 -160.5 -77.5s-58.5 -116.5 -58.5 -194.5z" />
    <glyph glyph-name="Gbreve" unicode="&#x11e;" horiz-adv-x="1468" 
d="M43 737c0 222.667 67.667 406.335 203 551.002s306.666 217 513.999 217c148.667 0 277 -27.333 385 -82c120 -61.333 180 -141 180 -239c0 -44 -13.333 -78.667 -40 -104s-63 -38 -109 -38c-31.333 0 -85.666 25.667 -162.999 77s-157 77 -239 77
c-113.333 0 -204.166 -43.333 -272.499 -130s-102.5 -196.334 -102.5 -329.001c0 -126.667 28.667 -231.667 86 -315c66.667 -96.667 161 -145.334 283 -146.001c87.333 0 159 26 215 78s88 121.667 96 209h-190c-53.333 0 -94.333 13.667 -123 41s-43 65 -43 113
c0 104 55.333 155.667 166 155h358c117.333 0 176 -68 176 -204c0 -202 -59.333 -368 -178 -498c-122.667 -135.333 -284.334 -203 -485.001 -203c-222.667 0 -399.667 75.333 -531 226c-124 142 -186 323.333 -186 544zM358 1882c0 86 38.998 129 116.998 129
c44 0 82.333 -37.5 115 -112.5s80.334 -112.5 143.001 -112.5c61.333 0 108.333 37.5 141 112.5s71.667 112.5 117 112.5c38 0 67 -11.5 87 -34.5s30 -54.5 30 -94.5c0 -91.333 -36.167 -167 -108.5 -227s-161.166 -90 -266.499 -90c-104 0 -192.5 29.667 -265.5 89
s-109.5 135.333 -109.5 228z" />
    <glyph glyph-name="gbreve" unicode="&#x11f;" horiz-adv-x="1206" 
d="M66 551c0 162.667 47.3311 300.337 141.998 413.004s211.667 169 351 169c62.667 0 114.834 -9 156.501 -27s81.167 -50 118.5 -96c13.333 28.667 31 51.667 53 69c27.333 22 59.333 33 96 33c46.667 0 85 -15.667 115 -47s45 -71 45 -119v-837
c0 -194 -57.333 -340.333 -172 -439c-101.333 -86 -237.333 -129 -408 -129c-108 0 -208.333 17.667 -301 53c-117.333 45.333 -176 107.666 -176 186.999c0 35.333 14 67.666 42 96.999s58.333 44 91 44c27.333 0 60 -9.33301 98 -28c90 -45.333 170 -68 240 -68
c95.333 0 163.5 24.167 204.5 72.5s61.5 119.833 61.5 214.5c-34 -46.667 -79 -80.334 -135 -101.001c-45.333 -16.667 -98.666 -24.667 -159.999 -24c-146 0 -261.333 57.333 -346 172c-78 105.333 -116.667 235.666 -116 390.999zM228.998 1509
c0 86 38.998 129 116.998 129c44 0 82.333 -37.5 115 -112.5s80.334 -112.5 143.001 -112.5c61.333 0 108.333 37.5 141 112.5s71.667 112.5 117 112.5c38 0 67 -11.5 87 -34.5s30 -54.5 30 -94.5c0 -91.333 -36.167 -167 -108.5 -227s-161.166 -90 -266.499 -90
c-104 0 -192.5 29.667 -265.5 89s-109.5 135.333 -109.5 228zM384.996 551.003c0 -83.333 19.168 -150.668 57.501 -202.001s92.166 -77 161.499 -77c68 0 121.5 26.333 160.5 79s58.5 119.334 58.5 200.001c0 78 -18.333 141.333 -55 190c-41.333 54.667 -96 82 -164 82
s-121.5 -25.833 -160.5 -77.5s-58.5 -116.5 -58.5 -194.5z" />
    <glyph glyph-name="Gdotaccent" unicode="&#x120;" horiz-adv-x="1468" 
d="M43 737c0 222.667 67.667 406.335 203 551.002s306.666 217 513.999 217c148.667 0 277 -27.333 385 -82c120 -61.333 180 -141 180 -239c0 -44 -13.333 -78.667 -40 -104s-63 -38 -109 -38c-31.333 0 -85.666 25.667 -162.999 77s-157 77 -239 77
c-113.333 0 -204.166 -43.333 -272.499 -130s-102.5 -196.334 -102.5 -329.001c0 -126.667 28.667 -231.667 86 -315c66.667 -96.667 161 -145.334 283 -146.001c87.333 0 159 26 215 78s88 121.667 96 209h-190c-53.333 0 -94.333 13.667 -123 41s-43 65 -43 113
c0 104 55.333 155.667 166 155h358c117.333 0 176 -68 176 -204c0 -202 -59.333 -368 -178 -498c-122.667 -135.333 -284.334 -203 -485.001 -203c-222.667 0 -399.667 75.333 -531 226c-124 142 -186 323.333 -186 544zM573 1790c0 44 15.833 81.667 47.5 113
s69.167 47 112.5 47c44 0 81.667 -15.667 113 -47s47 -69 47 -113s-15.667 -81.667 -47 -113s-69 -47 -113 -47s-81.667 15.667 -113 47s-47 69 -47 113z" />
    <glyph glyph-name="gdotaccent" unicode="&#x121;" horiz-adv-x="1206" 
d="M66 551c0 162.667 47.3311 300.337 141.998 413.004s211.667 169 351 169c62.667 0 114.834 -9 156.501 -27s81.167 -50 118.5 -96c13.333 28.667 31 51.667 53 69c27.333 22 59.333 33 96 33c46.667 0 85 -15.667 115 -47s45 -71 45 -119v-837
c0 -194 -57.333 -340.333 -172 -439c-101.333 -86 -237.333 -129 -408 -129c-108 0 -208.333 17.667 -301 53c-117.333 45.333 -176 107.666 -176 186.999c0 35.333 14 67.666 42 96.999s58.333 44 91 44c27.333 0 60 -9.33301 98 -28c90 -45.333 170 -68 240 -68
c95.333 0 163.5 24.167 204.5 72.5s61.5 119.833 61.5 214.5c-34 -46.667 -79 -80.334 -135 -101.001c-45.333 -16.667 -98.666 -24.667 -159.999 -24c-146 0 -261.333 57.333 -346 172c-78 105.333 -116.667 235.666 -116 390.999zM384.998 551.003
c0 -83.333 19.168 -150.668 57.501 -202.001s92.166 -77 161.499 -77c68 0 121.5 26.333 160.5 79s58.5 119.334 58.5 200.001c0 78 -18.333 141.333 -55 190c-41.333 54.667 -96 82 -164 82s-121.5 -25.833 -160.5 -77.5s-58.5 -116.5 -58.5 -194.5zM443.999 1417
c0 44 15.833 81.667 47.5 113s69.167 47 112.5 47c44 0 81.667 -15.667 113 -47s47 -69 47 -113s-15.667 -81.667 -47 -113s-69 -47 -113 -47s-81.667 15.833 -113 47.5s-47 69.167 -47 112.5z" />
    <glyph glyph-name="uni0122" unicode="&#x122;" horiz-adv-x="1458" 
d="M43 737c0 222.667 67.667 406.335 203 551.002s306.666 217 513.999 217c148.667 0 277 -27.333 385 -82c120 -61.333 180 -141 180 -239c0 -44 -13.333 -78.667 -40 -104s-63 -38 -109 -38c-31.333 0 -85.666 25.667 -162.999 77s-157 77 -239 77
c-113.333 0 -204.166 -43.333 -272.499 -130s-102.5 -196.334 -102.5 -329.001c0 -126.667 28.667 -231.667 86 -315c66.667 -96.667 161 -145.334 283 -146.001c87.333 0 159 26 215 78s88 121.667 96 209h-190c-53.333 0 -94.333 13.667 -123 41s-43 65 -43 113
c0 104 55.333 155.667 166 155h358c117.333 0 176 -68 176 -204c0 -202 -59.333 -368 -178 -498c-122.667 -135.333 -284.334 -203 -485.001 -203c-222.667 0 -399.667 75.333 -531 226c-124 142 -186 323.333 -186 544zM463 -476.999c0 15.333 2.33301 29.001 7 41.001
s10.334 25 17.001 39l136 241c12 24.667 26.333 43.334 43 56.001c22 15.333 46.333 22.666 73 21.999c35.333 0 64.666 -10.5 87.999 -31.5s35 -47.833 35 -80.5c0 -15.333 -2 -29.833 -6 -43.5s-10 -25.834 -18 -36.501l-133 -244
c-13.333 -23.333 -29.333 -41.833 -48 -55.5s-41.667 -20.5 -69 -20.5c-35.333 0 -65 10.667 -89 32s-36 48.333 -36 81z" />
    <glyph glyph-name="uni0123" unicode="&#x123;" horiz-adv-x="1198" 
d="M66 551c0 162.667 47.3311 300.337 141.998 413.004s211.667 169 351 169c62.667 0 114.834 -9 156.501 -27s81.167 -50 118.5 -96c13.333 28.667 31 51.667 53 69c27.333 22 59.333 33 96 33c46.667 0 85 -15.667 115 -47s45 -71 45 -119v-837
c0 -194 -57.333 -340.333 -172 -439c-101.333 -86 -237.333 -129 -408 -129c-108 0 -208.333 17.667 -301 53c-117.333 45.333 -176 107.666 -176 186.999c0 35.333 14 67.666 42 96.999s58.333 44 91 44c27.333 0 60 -9.33301 98 -28c90 -45.333 170 -68 240 -68
c95.333 0 163.5 24.167 204.5 72.5s61.5 119.833 61.5 214.5c-34 -46.667 -79 -80.334 -135 -101.001c-45.333 -16.667 -98.666 -24.667 -159.999 -24c-146 0 -261.333 57.333 -346 172c-78 105.333 -116.667 235.666 -116 390.999zM384.998 551.003
c0 -83.333 19.168 -150.668 57.501 -202.001s92.166 -77 161.499 -77c68 0 121.5 26.333 160.5 79s58.5 119.334 58.5 200.001c0 78 -18.333 141.333 -55 190c-41.333 54.667 -96 82 -164 82s-121.5 -25.833 -160.5 -77.5s-58.5 -116.5 -58.5 -194.5zM546.999 1296
c0 13.333 2.00098 25.335 6.00098 36.002s9.33301 22 16 34l117 213c12 22 25 37.667 39 47c18 13.333 39 20.333 63 21c31.333 0 57.333 -9.33301 78 -28s31 -42.334 31 -71.001c0 -13.333 -1.66699 -25.833 -5 -37.5s-8.33301 -22.834 -15 -33.501l-119 -211
c-10.667 -22 -24.334 -38.833 -41.001 -50.5s-36.667 -17.5 -60 -17.5c-32.667 0 -59.167 9.16699 -79.5 27.5s-30.5 41.833 -30.5 70.5z" />
    <glyph glyph-name="Hcircumflex" unicode="&#x124;" horiz-adv-x="1433" 
d="M76 166v1141c0 57.333 15.333 101.333 46 132s70.667 46 120 46c50.667 0 91 -15 121 -45s45 -74.333 45 -133v-398h618v398c0 57.333 15.333 101.333 46 132s70.667 46 120 46c50.667 0 91 -15 121 -45s45 -74.333 45 -133v-1141c0 -57.333 -15.333 -101.333 -46 -132
s-70.667 -46 -120 -46c-50.667 0 -91 15 -121 45s-45 74.333 -45 133v434h-618v-434c0 -57.333 -15.5 -101.333 -46.5 -132s-70.833 -46 -119.5 -46c-50.667 0 -91 15 -121 45s-45 74.333 -45 133zM301 1724c0 44 7.16797 75.833 21.501 95.5s43.5 39.834 87.5 60.501
l180 84c12 5.33301 33.333 14.166 64 26.499s51.667 18.5 63 18.5c13.333 0 32.333 -5.16699 57 -15.5l70 -29.5l180 -84c40.667 -19.333 69 -39.833 85 -61.5s24 -53.167 24 -94.5c0 -35.333 -10.667 -65 -32 -89s-47 -36 -77 -36c-20.667 0 -37.834 2.16699 -51.501 6.5
s-33.5 12.5 -59.5 24.5l-196 92l-197 -92c-18 -8 -36.5 -15.167 -55.5 -21.5s-37.167 -9.5 -54.5 -9.5c-28.667 0 -54 11.667 -76 35s-33 53.333 -33 90z" />
    <glyph glyph-name="hcircumflex" unicode="&#x125;" horiz-adv-x="1157" 
d="M-174 1700c0 44 7.16895 75.834 21.502 95.501s43.166 39.5 86.499 59.5l181 84c12 5.33301 33.333 14.333 64 27s51.667 19 63 19c13.333 0 32.333 -5.16699 57 -15.5l70 -30.5l180 -84c40.667 -19.333 68.834 -39.833 84.501 -61.5s23.5 -52.834 23.5 -93.501
c0 -35.333 -10.5 -65 -31.5 -89s-46.5 -36 -76.5 -36c-20.667 0 -37.834 2 -51.501 6s-33.5 12.333 -59.5 25l-196 92l-197 -92c-18 -8 -36.5 -15.167 -55.5 -21.5s-37.5 -9.5 -55.5 -9.5c-28.667 0 -53.834 11.667 -75.501 35s-32.5 53.333 -32.5 90zM82.002 156.001
l-0.000976562 1269c0 48 14.667 88 44 120s68 48 116 48c46.667 0 84.834 -16.333 114.501 -49s44.5 -72.334 44.5 -119.001v-372c54.667 32.667 102.5 54.167 143.5 64.5s84.833 15.5 131.5 15.5c117.333 0 210.666 -30.333 279.999 -91c78 -66.667 117 -162.667 117 -288
v-598c0 -48 -14.667 -88 -44 -120s-68 -48 -116 -48c-46.667 0 -84.834 15.667 -114.501 47s-44.5 71.666 -44.5 120.999v510c0 57.333 -15.333 104 -46 140s-74 54 -130 54c-53.333 0 -96.166 -18 -128.499 -54s-48.5 -82.667 -48.5 -140v-510c0 -48 -14.667 -88 -44 -120
s-67.666 -48 -114.999 -48c-46.667 0 -85 15.667 -115 47s-45 71.666 -45 120.999z" />
    <glyph glyph-name="Hbar" unicode="&#x126;" horiz-adv-x="1433" 
d="M-100 1194c0 31.333 11.5 57.333 34.5 78s53.833 31 92.5 31h47v4c0 57.333 15.333 101.333 46 132s70.667 46 120 46c50.667 0 91 -15 121 -45s45 -74.333 45 -133v-4h618v4c0 57.333 15.333 101.333 46 132s70.667 46 120 46c50.667 0 91 -15 121 -45
s45 -74.333 45 -133v-4h45c84.667 0 127 -36.333 127 -109c0 -31.333 -11.667 -57.333 -35 -78s-54 -31 -92 -31h-45v-919c0 -57.333 -15.333 -101.333 -46 -132s-70.667 -46 -120 -46c-50.667 0 -91 15 -121 45s-45 74.333 -45 133v434h-618v-434
c0 -57.333 -15.5 -101.333 -46.5 -132s-70.833 -46 -119.5 -46c-50.667 0 -91 15 -121 45s-45 74.333 -45 133v919h-47c-84.667 0 -127 36.333 -127 109zM406 909h618v176h-618v-176z" />
    <glyph glyph-name="hbar" unicode="&#x127;" horiz-adv-x="1343" 
d="M23 1300c0 34 12.499 62.3359 37.499 85.0029s58.167 34 99.5 34h108v6c0 48 14.667 88 44 120s68 48 116 48c46.667 0 85 -16.333 115 -49s45 -72.334 45 -119.001v-6h284c91.333 0 137.333 -39.667 138 -119c0 -35.333 -12.667 -63.833 -38 -85.5
s-58.666 -32.5 -99.999 -32.5h-284v-129c54.667 32.667 102.5 54.167 143.5 64.5s84.5 15.5 130.5 15.5c117.333 0 211 -30.333 281 -91c78 -66.667 117 -162.667 117 -288v-598c0 -48 -14.833 -88 -44.5 -120s-68.167 -48 -115.5 -48c-46.667 0 -85 15.667 -115 47
s-45 71.666 -45 120.999v510c0 57.333 -15.333 104 -46 140s-74 54 -130 54c-53.333 0 -96 -18 -128 -54s-48 -82.667 -48 -140v-510c0 -48 -14.667 -88 -44 -120s-68 -48 -116 -48c-46.667 0 -85 15.667 -115 47s-45 71.666 -45 120.999v1026h-108
c-91.333 0 -137 39.333 -137 118z" />
    <glyph glyph-name="Itilde" unicode="&#x128;" horiz-adv-x="483" 
d="M-195 1733c0 56 20.835 107.499 62.502 154.499s89.834 70.5 144.501 70.5c48 0 101.333 -10.333 160 -31c131.333 -45.333 200.333 -67.666 207 -66.999c24.667 0 48.667 10 72 30c50.667 45.333 86.667 68 108 68c36.667 0 65.667 -12.667 87 -38s32 -57 32 -95
c0 -56 -20.833 -107.667 -62.5 -155s-89.834 -71 -144.501 -71c-58.667 0 -129.334 16.167 -212.001 48.5s-134.334 48.5 -155.001 48.5c-26 0 -49.667 -9.66699 -71 -29c-52 -45.333 -88.333 -68 -109 -68c-36.667 0 -65.667 12.667 -87 38s-32 57.333 -32 96z
M76.002 165.999v1141c0 57.333 15.333 101.333 46 132s70.667 46 120 46c50.667 0 91 -15 121 -45s45 -74.333 45 -133v-1141c0 -57.333 -15.5 -101.333 -46.5 -132s-70.833 -46 -119.5 -46c-50.667 0 -91 15 -121 45s-45 74.333 -45 133z" />
    <glyph glyph-name="itilde" unicode="&#x129;" horiz-adv-x="536" 
d="M-168 1360c0 56 20.834 107.499 62.501 154.499s89.834 70.5 144.501 70.5c48 0 101.333 -10.333 160 -31c131.333 -45.333 200.333 -67.666 207 -66.999c24.667 0 48.334 10.333 71.001 31c50.667 45.333 87 67.666 109 66.999c36.667 0 65.667 -12.667 87 -38
s32 -57 32 -95c0 -56 -20.833 -107.5 -62.5 -154.5s-89.834 -70.5 -144.501 -70.5c-58.667 0 -129.334 16 -212.001 48s-134.334 48 -155.001 48c-26 0 -50 -9.66699 -72 -29c-52 -45.333 -88 -67.666 -108 -66.999c-36.667 0 -65.667 12.667 -87 38s-32 57 -32 95z
M109.001 153.999l0.00195312 782c0 46.667 14.667 86 44 118s67.666 48 114.999 48c46.667 0 85 -15.667 115 -47s45 -71 45 -119v-782c0 -46.667 -14.667 -86 -44 -118s-68 -48 -116 -48c-46.667 0 -84.834 15.667 -114.501 47s-44.5 71 -44.5 119z" />
    <glyph glyph-name="Imacron" unicode="&#x12a;" horiz-adv-x="483" 
d="M-133 1804c0 38 11.667 69.333 35 94s54.666 37 93.999 37h491c86 0 129 -43.667 129 -131c0 -39.333 -11.167 -71 -33.5 -95s-54.166 -36 -95.499 -36h-491c-86 0 -129 43.667 -129 131zM76 166v1141c0 57.333 15.333 101.333 46 132s70.667 46 120 46
c50.667 0 91 -15 121 -45s45 -74.333 45 -133v-1141c0 -57.333 -15.5 -101.333 -46.5 -132s-70.833 -46 -119.5 -46c-50.667 0 -91 15 -121 45s-45 74.333 -45 133z" />
    <glyph glyph-name="imacron" unicode="&#x12b;" horiz-adv-x="536" 
d="M-106 1432c0 38 11.501 69.332 34.501 93.999s54.5 37 94.5 37h491c86 0 129 -43.667 129 -131c0 -39.333 -11.333 -71.166 -34 -95.499s-54.334 -36.5 -95.001 -36.5h-491c-86 0 -129 44 -129 132zM109.001 153.999l0.00195312 782c0 46.667 14.667 86 44 118
s67.666 48 114.999 48c46.667 0 85 -15.667 115 -47s45 -71 45 -119v-782c0 -46.667 -14.667 -86 -44 -118s-68 -48 -116 -48c-46.667 0 -84.834 15.667 -114.501 47s-44.5 71 -44.5 119z" />
    <glyph glyph-name="Ibreve" unicode="&#x12c;" horiz-adv-x="483" 
d="M-133 1882c0 86 39.001 129 117.001 129c44 0 82.167 -37.5 114.5 -112.5s80.166 -112.5 143.499 -112.5c61.333 0 108.333 37.5 141 112.5s71.667 112.5 117 112.5c38 0 66.833 -11.5 86.5 -34.5s29.5 -54.5 29.5 -94.5c0 -91.333 -36.167 -167 -108.5 -227
s-160.833 -90 -265.5 -90c-104 0 -192.5 29.667 -265.5 89s-109.5 135.333 -109.5 228zM76.001 166v1141c0 57.333 15.333 101.333 46 132s70.667 46 120 46c50.667 0 91 -15 121 -45s45 -74.333 45 -133v-1141c0 -57.333 -15.5 -101.333 -46.5 -132s-70.833 -46 -119.5 -46
c-50.667 0 -91 15 -121 45s-45 74.333 -45 133z" />
    <glyph glyph-name="ibreve" unicode="&#x12d;" horiz-adv-x="536" 
d="M-106 1509c0 86 38.665 129 115.998 129c44 0 82.333 -37.5 115 -112.5s80.334 -112.5 143.001 -112.5c61.333 0 108.333 37.5 141 112.5s71.667 112.5 117 112.5c38 0 67 -11.5 87 -34.5s30 -54.5 30 -94.5c0 -91.333 -36.167 -167 -108.5 -227
s-161.166 -90 -266.499 -90c-104 0 -192.333 29.667 -265 89s-109 135.333 -109 228zM108.998 154l0.00195312 782c0 46.667 14.667 86 44 118s67.666 48 114.999 48c46.667 0 85 -15.667 115 -47s45 -71 45 -119v-782c0 -46.667 -14.667 -86 -44 -118s-68 -48 -116 -48
c-46.667 0 -84.834 15.667 -114.501 47s-44.5 71 -44.5 119z" />
    <glyph glyph-name="Iogonek" unicode="&#x12e;" horiz-adv-x="483" 
d="M-70 -262c0 60 26.667 119.332 80 177.999c44 46 93.333 80.667 148 104h166c-39.333 -20.667 -77 -51.334 -113 -92.001c-39.333 -46.667 -59 -87.667 -59 -123c0 -53.333 23.667 -79.666 71 -78.999c6.66699 0 18.667 2.33301 36 7s32 7 44 7c28.667 0 43 -19 43 -57
c0 -35.333 -21.167 -63.666 -63.5 -84.999s-96.833 -32 -163.5 -32c-56 0 -101.5 15.333 -136.5 46s-52.5 72.667 -52.5 126zM76 165.999v1141c0 57.333 15.333 101.333 46 132s70.667 46 120 46c50.667 0 91 -15 121 -45s45 -74.333 45 -133v-1141
c0 -57.333 -15.5 -101.333 -46.5 -132s-70.833 -46 -119.5 -46c-50.667 0 -91 15 -121 45s-45 74.333 -45 133z" />
    <glyph glyph-name="iogonek" unicode="&#x12f;" horiz-adv-x="456" 
d="M-82 -260c0 60 26.665 119.331 79.998 177.998c43.333 46.667 92.333 81.667 147 105h166c-39.333 -20.667 -76.666 -51.667 -111.999 -93c-39.333 -46.667 -59.333 -87.667 -60 -123c0 -53.333 24 -79.666 72 -78.999c6.66699 0 18.5 2.33301 35.5 7s31.833 7 44.5 7
c28.667 0 43 -19 43 -57c0 -35.333 -21.167 -63.666 -63.5 -84.999s-97.166 -32 -164.499 -32c-56 0 -101.333 15.333 -136 46s-52 72.667 -52 126zM38.998 1401c0 53.333 18.667 98.668 56 136.001s82 56 134 56c53.333 0 98.5 -18.333 135.5 -55
s55.5 -82.334 55.5 -137.001s-18.5 -100.5 -55.5 -137.5s-82.167 -55.5 -135.5 -55.5s-98.333 18.5 -135 55.5s-55 82.833 -55 137.5zM69.998 156l0.00195312 790.001c0 46.667 14.667 86 44 118s67.666 48 114.999 48c46.667 0 85 -15.667 115 -47s45 -71 45 -119v-790
c0 -48 -14.667 -88 -44 -120s-68 -48 -116 -48c-46.667 0 -84.834 15.667 -114.501 47s-44.5 71.666 -44.5 120.999z" />
    <glyph glyph-name="Idotaccent" unicode="&#x130;" horiz-adv-x="483" 
d="M76 166v1141c0 57.333 15.333 101.333 46 132s70.667 46 120 46c50.667 0 91 -15 121 -45s45 -74.333 45 -133v-1141c0 -57.333 -15.5 -101.333 -46.5 -132s-70.833 -46 -119.5 -46c-50.667 0 -91 15 -121 45s-45 74.333 -45 133zM82 1790c0 44 15.666 81.667 46.999 113
s69 47 113 47s81.5 -15.667 112.5 -47s46.5 -69 46.5 -113s-15.667 -81.667 -47 -113s-68.666 -47 -111.999 -47c-44 0 -81.667 15.667 -113 47s-47 69 -47 113z" />
    <glyph glyph-name="dotlessi" unicode="&#x131;" horiz-adv-x="536" 
d="M109 154l0.00195312 782c0 46.667 14.667 86 44 118s67.666 48 114.999 48c46.667 0 85 -15.667 115 -47s45 -71 45 -119v-782c0 -46.667 -14.667 -86 -44 -118s-68 -48 -116 -48c-46.667 0 -84.834 15.667 -114.501 47s-44.5 71 -44.5 119z" />
    <glyph glyph-name="IJ" unicode="&#x132;" horiz-adv-x="1431" 
d="M76 166v1141c0 57.333 15.333 101.333 46 132s70.667 46 120 46c50.667 0 91 -15 121 -45s45 -74.333 45 -133v-1141c0 -57.333 -15.5 -101.333 -46.5 -132s-70.833 -46 -119.5 -46c-50.667 0 -91 15 -121 45s-45 74.333 -45 133zM539 209
c0 45.333 12.499 83.3359 37.499 114.003s62.833 46 113.5 46c23.333 0 65 -18 125 -54c30 -18 57.333 -26.667 82 -26c44 0 74.833 16.333 92.5 49s26.5 90.667 26.5 174v795c0 57.333 15.333 101.333 46 132s70.667 46 120 46c50.667 0 91 -15 121 -45s45 -74.333 45 -133
v-852c0 -144.667 -25.333 -254.667 -76 -330c-69.333 -105.333 -191 -158 -365 -158c-48 0 -96.167 6.16699 -144.5 18.5s-90.166 30.166 -125.499 53.499s-60.5 47.166 -75.5 71.499s-22.5 57.166 -22.5 98.499z" />
    <glyph glyph-name="ij" unicode="&#x133;" horiz-adv-x="933" 
d="M39 1401c0 53.333 18.667 98.668 56 136.001s82 56 134 56c53.333 0 98.5 -18.333 135.5 -55s55.5 -82.334 55.5 -137.001s-18.5 -100.5 -55.5 -137.5s-82.167 -55.5 -135.5 -55.5s-98.333 18.5 -135 55.5s-55 82.833 -55 137.5zM47 -163.998
c0 45.333 12.666 83.333 37.999 114s63.333 46 114 46c23.333 0 65 -17.667 125 -53c30 -18 57.333 -27 82 -27c44 0 74.667 16.333 92 49s26 90.667 26 174v795c0 57.333 15.333 101.333 46 132s70.667 46 120 46c50.667 0 91 -15 121 -45s45 -74.333 45 -133v-852
c0 -144.667 -25.333 -254.667 -76 -330c-69.333 -105.333 -190.666 -158 -363.999 -158c-48 0 -96.167 6.16699 -144.5 18.5s-90.333 30.166 -126 53.499s-61 47.333 -76 72s-22.5 57.334 -22.5 98.001zM69.999 176.002l0.00195312 770.001c0 46.667 14.667 86 44 118
s67.666 48 114.999 48c46.667 0 85 -15.667 115 -47s45 -71 45 -119v-770c0 -48 -14.667 -88 -44 -120s-68 -48 -116 -48c-46.667 0 -84.834 15.667 -114.501 47s-44.5 71.666 -44.5 120.999zM498.001 1401c0 53.333 18.667 98.668 56 136.001s82 56 134 56
c53.333 0 98.5 -18.333 135.5 -55s55.5 -82.334 55.5 -137.001s-18.5 -100.5 -55.5 -137.5s-82.167 -55.5 -135.5 -55.5s-98.333 18.5 -135 55.5s-55 82.833 -55 137.5z" />
    <glyph glyph-name="Jcircumflex" unicode="&#x134;" horiz-adv-x="948" 
d="M55 209c0 45.333 12.666 83.3359 37.999 114.003s63.333 46 114 46c23.333 0 65 -18 125 -54c30 -18 57.333 -26.667 82 -26c44 0 74.667 16.333 92 49s26 90.667 26 174v795c0 57.333 15.5 101.333 46.5 132s70.833 46 119.5 46c50.667 0 91 -15 121 -45
s45 -74.333 45 -133v-852c0 -144.667 -25.333 -254.667 -76 -330c-69.333 -105.333 -190.666 -158 -363.999 -158c-48 0 -96.167 6.16699 -144.5 18.5s-90.333 30.166 -126 53.499s-61 47.166 -76 71.499s-22.5 57.166 -22.5 98.499zM269.999 1663
c0 44 7.16699 75.833 21.5 95.5s43.5 39.834 87.5 60.501l180 84c12 5.33301 33.5 14.166 64.5 26.499s51.833 18.5 62.5 18.5c13.333 0 32.333 -5.16699 57 -15.5l70 -29.5l180 -84c40.667 -19.333 69 -40 85 -62s24 -53.333 24 -94c0 -35.333 -10.667 -65 -32 -89
s-47 -36 -77 -36c-20.667 0 -37.667 2 -51 6s-33 12.333 -59 25l-197 92l-197 -92c-18 -8 -36.333 -15.167 -55 -21.5s-37 -9.5 -55 -9.5c-28.667 0 -54 11.667 -76 35s-33 53.333 -33 90z" />
    <glyph glyph-name="jcircumflex" unicode="&#x135;" horiz-adv-x="477" 
d="M-410 -164c0 45.333 12.666 83.333 37.999 114s63.333 46 114 46c23.333 0 65 -17.667 125 -53c30 -18 57.333 -27 82 -27c44 0 74.833 16.333 92.5 49s26.5 90.667 26.5 174v795c0 57.333 15.333 101.333 46 132s70.334 46 119.001 46c50.667 0 91 -15 121 -45
s45 -74.333 45 -133v-852c0 -144.667 -25 -254.667 -75 -330c-69.333 -105.333 -191 -158 -365 -158c-48 0 -96.167 6.16699 -144.5 18.5s-90.333 30.166 -126 53.499s-61 47.333 -76 72s-22.5 57.334 -22.5 98.001zM-227.001 1352c0 44 7.16895 75.835 21.502 95.502
s43.166 39.5 86.499 59.5l180 84c12 5.33301 33.5 14.166 64.5 26.499s51.833 18.5 62.5 18.5c13.333 0 32.5 -5 57.5 -15s48.167 -20 69.5 -30l181 -84c40.667 -19.333 68.834 -39.833 84.501 -61.5s23.5 -52.834 23.5 -93.501c0 -35.333 -10.5 -65 -31.5 -89
s-46.5 -36 -76.5 -36c-20.667 0 -37.834 2 -51.501 6s-33.5 12 -59.5 24l-197 93l-196 -93c-18 -8 -36.5 -15 -55.5 -21s-37.5 -9 -55.5 -9c-28.667 0 -53.834 11.5 -75.501 34.5s-32.5 53.167 -32.5 90.5z" />
    <glyph glyph-name="uni0136" unicode="&#x136;" horiz-adv-x="1316" 
d="M37 -322c0 16.667 5.16797 32.832 15.501 48.499s23.5 23.5 39.5 23.5c13.333 0 36.666 -6.66699 69.999 -20c19.333 -8 34.333 -12.333 45 -13c19.333 0 35.666 6.16699 48.999 18.5s20 28.833 20 49.5c0 19.333 -6.66699 33.666 -20 42.999s-27.666 14 -42.999 14h-41
c-12 0 -22.833 4.83301 -32.5 14.5s-14.5 20.5 -14.5 32.5c0 16.667 6 34.667 18 54c5.33301 8 17.666 23.667 36.999 47l10 10c-19.333 8 -35.666 19 -48.999 33c-30 30 -45 74.333 -45 133v1141c0 57.333 15.333 101.333 46 132s70.667 46 120 46c50.667 0 91 -15 121 -45
s45 -74.333 45 -133v-410l457 504c30 34 56.167 56.5 78.5 67.5s47.833 16.5 76.5 16.5c38 0 75.167 -16 111.5 -48s54.5 -70 54.5 -114c0 -24.667 -5.33301 -47.167 -16 -67.5s-27 -42.166 -49 -65.499l-396 -402l433 -473c32.667 -36.667 54.334 -63 65.001 -79
c18 -27.333 27 -54.666 27 -81.999c0 -52 -16.833 -92.667 -50.5 -122s-74.834 -44 -123.501 -44c-38 0 -76.333 15.667 -115 47c-20.667 16.667 -50.667 48 -90 94l-463 524v-487c0 -57.333 -15 -101 -45 -131c-13.333 -13.333 -29 -24.333 -47 -33l-51 -70l49 2
c48 0 87.333 -14.667 118 -44s46 -69 46 -119c0 -58.667 -29.333 -106 -88 -142c-50.667 -31.333 -106.667 -47 -168 -47c-52 0 -93.667 5 -125 15c-53.333 16.667 -80 43.667 -80 81z" />
    <glyph glyph-name="uni0137" unicode="&#x137;" horiz-adv-x="1126" 
d="M37 -342c0 16.667 5.16895 32.832 15.502 48.499s23.5 23.5 39.5 23.5c13.333 0 36.666 -7 69.999 -21c19.333 -8 34.333 -12 45 -12c19.333 0 35.666 6.16699 48.999 18.5s20 28.5 20 48.5c0 19.333 -6.66699 33.833 -20 43.5s-27.666 14.5 -42.999 14.5h-41
c-12 0 -22.833 4.66699 -32.5 14s-14.5 20.333 -14.5 33c0 16.667 6 34.334 18 53.001c5.33301 8 17.666 23.667 36.999 47l43 51h142l-80 -108l49 2c48 0 87.333 -14.667 118 -44s46 -69.333 46 -120c0 -58.667 -29.333 -105.667 -88 -141
c-50.667 -31.333 -106.667 -47 -168 -47c-52 0 -93.667 4.66699 -125 14c-53.333 16.667 -80 44 -80 82zM106.002 155.998v1269c0 48 14.833 88 44.5 120s68.167 48 115.5 48c46.667 0 85 -16.333 115 -49s45 -72.334 45 -119.001v-686l260 262
c39.333 39.333 66.666 64.666 81.999 75.999c31.333 23.333 64 35 98 35c46.667 0 84.334 -14.333 113.001 -43s43 -63.334 43 -104.001c0 -32.667 -14.333 -65.667 -43 -99c-8 -9.33301 -31.333 -33 -70 -71l-172 -172l269 -344c22 -27.333 38.333 -50 49 -68
c18 -28.667 26.667 -53.334 26 -74.001c0 -36.667 -12.333 -69.334 -37 -98.001c-30 -34 -70 -51 -120 -51c-38 0 -68 6.83301 -90 20.5s-50 42.834 -84 87.501l-320 424l-4 -364c0 -48 -14.667 -88 -44 -120s-68 -48 -116 -48c-46.667 0 -85 15.667 -115 47
s-45 71.666 -45 120.999z" />
    <glyph glyph-name="kgreenlandic" unicode="&#x138;" horiz-adv-x="1116" 
d="M106 156l3.00098 794.005c0 48 14.667 88 44 120s67.666 48 114.999 48c46.667 0 85 -16.333 115 -49s45 -72.334 45 -119.001l-2 -211l260 262c39.333 39.333 66.666 64.666 81.999 75.999c31.333 23.333 64 35 98 35c46.667 0 84.334 -14.333 113.001 -43
s43 -63.334 43 -104.001c0 -32.667 -14.333 -65.667 -43 -99c-8 -9.33301 -31.333 -33 -70 -71l-172 -172l269 -344c22 -27.333 38.333 -50 49 -68c18 -28.667 26.667 -53.334 26 -74.001c0 -36.667 -12.333 -69.334 -37 -98.001c-30 -34 -70 -51 -120 -51
c-38 0 -68 6.83301 -90 20.5s-50 42.834 -84 87.501l-320 424l-4 -364c0 -48 -14.667 -88 -44 -120s-68 -48 -116 -48c-46.667 0 -85 15.667 -115 47s-45 71.666 -45 120.999z" />
    </font>
</defs>
</svg>
