<svg width="64" height="64" viewBox="0 0 64 64" fill="none" xmlns="http://www.w3.org/2000/svg">
<g clip-path="url(#clip0)">
<path d="M28 28L28 56L0 56L2.48281e-06 27.6C4.16132e-06 8.4 18 6 18 6L20.4 11.6C20.4 11.6 12.4 12.8 10.8 19.2C9.2 24 12.4 28 12.4 28L28 28Z" fill="#FE9800"/>
<path d="M64 28L64 56L36 56L36 27.6C36 8.4 54 6 54 6L56.4 11.6C56.4 11.6 48.4 12.8 46.8 19.2C45.2 24 48.4 28 48.4 28L64 28Z" fill="#FE9800"/>
</g>
<defs>
<clipPath id="clip0">
<rect width="64" height="64" fill="white" transform="translate(64 64) rotate(-180)"/>
</clipPath>
</defs>
</svg>
